<svg width="100" height="100" viewBox="0 0 100 100" fill="none" xmlns="http://www.w3.org/2000/svg">
<g clip-path="url(#clip0_748_6738)">
<path d="M100 50C100 22.3857 77.6143 0 50 0C22.3857 0 0 22.3857 0 50C0 74.9561 18.2842 95.6416 42.1875 99.3926V64.4531H29.4922V50H42.1875V38.9844C42.1875 26.4531 49.6523 19.5313 61.0732 19.5313C66.542 19.5313 72.2656 20.5078 72.2656 20.5078V32.8125H65.9609C59.75 32.8125 57.8125 36.667 57.8125 40.625V50H71.6797L69.4629 64.4531H57.8125V99.3926C81.7158 95.6416 100 74.9561 100 50Z" fill="#1877F2"/>
<path d="M69.4628 64.4531L71.6796 50H57.8124V40.625C57.8124 36.6709 59.7499 32.8125 65.9609 32.8125H72.2656V20.5078C72.2656 20.5078 66.5439 19.5312 61.0732 19.5312C49.6523 19.5312 42.1874 26.4531 42.1874 38.9844V50H29.4921V64.4531H42.1874V99.3926C47.3643 100.202 52.6356 100.202 57.8124 99.3926V64.4531H69.4628Z" fill="white"/>
</g>
<defs>
<clipPath id="clip0_748_6738">
<rect width="100" height="100" fill="white"/>
</clipPath>
</defs>
</svg>
