<svg width="100" height="100" viewBox="0 0 100 100" fill="none" xmlns="http://www.w3.org/2000/svg">
<g clip-path="url(#clip0_748_6743)">
<path d="M76.5625 0H23.4375C10.4933 0 0 10.4933 0 23.4375V76.5625C0 89.5067 10.4933 100 23.4375 100H76.5625C89.5067 100 100 89.5067 100 76.5625V23.4375C100 10.4933 89.5067 0 76.5625 0Z" fill="url(#paint0_radial_748_6743)"/>
<path d="M76.5625 0H23.4375C10.4933 0 0 10.4933 0 23.4375V76.5625C0 89.5067 10.4933 100 23.4375 100H76.5625C89.5067 100 100 89.5067 100 76.5625V23.4375C100 10.4933 89.5067 0 76.5625 0Z" fill="url(#paint1_radial_748_6743)"/>
<path d="M50.0037 10.9375C39.3951 10.9375 38.0635 10.984 33.8971 11.1734C29.7385 11.3641 26.8998 12.0223 24.4162 12.9883C21.8467 13.9859 19.6674 15.3207 17.4963 17.4926C15.3232 19.6641 13.9885 21.8434 12.9877 24.4117C12.0189 26.8961 11.3599 29.7359 11.1728 33.8926C10.9865 38.0594 10.9377 39.3914 10.9377 50.0004C10.9377 60.6094 10.9846 61.9367 11.1736 66.1031C11.365 70.2617 12.0232 73.1004 12.9885 75.584C13.9869 78.1535 15.3217 80.3328 17.4935 82.5039C19.6642 84.677 21.8435 86.0148 24.4111 87.0125C26.8967 87.9785 29.7357 88.6367 33.8935 88.8273C38.0603 89.0168 39.3908 89.0633 49.999 89.0633C60.6088 89.0633 61.9361 89.0168 66.1025 88.8273C70.2611 88.6367 73.1029 87.9785 75.5885 87.0125C78.1568 86.0148 80.333 84.677 82.5033 82.5039C84.6764 80.3328 86.0107 78.1535 87.0119 75.5852C87.9721 73.1004 88.6314 70.2609 88.8267 66.1039C89.0139 61.9375 89.0627 60.6094 89.0627 50.0004C89.0627 39.3914 89.0139 38.0602 88.8267 33.8934C88.6314 29.7348 87.9721 26.8965 87.0119 24.4129C86.0107 21.8434 84.6764 19.6641 82.5033 17.4926C80.3306 15.3199 78.1576 13.9852 75.5861 12.9887C73.0959 12.0223 70.2556 11.3637 66.0971 11.1734C61.9303 10.984 60.6037 10.9375 49.9916 10.9375H50.0037ZM46.4994 17.977C47.5396 17.9754 48.7002 17.977 50.0037 17.977C60.4338 17.977 61.6697 18.0145 65.7885 18.2016C69.5971 18.3758 71.6642 19.0121 73.0412 19.5469C74.8642 20.2547 76.1639 21.1012 77.5303 22.4688C78.8975 23.8359 79.7435 25.1379 80.4533 26.9609C80.9881 28.3359 81.6252 30.4031 81.7986 34.2117C81.9857 38.3297 82.0264 39.5664 82.0264 49.9914C82.0264 60.4164 81.9857 61.6535 81.7986 65.7711C81.6244 69.5797 80.9881 71.6469 80.4533 73.0223C79.7455 74.8453 78.8975 76.1434 77.5303 77.5098C76.1631 78.877 74.865 79.723 73.0412 80.4313C71.6658 80.9684 69.5971 81.6031 65.7885 81.7773C61.6705 81.9645 60.4338 82.0051 50.0037 82.0051C39.5732 82.0051 38.3369 81.9645 34.2193 81.7773C30.4107 81.6016 28.3435 80.9652 26.9654 80.4305C25.1428 79.7223 23.8404 78.8762 22.4732 77.509C21.106 76.1418 20.2599 74.843 19.5502 73.0191C19.0154 71.6438 18.3783 69.5766 18.2049 65.768C18.0178 61.65 17.9803 60.4133 17.9803 49.9816C17.9803 39.5504 18.0178 38.3199 18.2049 34.202C18.3791 30.3934 19.0154 28.3262 19.5502 26.9492C20.2584 25.1262 21.106 23.8242 22.4736 22.457C23.8408 21.0898 25.1428 20.2434 26.9658 19.534C28.3428 18.9969 30.4107 18.3621 34.2193 18.1871C37.8228 18.0242 39.2193 17.9754 46.4994 17.9672V17.977ZM70.8553 24.4629C68.2674 24.4629 66.1678 26.5605 66.1678 29.1488C66.1678 31.7367 68.2674 33.8363 70.8553 33.8363C73.4432 33.8363 75.5428 31.7367 75.5428 29.1488C75.5428 26.5609 73.4432 24.4613 70.8553 24.4613V24.4629ZM50.0037 29.9398C38.9256 29.9398 29.9435 38.9219 29.9435 50.0004C29.9435 61.0789 38.9256 70.0566 50.0037 70.0566C61.0822 70.0566 70.0611 61.0789 70.0611 50.0004C70.0611 38.9223 61.0814 29.9398 50.0029 29.9398H50.0037ZM50.0037 36.9793C57.1947 36.9793 63.0248 42.8086 63.0248 50.0004C63.0248 57.1914 57.1947 63.0215 50.0037 63.0215C42.8123 63.0215 36.983 57.1914 36.983 50.0004C36.983 42.8086 42.8123 36.9793 50.0037 36.9793Z" fill="white"/>
</g>
<defs>
<radialGradient id="paint0_radial_748_6743" cx="0" cy="0" r="1" gradientUnits="userSpaceOnUse" gradientTransform="translate(26.5625 107.702) rotate(-90) scale(99.1074 92.1777)">
<stop stop-color="#FFDD55"/>
<stop offset="0.1" stop-color="#FFDD55"/>
<stop offset="0.5" stop-color="#FF543E"/>
<stop offset="1" stop-color="#C837AB"/>
</radialGradient>
<radialGradient id="paint1_radial_748_6743" cx="0" cy="0" r="1" gradientUnits="userSpaceOnUse" gradientTransform="translate(-16.7504 7.20351) rotate(78.681) scale(44.3016 182.612)">
<stop stop-color="#3771C8"/>
<stop offset="0.128" stop-color="#3771C8"/>
<stop offset="1" stop-color="#6600FF" stop-opacity="0"/>
</radialGradient>
<clipPath id="clip0_748_6743">
<rect width="100" height="100" fill="white"/>
</clipPath>
</defs>
</svg>
