<svg width="100" height="100" viewBox="0 0 100 100" fill="none" xmlns="http://www.w3.org/2000/svg">
<g clip-path="url(#clip0_748_6741)">
<path d="M92.618 0H7.38191C5.4241 0 3.54648 0.77774 2.16209 2.16212C0.777709 3.54651 -3.05176e-05 5.42413 -3.05176e-05 7.38195V92.618C-3.05176e-05 94.5759 0.777709 96.4535 2.16209 97.8379C3.54648 99.2223 5.4241 100 7.38191 100H92.618C94.5758 100 96.4535 99.2223 97.8379 97.8379C99.2222 96.4535 100 94.5759 100 92.618V7.38195C100 5.42413 99.2222 3.54651 97.8379 2.16212C96.4535 0.77774 94.5758 0 92.618 0ZM29.8055 85.1875H14.7708V37.4306H29.8055V85.1875ZM22.2777 30.8125C20.5723 30.8029 18.908 30.2883 17.4947 29.3337C16.0814 28.3791 14.9826 27.0272 14.337 25.4487C13.6913 23.8702 13.5277 22.1358 13.8668 20.4644C14.2059 18.793 15.0325 17.2595 16.2423 16.0574C17.4521 14.8554 18.9909 14.0386 20.6644 13.7103C22.338 13.3819 24.0713 13.5566 25.6456 14.2124C27.2199 14.8682 28.5647 15.9757 29.5102 17.3951C30.4558 18.8144 30.9596 20.482 30.9583 22.1875C30.9744 23.3293 30.7604 24.4627 30.3292 25.52C29.8979 26.5774 29.2582 27.5371 28.4482 28.3419C27.6381 29.1468 26.6743 29.7803 25.6142 30.2048C24.5541 30.6292 23.4194 30.8359 22.2777 30.8125ZM85.2222 85.2292H70.1944V59.1389C70.1944 51.4444 66.9236 49.0694 62.7014 49.0694C58.243 49.0694 53.868 52.4306 53.868 59.3333V85.2292H38.8333V37.4653H53.2916V44.0833H53.4861C54.9375 41.1458 60.0208 36.125 67.7778 36.125C76.1666 36.125 85.2291 41.1042 85.2291 55.6875L85.2222 85.2292Z" fill="#0A66C2"/>
</g>
<defs>
<clipPath id="clip0_748_6741">
<rect width="100" height="100" fill="white"/>
</clipPath>
</defs>
</svg>
