<svg width="2252" height="600" viewBox="0 0 2252 600" fill="none" xmlns="http://www.w3.org/2000/svg">
<path d="M711.164 359.382V221.188C711.164 213.873 710.478 208.386 709.107 204.728C707.964 200.842 705.678 198.099 702.248 196.498C698.819 194.67 693.676 193.412 686.817 192.726L676.187 191.698V178.324C680.988 178.324 686.703 178.438 693.333 178.667C699.962 178.896 706.935 179.124 714.25 179.353C721.794 179.353 728.996 179.353 735.854 179.353H740.312C749.227 179.353 757.114 179.353 763.973 179.353C771.06 179.124 777.232 178.896 782.49 178.667C787.977 178.438 792.777 178.324 796.892 178.324C830.269 178.324 855.188 183.353 871.647 193.412C888.336 203.471 896.68 218.559 896.68 238.677C896.68 252.622 892.451 264.51 883.992 274.34C875.762 283.941 863.646 291.371 847.643 296.629C831.869 301.658 812.438 304.173 789.348 304.173H743.741V295.943H790.034C806.951 295.943 819.525 291.485 827.755 282.57C835.984 273.654 840.099 260.166 840.099 242.106C840.099 225.189 836.213 212.615 828.44 204.385C820.668 196.156 808.666 192.041 792.434 192.041H770.145V359.382H711.164ZM886.736 425.907C870.733 425.907 858.731 422.364 850.73 415.277C842.957 408.19 837.47 396.074 834.27 378.928L827.412 344.294C825.811 335.15 823.525 328.063 820.553 323.033C817.81 318.004 813.924 314.461 808.894 312.403C803.865 310.117 797.35 308.974 789.348 308.974H746.484V300.058H786.262C809.352 300.058 827.869 301.887 841.814 305.545C855.988 308.974 866.847 314.918 874.391 323.376C881.935 331.835 887.421 343.494 890.85 358.353L895.651 377.557C897.709 386.472 900.223 392.759 903.195 396.417C906.167 399.846 910.168 401.56 915.197 401.56C917.483 401.56 919.655 401.217 921.713 400.532C923.77 399.617 925.828 398.131 927.885 396.074L934.058 406.361C927.885 413.219 921.027 418.135 913.483 421.106C905.939 424.307 897.023 425.907 886.736 425.907ZM735.854 420.078C728.996 420.078 721.794 420.192 714.25 420.421C706.935 420.421 699.962 420.535 693.333 420.764C686.703 420.764 680.988 420.878 676.187 421.106V407.733L686.817 406.704C693.447 405.79 698.476 404.532 701.905 402.932C705.563 401.332 707.964 398.703 709.107 395.045C710.478 391.159 711.164 385.558 711.164 378.242L710.821 359.382H770.145V378.242C770.145 389.216 771.288 396.531 773.574 400.189C775.86 403.618 781.118 405.904 789.348 407.047L795.178 407.733V421.106C791.291 420.878 786.491 420.764 780.775 420.764C775.06 420.535 769.116 420.421 762.944 420.421C756.772 420.192 750.599 420.078 744.427 420.078H740.998H735.854ZM1017.98 243.478V332.292H964.829V283.598C964.829 274.454 963.228 268.053 960.028 264.395C957.056 260.737 951.226 258.451 942.539 257.537L934.652 256.851V243.478C940.139 243.935 945.168 244.278 949.74 244.506C954.541 244.506 959.799 244.506 965.514 244.506C975.802 244.506 985.175 244.163 993.633 243.478C1002.32 242.563 1010.44 241.306 1017.98 239.706V243.478ZM1017.98 332.292V369.327C1017.98 380.3 1020.15 388.53 1024.5 394.016C1028.84 399.503 1035.58 402.246 1044.73 402.246C1054.1 402.246 1062.44 399.046 1069.76 392.645C1077.3 386.015 1083.93 375.842 1089.65 362.125L1093.08 367.269C1085.53 387.844 1075.82 402.818 1063.93 412.191C1052.04 421.335 1037.87 425.907 1021.41 425.907C1002.89 425.907 988.833 420.764 979.231 410.476C969.629 399.96 964.829 384.758 964.829 364.869V332.292H1017.98ZM1079.36 421.106V332.292H1132.51V380.986C1132.51 390.13 1134 396.531 1136.97 400.189C1139.94 403.846 1145.89 406.133 1154.8 407.047L1162.35 407.733V421.106C1156.86 420.878 1151.83 420.764 1147.26 420.764C1142.69 420.535 1137.54 420.421 1131.83 420.421C1121.54 420.421 1112.05 420.764 1103.37 421.449C1094.91 422.135 1086.91 423.278 1079.36 424.878V421.106ZM1132.51 243.478V332.292H1079.36V283.598C1079.36 274.454 1077.99 268.053 1075.25 264.395C1072.5 260.737 1067.13 258.451 1059.13 257.537L1053.64 256.851V243.478C1059.13 243.935 1064.04 244.278 1068.39 244.506C1072.73 244.506 1077.42 244.506 1082.45 244.506C1092.05 244.506 1100.97 244.163 1109.19 243.478C1117.42 242.563 1125.2 241.306 1132.51 239.706V243.478ZM1236.23 420.078C1226.17 420.078 1216.68 420.192 1207.77 420.421C1199.08 420.649 1189.71 420.878 1179.65 421.106V407.733L1187.88 407.047C1196.34 406.133 1202.05 403.961 1205.02 400.532C1208.22 397.103 1209.82 390.93 1209.82 382.014V332.292H1262.98V382.014C1262.98 391.159 1264.23 397.56 1266.75 401.217C1269.26 404.647 1273.95 406.704 1280.81 407.39L1284.58 407.733V421.106C1275.89 420.878 1267.78 420.649 1260.23 420.421C1252.92 420.192 1244.92 420.078 1236.23 420.078ZM1209.82 332.292V283.598C1209.82 274.454 1208.22 268.167 1205.02 264.738C1202.05 261.08 1196.22 258.68 1187.53 257.537L1179.65 256.851V243.478C1185.13 243.935 1190.16 244.278 1194.74 244.506C1199.54 244.506 1204.79 244.506 1210.51 244.506C1220.8 244.506 1230.17 244.163 1238.63 243.478C1247.32 242.563 1255.43 241.306 1262.98 239.706V243.478V332.292H1209.82ZM1324.36 332.292V295.6C1324.36 284.17 1322.18 275.826 1317.84 270.568C1313.5 265.081 1306.64 262.338 1297.27 262.338C1287.89 262.338 1279.55 265.653 1272.23 272.282C1264.92 278.683 1258.29 288.742 1252.35 302.459L1248.92 297.315C1256.69 276.511 1266.52 261.538 1278.41 252.393C1290.29 243.249 1304.47 238.677 1320.93 238.677C1339.44 238.677 1353.5 243.935 1363.11 254.451C1372.71 264.738 1377.51 279.826 1377.51 299.715V332.292H1324.36ZM1351.1 420.078C1342.65 420.078 1334.64 420.192 1327.1 420.421C1319.56 420.649 1311.44 420.878 1302.75 421.106V407.733L1306.53 407.39C1313.38 406.704 1318.07 404.647 1320.58 401.217C1323.1 397.56 1324.36 391.159 1324.36 382.014V332.292H1377.51V382.014C1377.51 391.159 1378.77 397.56 1381.28 401.217C1384.02 404.647 1388.82 406.704 1395.68 407.39L1399.45 407.733V421.106C1390.54 420.878 1382.42 420.649 1375.11 420.421C1367.79 420.192 1359.79 420.078 1351.1 420.078ZM1439.23 332.292V295.6C1439.23 284.17 1436.83 275.826 1432.03 270.568C1427.46 265.081 1420.37 262.338 1410.77 262.338C1401.4 262.338 1392.94 265.424 1385.4 271.596C1377.85 277.769 1370.99 287.828 1364.82 301.773L1360.71 291.485C1368.48 273.425 1378.54 260.166 1390.88 251.707C1403.46 243.02 1418.31 238.677 1435.46 238.677C1454.21 238.677 1468.38 243.935 1477.98 254.451C1487.58 264.738 1492.38 279.826 1492.38 299.715V332.292H1439.23ZM1465.64 420.078C1457.18 420.078 1449.18 420.192 1441.63 420.421C1434.32 420.649 1426.2 420.878 1417.29 421.106V407.733L1421.06 407.39C1427.92 406.704 1432.6 404.647 1435.12 401.217C1437.86 397.56 1439.23 391.159 1439.23 382.014V332.292H1492.38V382.014C1492.38 390.93 1493.87 397.103 1496.84 400.532C1499.81 403.961 1505.64 406.133 1514.33 407.047L1522.22 407.733V421.106C1512.16 420.878 1502.79 420.649 1494.1 420.421C1485.41 420.192 1475.92 420.078 1465.64 420.078ZM1629.2 425.907C1611.83 425.907 1596.74 422.249 1583.94 414.934C1571.13 407.39 1561.19 396.645 1554.1 382.7C1547.24 368.755 1543.82 352.181 1543.82 332.978C1543.82 312.632 1547.59 295.486 1555.13 281.541C1562.68 267.367 1573.08 256.737 1586.34 249.65C1599.82 242.335 1615.48 238.677 1633.32 238.677C1649.78 238.677 1663.61 241.649 1674.81 247.593C1686.24 253.536 1694.93 262.681 1700.87 275.026C1706.81 287.37 1709.56 303.259 1709.1 322.69H1582.56L1581.88 309.66H1662.81C1663.04 298.458 1662.12 288.628 1660.06 280.169C1658.01 271.482 1654.81 264.738 1650.46 259.937C1646.12 254.908 1640.4 252.393 1633.32 252.393C1624.4 252.393 1616.74 257.194 1610.34 266.796C1604.17 276.169 1600.51 291.257 1599.37 312.06L1600.05 313.432C1599.82 315.489 1599.6 317.661 1599.37 319.947C1599.37 322.233 1599.37 324.977 1599.37 328.177C1599.37 350.581 1603.48 368.069 1611.71 380.643C1620.17 392.988 1632.29 399.16 1648.06 399.16C1659.26 399.16 1668.86 396.417 1676.87 390.93C1685.1 385.444 1692.07 376.985 1697.78 365.555L1710.13 372.07C1703.04 389.673 1692.64 403.046 1678.92 412.191C1665.21 421.335 1648.63 425.907 1629.2 425.907ZM1763.35 332.292V283.598C1763.35 274.454 1761.75 268.167 1758.55 264.738C1755.57 261.08 1749.74 258.68 1741.06 257.537L1733.17 256.851V243.478C1738.66 243.935 1743.69 244.278 1748.26 244.506C1753.06 244.506 1758.32 244.506 1764.03 244.506C1774.32 244.506 1783.69 244.163 1792.15 243.478C1800.84 242.563 1808.95 241.306 1816.5 239.706V243.478V332.292H1763.35ZM1789.75 420.078C1779.69 420.078 1770.21 420.192 1761.29 420.421C1752.6 420.649 1743.23 420.878 1733.17 421.106V407.733L1741.4 407.047C1749.86 406.133 1755.57 403.961 1758.55 400.532C1761.75 397.103 1763.35 390.93 1763.35 382.014V332.292H1816.5V382.014C1816.5 390.93 1817.98 397.103 1820.96 400.532C1823.93 403.961 1829.64 406.133 1838.1 407.047L1846.33 407.733V421.106C1836.27 420.878 1826.9 420.649 1818.21 420.421C1809.53 420.192 1800.04 420.078 1789.75 420.078ZM1789.75 211.244C1780.84 211.244 1773.06 208.729 1766.43 203.7C1760.03 198.442 1756.83 191.126 1756.83 181.753C1756.83 172.609 1760.03 165.522 1766.43 160.493C1773.06 155.463 1780.84 152.949 1789.75 152.949C1798.67 152.949 1806.44 155.463 1813.07 160.493C1819.7 165.522 1823.01 172.723 1823.01 182.096C1823.01 191.24 1819.7 198.442 1813.07 203.7C1806.44 208.729 1798.67 211.244 1789.75 211.244ZM1922.21 420.078C1912.16 420.078 1902.67 420.192 1893.75 420.421C1885.07 420.649 1875.69 420.878 1865.63 421.106V407.733L1873.86 407.047C1882.32 406.133 1888.04 403.961 1891.01 400.532C1894.21 397.103 1895.81 390.93 1895.81 382.014V332.292H1948.96V382.014C1948.96 387.958 1949.65 392.645 1951.02 396.074C1952.62 399.274 1955.25 401.675 1958.91 403.275C1962.56 404.875 1967.71 406.133 1974.34 407.047L1984.97 407.733V421.106C1977.65 420.878 1970.57 420.764 1963.71 420.764C1957.08 420.535 1950.33 420.421 1943.48 420.421C1936.85 420.192 1929.76 420.078 1922.21 420.078ZM1895.81 332.292V283.598C1895.81 274.454 1894.21 268.167 1891.01 264.738C1888.04 261.08 1882.21 258.68 1873.52 257.537L1865.63 256.851V243.478C1871.12 243.935 1876.15 244.278 1880.72 244.506C1885.52 244.506 1890.78 244.506 1896.5 244.506C1906.78 244.506 1916.16 244.163 1924.62 243.478C1933.3 242.563 1941.42 241.306 1948.96 239.706V243.478V332.292H1895.81ZM2003.83 310.346C1997.66 310.346 1992.74 308.631 1989.08 305.202C1985.43 301.773 1983.6 297.429 1983.6 292.171C1983.6 288.742 1984.17 285.656 1985.31 282.913C1986.45 279.941 1987.6 277.197 1988.74 274.683C1989.88 272.168 1990.45 269.768 1990.45 267.481C1990.45 262.452 1987.37 259.937 1981.2 259.937C1976.85 259.937 1972.51 260.966 1968.17 263.024C1963.82 265.081 1959.82 268.053 1956.16 271.939C1952.51 275.597 1949.65 279.941 1947.59 284.97L1947.25 270.225C1952.51 260.395 1959.71 252.622 1968.85 246.907C1978 241.191 1987.6 238.334 1997.66 238.334C2008.63 238.334 2017.2 241.534 2023.37 247.935C2029.55 254.336 2032.63 263.252 2032.63 274.683C2032.63 285.427 2030 294.114 2024.75 300.744C2019.49 307.145 2012.52 310.346 2003.83 310.346ZM2158.6 332.292V287.713C2158.6 275.597 2155.97 266.796 2150.71 261.309C2145.68 255.594 2137.68 252.736 2126.71 252.736C2119.39 252.736 2113.45 253.879 2108.87 256.165C2104.53 258.223 2102.36 261.08 2102.36 264.738C2102.36 267.253 2103.27 269.996 2105.1 272.968C2107.16 275.94 2109.1 279.026 2110.93 282.227C2112.76 285.427 2113.68 288.856 2113.68 292.514C2113.68 297.772 2111.27 302.116 2106.47 305.545C2101.9 308.745 2095.73 310.346 2087.96 310.346C2079.5 310.346 2072.75 308.059 2067.72 303.487C2062.92 298.915 2060.52 292.743 2060.52 284.97C2060.52 275.597 2063.84 267.481 2070.47 260.623C2077.1 253.765 2086.36 248.393 2098.24 244.506C2110.13 240.62 2124.08 238.677 2140.08 238.677C2165.68 238.677 2183.97 244.278 2194.95 255.48C2206.15 266.453 2211.75 284.627 2211.75 310.003V332.292H2158.6ZM2104.07 425.907C2088.53 425.907 2076.18 422.021 2067.04 414.248C2057.89 406.475 2053.32 395.959 2053.32 382.7C2053.32 372.184 2055.84 363.611 2060.87 356.982C2066.12 350.352 2072.75 345.094 2080.76 341.208C2088.76 337.093 2097.22 333.664 2106.13 330.92C2115.05 328.177 2123.51 325.548 2131.51 323.033C2139.74 320.519 2146.37 317.432 2151.4 313.775C2156.65 310.117 2159.28 305.43 2159.28 299.715L2160.65 316.861C2159.28 321.204 2156.65 324.862 2152.77 327.834C2148.88 330.806 2144.42 333.549 2139.39 336.064C2134.59 338.579 2129.79 341.436 2124.99 344.637C2120.42 347.837 2116.53 351.724 2113.33 356.296C2110.36 360.868 2108.87 366.812 2108.87 374.127C2108.87 381.9 2110.82 387.958 2114.7 392.302C2118.82 396.645 2124.53 398.817 2131.85 398.817C2137.79 398.817 2143.28 397.331 2148.31 394.359C2153.34 391.387 2157.8 386.701 2161.68 380.3L2162.03 394.702C2154.94 405.218 2146.59 413.105 2136.99 418.363C2127.39 423.393 2116.42 425.907 2104.07 425.907ZM2211.75 392.302C2211.75 397.56 2212.55 401.217 2214.15 403.275C2215.75 405.332 2218.26 406.361 2221.69 406.361C2224.66 406.361 2227.52 405.79 2230.27 404.647C2233.24 403.504 2236.1 401.903 2238.84 399.846L2244.33 410.819C2238.38 415.62 2231.41 419.278 2223.41 421.792C2215.63 424.536 2206.95 425.907 2197.35 425.907C2184.09 425.907 2174.26 423.278 2167.86 418.02C2161.68 412.762 2158.6 404.418 2158.6 392.988V332.292H2211.75V392.302Z" fill="url(#paint0_linear_669_28598)"/>
<path d="M167.134 460.292C161.25 448.681 158.052 432.307 158.277 419.388C158.636 398.795 166.63 378.234 181.637 363.864C194.898 351.17 211.651 343.933 230.221 344.511C271.224 345.785 294.574 388.271 314.631 418.359C323.388 431.496 330.349 441.343 341.162 452.833C346.245 457.075 349.919 461.027 355.579 465.214C377.153 481.394 403.978 488.959 430.828 486.433C431.857 486.343 434.112 485.836 434.804 486.085C434.353 486.568 434.373 486.612 433.837 486.975C426.694 493.972 402.319 510.68 392.772 514.292C355.327 533.516 309.05 543.126 267.331 535.216C258.961 533.845 250.43 531.243 242.454 528.442C218.467 519.77 197.393 504.548 181.621 484.503C177.252 478.986 173.425 473.669 170.368 467.297C169.133 466.066 167.545 462.026 167.134 460.292ZM255.252 469.441L216.055 469.658C212.211 469.658 181.548 469.421 180.6 469.907L180.887 471.05C188.778 485.596 212.209 501.132 227.98 505.418C233.268 506.856 238.735 508.28 244.174 509.153C246.449 509.519 249.497 509.663 251.39 510.038C266.727 510.023 279.573 508.512 291.455 497.191C295.31 493.517 297.958 487.608 297.946 482.235C297.952 479.007 297.161 475.825 295.644 472.974C294.785 473.622 295.764 473.847 294.671 474.741C292.41 476.598 288.549 477.791 285.708 477.375C282.488 476.924 279.586 475.192 277.663 472.57C275.432 469.597 274.535 465.832 275.188 462.173C275.886 458.408 278.056 455.077 281.216 452.915C300.012 439.884 316.843 468.023 311.93 485.162C307.526 500.522 297.858 509.449 282.801 515.332C272.85 518.827 256.804 520.289 246.108 519.091C246.283 519.448 246.53 520.008 246.732 520.33C259.419 524.168 272.483 526.62 285.697 527.645C319.122 529.972 352.447 522.515 382.629 508.333C390.038 504.852 398.537 500.801 404.707 495.436C395.898 494.575 388.855 492.521 380.64 489.448C361.737 482.379 344.543 471.466 331.02 456.378C328.562 453.639 325.852 450.808 323.804 447.75C320.104 445.148 297.481 409.957 293.347 403.942C281.725 387.035 269.72 368.801 250.045 359.648C243.753 356.722 238.437 355.91 231.787 354.592C231.502 360.035 231.673 365.549 231.706 371.007L231.756 392.924L231.862 417.079C231.917 425.054 231.784 434.88 233.493 442.579C234.606 447.571 236.978 452.194 240.384 456.006C242.733 458.625 246.064 460.925 249.293 462.272C254.139 464.291 255.59 462.296 255.298 468.554L255.252 469.441ZM173.338 448.887C177.868 458.906 188.336 445.813 188.031 436.796C187.728 427.878 190.077 377.098 187.878 372.518L187.492 372.255C181.885 375.964 175.374 389.32 172.815 395.754C167.035 410.282 166.836 434.452 173.338 448.887Z" fill="url(#paint1_linear_669_28598)"/>
<path d="M331.131 493.444C340.333 492.469 341.936 498.073 337.02 504.791C331.257 512.666 319.775 516.208 310.773 517.717C308.795 518.004 304.743 518.513 302.821 518.367L302.651 518.013C303.357 516.723 311.871 511.183 313.699 509.645C319.239 504.981 324.882 495.917 331.131 493.444Z" fill="url(#paint2_linear_669_28598)"/>
<path d="M323.804 447.75L324.032 447.322C322.421 445.151 313.017 433.711 313.131 431.906C316.166 428.716 316.975 430.684 318.355 426.299L318.917 425.806C319.796 426.469 324.844 434.434 325.948 435.852C330.618 441.867 335.086 447.653 340.585 452.941C340.778 452.912 340.992 452.927 341.162 452.833C346.245 457.075 349.919 461.027 355.579 465.214C377.153 481.394 403.978 488.959 430.828 486.433C431.857 486.343 434.112 485.836 434.804 486.085C434.353 486.568 434.373 486.612 433.837 486.975C426.694 493.972 402.319 510.68 392.772 514.292C355.327 533.516 309.05 543.126 267.331 535.216C258.961 533.845 250.43 531.243 242.454 528.442C218.467 519.77 197.393 504.548 181.621 484.503C177.252 478.986 173.425 473.669 170.368 467.297C172.198 467.598 174.798 471.847 180.887 471.05C188.778 485.596 212.209 501.132 227.98 505.418C233.268 506.856 238.735 508.28 244.174 509.153C246.449 509.519 249.497 509.663 251.39 510.038C266.727 510.023 279.573 508.512 291.455 497.191C295.31 493.517 297.958 487.608 297.946 482.235C297.952 479.007 297.161 475.825 295.644 472.974C294.785 473.622 295.764 473.847 294.671 474.741C292.41 476.598 288.549 477.791 285.708 477.375C282.488 476.924 279.586 475.192 277.663 472.57C275.432 469.597 274.535 465.832 275.188 462.173C275.886 458.408 278.056 455.077 281.216 452.915C300.012 439.884 316.843 468.023 311.93 485.162C307.526 500.522 297.858 509.449 282.801 515.332C272.85 518.827 256.804 520.289 246.108 519.091C246.283 519.448 246.53 520.008 246.732 520.33C259.419 524.168 272.483 526.62 285.697 527.645C319.122 529.972 352.447 522.515 382.629 508.333C390.038 504.852 398.537 500.801 404.707 495.436C395.898 494.575 388.855 492.521 380.64 489.448C361.737 482.379 344.543 471.466 331.02 456.378C328.562 453.639 325.852 450.808 323.804 447.75Z" fill="url(#paint3_linear_669_28598)"/>
<path d="M170.368 467.297C172.198 467.598 174.798 471.847 180.887 471.05C188.778 485.596 212.209 501.132 227.98 505.418C233.268 506.856 238.735 508.28 244.174 509.153C246.449 509.519 249.497 509.663 251.39 510.038L250.997 510.079C244.993 510.665 238.802 508.714 232.973 507.413C231.608 507.108 228.878 506.297 227.692 506.317C226.968 507.639 227.315 508.221 226.858 509.607C226.506 510.674 224.951 512.092 224.987 513.073C225.031 514.28 225.08 514.57 224.627 515.645C223.678 516.319 223.642 516.058 222.436 515.812L221.665 516.246L221.525 516.87C227.648 524.03 248.174 529.658 257.311 532.374C259.563 533.045 265.972 533.95 267.331 535.216C258.961 533.845 250.43 531.243 242.454 528.442C218.467 519.77 197.393 504.548 181.621 484.503C177.252 478.986 173.425 473.669 170.368 467.297Z" fill="url(#paint4_linear_669_28598)"/>
<path d="M392.772 514.292C394.62 511.875 414.029 502.371 415.022 500.596L414.51 499.21C415.919 494.839 416.271 492.366 421.28 493.242C422.335 493.427 422.262 493.752 422.921 494.578C425.262 494.141 430.541 487.807 433.837 486.975C426.694 493.972 402.319 510.68 392.772 514.292Z" fill="url(#paint5_linear_669_28598)"/>
<path d="M246.732 520.33C244.314 519.577 242.892 519.296 240.499 518.308L240.538 518.373L240.968 517.746L241.115 517.766L240.882 518.557L241.417 517.822L246.108 519.091C246.283 519.448 246.53 520.008 246.732 520.33Z" fill="url(#paint6_linear_669_28598)"/>
<path d="M167.134 460.292C170.623 461.985 171.741 462.126 175.626 462.261C177.009 462.252 178.909 462.014 180.326 461.877C178.151 463.444 178.986 465.032 179.747 467.235C179.974 468.079 180.2 469.178 180.6 469.907L180.887 471.05C174.798 471.847 172.198 467.598 170.368 467.297C169.133 466.066 167.545 462.026 167.134 460.292Z" fill="url(#paint7_linear_669_28598)"/>
<path d="M175.626 462.261C177.009 462.252 178.909 462.014 180.326 461.877C178.151 463.444 178.986 465.032 179.747 467.235C175.252 467.361 175.611 466.219 175.626 462.261Z" fill="url(#paint8_linear_669_28598)"/>
<path d="M136.608 451.26C133.376 448.896 130.674 447.985 127.322 446.122C113.009 438.174 98.1682 428.766 85.9408 417.88C65.109 399.15 49.5749 375.267 40.9001 348.631C27.3813 307.003 31.9004 259.016 51.7244 220.308C76.2263 171.749 126.588 141.338 179.26 131.757C245.64 119.684 355.216 122.409 379.588 201.115C399.275 264.707 356.221 321.355 294.135 334.29C293.317 334.46 292.788 334.867 292.443 335.582C298.447 337.187 303.434 338.013 309.343 340.237C325.178 346.202 332.974 356.456 342.416 369.768C358.066 391.829 372.835 416.177 394.16 433.366C398.434 436.794 404.156 439.829 408.961 442.483C422.64 451.301 442.547 453.162 458.259 449.804C462.149 448.249 467.142 447.393 472.204 445.272C490.872 437.459 507.41 424.082 519.404 407.828C520.81 405.921 528.697 393.821 528.978 393.636L529.239 394.243C528.436 401.948 527.168 404.242 524.276 411.373C522.776 415.073 522.375 417.595 520.204 421.498C520.011 422.057 519.803 422.611 519.577 423.156C517.09 429.197 507.811 442.779 503.93 448.275C474.228 490.363 433.292 523.246 385.79 543.174C335.678 564.232 275.662 568.161 225.024 546.962C193.094 533.596 164.26 508.6 147.881 477.906C145.31 473.087 142.853 468.141 140.86 463.064C139.39 459.317 138.318 455.271 136.763 451.618L136.608 451.26ZM132.437 426.086C132.689 421.691 132.704 417.127 132.951 412.726C135.853 361.023 173.942 323.403 225.44 319.515C242.364 318.238 265.254 317.614 281.556 311.775L281.928 311.64C283.258 311.421 287.256 309.95 288.706 309.44C300.173 305.38 311.464 298.401 320.185 289.968C350.226 260.921 351.105 208.122 322.037 178.086C305.013 160.492 275.473 150.86 251.477 150.566C245.83 149.752 232.994 149.981 227.087 150.245C189.105 151.945 145.595 162.61 114.773 185.612C84.8788 208.265 65.1919 241.852 60.0316 279.002C54.6737 316.219 65.5523 354.188 88.0317 384.1C93.9023 391.8 100.534 398.889 107.825 405.258C112.572 409.457 121.986 416.236 125.125 420.929C126.194 423.282 130.049 432.118 131.187 433.797C131.414 432.376 131.152 431.898 132.344 431.051C132.752 429.531 132.521 427.703 132.437 426.086ZM170.368 467.298C173.425 473.67 177.252 478.987 181.621 484.504C197.393 504.549 218.467 519.771 242.454 528.443C250.43 531.244 258.961 533.845 267.331 535.216C309.05 543.127 355.327 533.517 392.771 514.293C402.319 510.68 426.694 493.972 433.837 486.976C434.373 486.613 434.352 486.569 434.804 486.086C434.112 485.837 431.856 486.343 430.828 486.434C403.977 488.96 377.153 481.395 355.579 465.215C349.919 461.028 346.245 457.076 341.162 452.834C330.349 441.343 323.388 431.497 314.631 418.36C294.574 388.272 271.224 345.786 230.221 344.511C211.651 343.934 194.898 351.171 181.637 363.865C166.63 378.235 158.636 398.796 158.277 419.388C158.052 432.308 161.25 448.682 167.134 460.293C167.545 462.027 169.133 466.067 170.368 467.298Z" fill="#042239"/>
<path d="M292.443 335.581C298.447 337.187 303.434 338.013 309.343 340.236C325.178 346.201 332.974 356.455 342.416 369.768C358.066 391.828 372.835 416.177 394.16 433.365C398.435 436.793 404.156 439.828 408.961 442.482C422.64 451.301 442.547 453.161 458.259 449.804L458.792 450.12C448.236 452.962 438.911 451.925 428.426 450.75C426.762 450.565 422.903 457.591 420.917 457.79L420.911 458.2L421.271 458.253C424.67 458.789 427.831 459.92 431.229 460.412C432.17 460.55 434.276 460.409 434.686 460.84C433.948 460.825 433.192 460.734 432.513 460.925C426.076 460.6 416.496 457.415 410.64 454.881C381.349 442.204 361.128 414.372 343.286 389.057C335.001 377.3 329.358 368.525 319.644 357.533C314.15 351.416 307.831 346.093 300.87 341.722C299.118 340.638 291.651 336.759 290.819 335.877L292.443 335.581Z" fill="url(#paint9_linear_669_28598)"/>
<path d="M458.259 449.804C462.149 448.248 467.142 447.393 472.204 445.272C490.872 437.458 507.41 424.081 519.404 407.827C520.811 405.92 528.697 393.82 528.978 393.636L529.239 394.242C528.436 401.947 527.168 404.241 524.276 411.372C522.776 415.072 522.375 417.595 520.204 421.497C515.314 426.501 510.536 432.053 505.327 436.708C488.004 452.429 465.542 461.291 442.151 461.631C440.221 461.651 434.186 461.525 432.513 460.925C433.192 460.734 433.948 460.825 434.686 460.84C434.276 460.409 432.17 460.55 431.229 460.412C427.831 459.92 424.67 458.789 421.271 458.253L420.911 458.2L420.917 457.79C422.903 457.591 426.762 450.565 428.426 450.75C438.911 451.925 448.236 452.962 458.792 450.12L458.259 449.804Z" fill="url(#paint10_linear_669_28598)"/>
<path d="M289.616 201.536C291.449 203.063 295.242 213.588 296.341 216.481C303.905 236.412 304.919 249.827 296.057 269.403L296.552 269.287C301.799 268.116 308.824 264.235 314.203 262.182L314.557 262.453C314.719 263.508 314.56 264.38 314.238 265.414C310.353 277.838 297.682 279.537 287.048 282.984C281.698 284.718 277.877 286.453 273.157 289.168C275.32 285.055 278.17 282.166 280.591 278.385C287.985 266.839 292.178 255.057 291.866 241.269C291.346 233.11 289.575 221.716 285.021 214.699C281.853 216.949 278.438 218.336 275.228 220.438C262.367 228.861 252.407 239.234 252.165 255.376C252.071 261.686 252.265 265.616 249.315 271.242C249.171 271.02 248.905 270.615 248.797 270.381C244.129 260.186 242.629 248.702 246.181 238.037C252.686 218.503 273.07 210.203 289.616 201.536Z" fill="url(#paint11_linear_669_28598)"/>
<path d="M125.125 420.929C121.986 416.236 112.572 409.456 107.825 405.258C100.534 398.889 93.9023 391.799 88.0318 384.1C65.5523 354.188 54.6738 316.219 60.0316 279.002C65.1919 241.851 84.8788 208.265 114.773 185.612C145.595 162.61 189.105 151.945 227.087 150.245C232.994 149.981 245.83 149.751 251.477 150.565C275.473 150.859 305.013 160.492 322.037 178.085C351.105 208.122 350.226 260.92 320.185 289.967C311.464 298.401 300.173 305.379 288.706 309.44C287.256 309.949 283.258 311.42 281.928 311.64L281.556 311.775C265.254 317.613 242.364 318.237 225.44 319.515C173.942 323.403 135.853 361.023 132.951 412.726C132.704 417.126 132.689 421.691 132.437 426.085C132.521 427.702 132.752 429.53 132.344 431.051C131.152 431.898 131.414 432.375 131.187 433.796C130.049 432.117 126.194 423.281 125.125 420.929ZM152.712 230.414C159.305 230.673 162.41 232.501 166.965 237.437C172.474 243.459 175.404 251.4 175.129 259.557C174.745 268.771 170.702 277.452 163.896 283.676C156.269 290.681 145.812 293.868 135.573 293.385C122.974 292.789 111.122 287.229 102.61 277.921C93.7171 268 88.5667 256.709 88.5424 243.288C88.5336 238.502 88.9145 233.863 88.4047 229.109C80.8716 240.474 77.4843 249.911 73.5418 262.864C59.7796 308.074 75.2293 361.307 109.314 393.613C112.677 396.797 117.588 402.138 121.427 404.716C122.065 405.141 122.72 405.542 123.39 405.914C124.681 387.117 124.093 365.798 113.906 349.421C112.1 346.573 110.187 343.793 108.171 341.089C102.532 333.498 88.2433 315.911 101.848 308.523C106.902 308.318 110.596 309.592 114.303 313.143C125.651 324.009 129.05 340.204 129.501 355.33C129.6 358.644 129.235 363.674 129.577 366.677C129.662 367.462 129.642 368.224 130.075 368.848C132.35 364.603 133.5 359.523 135.661 355.339C142.8 341.526 152.333 329.01 164.505 319.245C169.641 315.123 175.038 311.18 180.243 307.008C190.708 293.11 188.269 273.745 188.422 257.351C188.592 239.197 188.807 220.312 187.964 202.131C187.723 196.909 185.554 191.075 184.866 185.766L184.81 185.312C183.465 183.095 182.189 181.121 181.24 178.699C199.372 184.368 213.681 185.918 232.554 182.899C234.573 182.576 242.733 179.79 243.797 180.817C242.585 184.478 238.461 187.728 236.693 191.743C231.577 203.362 232.209 214.887 232.168 227.324L232.211 265.355C232.173 275.18 232.749 286.387 229.704 295.787C228.928 298.181 224.984 302.203 225.584 304.272C230.545 302.376 239.785 297.126 244.225 294.179C251.972 289.033 259.516 280.721 264.61 272.993C267.163 269.121 269.522 263.408 271.378 259.057C273.498 252.753 273.909 246.884 275.533 242.104C276.87 246.848 278.093 258.719 276.605 262.982C274.461 278.752 264.4 291.699 251.971 301.04C249.04 303.243 245.124 305.57 242.531 307.74C251.972 307.506 261.358 306.243 270.525 303.976C273.302 303.595 276.275 302.634 278.964 301.825C311.142 292.161 331.846 269.643 332.801 235.095C334.046 190.058 301.225 165.98 259.507 161.341C250.392 160.328 242.315 160.236 233.226 159.998C227.726 160.345 222.002 160.243 216.575 160.783C189.113 163.531 159.058 169.826 140.263 191.834C131.522 202.07 125.256 213.273 126.213 227.107C126.865 236.541 132.519 246.716 143.331 245.95C146.266 245.743 148.802 244.612 150.718 242.336C153.797 238.665 153.262 235.74 152.819 231.432L152.712 230.414Z" fill="url(#paint12_linear_669_28598)"/>
<path d="M275.533 242.104C276.87 246.848 278.093 258.719 276.605 262.982L276.156 262.957C276.034 261.631 275.414 260.893 274.692 259.761C273.369 260.17 272.376 260.109 271.378 259.057C273.498 252.753 273.909 246.884 275.533 242.104Z" fill="url(#paint13_linear_669_28598)"/>
<path d="M251.477 150.565C275.473 150.859 305.013 160.492 322.037 178.085C351.105 208.122 350.226 260.92 320.185 289.967C311.464 298.401 300.173 305.379 288.706 309.44C287.256 309.949 283.258 311.42 281.928 311.64C278.709 311.411 278.785 312.457 276.269 312.61C275.962 312.337 275.866 312.252 275.704 311.868C274.584 309.232 272.238 307.445 270.582 305.206C270.194 304.682 270.347 304.828 270.525 303.976C273.302 303.595 276.275 302.634 278.964 301.825C311.142 292.161 331.846 269.643 332.801 235.095C334.046 190.058 301.225 165.98 259.507 161.341C250.392 160.328 242.315 160.236 233.226 159.998C231.91 159.769 229.781 159.823 228.388 159.808C231.117 158.949 233.935 160.516 238.229 158.226C238.729 157.428 240.153 156.065 240.438 155.511C243.67 149.247 245.227 151.03 251.477 150.565Z" fill="url(#paint14_linear_669_28598)"/>
<path d="M125.125 420.929C127.195 421.254 130.733 424.377 131.143 426.349L130.859 426.841C129.961 426.381 130.267 425.936 129.902 425.115C129.305 423.774 127.515 422.47 126.398 421.529C126.167 423.281 128.477 427.635 130.145 428.59C131.304 428.546 130.755 428.687 131.821 428.039C132.243 427.102 132.146 426.864 132.437 426.085C132.521 427.702 132.752 429.53 132.344 431.051C131.152 431.898 131.414 432.375 131.187 433.796C130.049 432.117 126.194 423.281 125.125 420.929Z" fill="url(#paint15_linear_669_28598)"/>
<path d="M142.733 179.568L142.913 179.619L143.008 179.879C133.067 186.463 125.985 193.853 120.687 204.802C112.646 221.422 113.493 245.182 132.251 253.984C139.609 257.437 150.241 257.2 155.984 250.929C157.959 248.773 159.107 246.282 160.266 243.608C168.265 255.43 166.535 269.517 154.885 278.093C153.87 278.73 152.948 279.284 151.875 279.819C143.724 283.822 134.312 284.406 125.73 281.439C94.5591 270.926 91.2817 231.382 107.94 207.306C117.438 193.58 128.012 186.736 142.733 179.568Z" fill="#042239"/>
<path d="M198.371 363.937C204.141 357.788 223.513 352.623 231.787 354.591C231.502 360.035 231.673 365.548 231.706 371.006L231.756 392.923L231.862 417.079C231.917 425.053 231.784 434.879 233.493 442.579C234.606 447.571 236.978 452.194 240.383 456.005C242.733 458.625 246.064 460.924 249.293 462.272C254.139 464.291 255.59 462.295 255.298 468.553L255.252 469.441L216.054 469.658C212.21 469.658 181.548 469.42 180.6 469.907C180.2 469.177 179.974 468.079 179.747 467.235C178.986 465.032 178.15 463.444 180.326 461.876C200.973 456.878 198.401 428.976 198.402 412.708L198.385 381.975C198.365 376.043 198.193 369.84 198.371 363.937Z" fill="#042239"/>
<path d="M437.549 161.52C434.648 152.255 428.895 143.008 425.842 133.631C417.334 107.507 419.897 76.7505 432.981 52.539C435.905 47.1296 444.463 32.2462 449.405 29.1475C451.922 28.8708 460.143 40.4098 461.933 42.6709C477.425 62.2556 492.715 83.8283 495.77 109.296C497.871 126.599 495.117 143.707 487.509 159.325C482.892 168.795 480.144 172.355 478.998 183.042L479.341 182.813C481.673 181.225 485.405 177.857 487.62 175.84C494.156 169.883 505.301 163.385 513.932 160.992C522.595 157.937 540.882 153.423 549.844 153.461C551.909 179.746 544.822 207.944 527.877 228.201C512.643 246.415 489.891 253.03 467.804 258.011C464.83 258.681 460.535 260.801 457.652 262.126C455.171 265.395 452.543 270.84 449.994 274.584C447.753 277.875 441.841 284.104 440.437 287.011C439.594 288.194 438.902 289.274 438.135 290.496C436.594 291.622 434.408 293.124 433.075 294.384C432.724 294.92 432.363 295.444 431.988 295.963C430.544 297.94 425.792 302.291 423.902 304.02C406.359 319.934 384.721 330.636 361.424 334.922C353.449 336.366 345.475 337.093 337.392 337.412C334.532 337.526 331.696 337.881 328.866 338.3C335.725 331.043 348.583 328.819 357.896 326.467C376.348 321.812 393.448 313.544 407.748 300.87C413.294 295.954 421.037 289.292 424.928 282.885C429.879 272.359 430.758 265.78 429.337 254.073C427.661 240.228 420.618 235.187 410.555 226.937C405.932 223.149 398.672 215.49 395.27 210.476L395.112 210.238C388.957 202.849 384.885 192.535 382.119 183.327C380.256 178.72 378.8 167.576 378.814 162.686C377.531 155.634 378.697 144.787 379.506 137.718C380.13 133.826 380.862 128.211 382.207 124.626C386.291 126.325 391.503 129.664 395.455 131.914C411.217 140.882 424.063 149.286 437.549 161.52Z" fill="#042239"/>
<path d="M437.549 161.52C434.648 152.255 428.894 143.008 425.842 133.631C417.334 107.507 419.897 76.7505 432.981 52.539C435.905 47.1296 444.463 32.2462 449.405 29.1475C451.922 28.8708 460.142 40.4098 461.933 42.6709C477.425 62.2556 492.715 83.8283 495.77 109.296C497.871 126.599 495.117 143.707 487.509 159.325C482.892 168.795 480.143 172.355 478.998 183.042L479.341 182.813C481.673 181.225 485.405 177.857 487.62 175.84C494.156 169.883 505.301 163.385 513.932 160.992C514.137 161.086 514.342 161.181 514.547 161.275C517.166 160.417 533.338 155.494 534.724 156.522C534.501 157.863 534.167 159.925 533.9 161.311C533.88 161.425 534.797 162.784 534.955 163.004C535.087 163.189 535.222 163.374 535.356 163.558C534.618 165.41 529.863 166.153 528.035 166.494C523.884 167.269 520.447 168.461 516.489 169.789L517.011 170.118C493.6 179.06 484.198 189.466 470.836 210.157C471.258 206.882 471.316 201.161 471.322 197.823C471.504 181.568 469.298 165.375 464.771 149.762C460.573 135.278 455.64 122.003 453.65 106.821C453.246 103.723 452.481 99.2704 452.637 96.2206C453.703 92.0479 451.737 87.2265 453.407 83.5005C456.299 100.818 460.321 114.173 466.67 130.514C469.904 138.837 474.829 151.324 476.42 160.012C478.148 156.237 481.245 150.07 482.376 146.334C487.605 129.064 488.716 110.753 482.265 93.6826C475.327 75.3185 462.639 58.0031 450.228 43.1077C434.979 62.7308 427.485 88.4625 430.559 113.222C432.75 132.358 442.825 149.161 449.511 166.84C455.505 182.69 458.47 202.358 454.916 219.195C450.445 240.361 440.93 262.404 427.972 279.816C427.245 280.792 425.988 282.428 424.928 282.885C429.879 272.359 430.758 265.779 429.337 254.073C427.661 240.228 420.618 235.187 410.555 226.937C405.932 223.149 398.672 215.49 395.27 210.476L395.112 210.238C388.957 202.849 384.885 192.535 382.119 183.327C380.256 178.72 378.8 167.576 378.814 162.686C377.531 155.634 378.697 144.787 379.506 137.718C380.13 133.826 380.862 128.211 382.207 124.626C386.291 126.325 391.503 129.664 395.455 131.914C411.217 140.882 424.063 149.286 437.549 161.52Z" fill="url(#paint16_linear_669_28598)"/>
<path d="M379.506 137.718C380.332 139.031 379.966 143.973 382.509 145.081C384.1 145.772 384.044 144.767 385.96 144.802C387.387 144.073 387.436 143.452 387.688 141.986L387.914 144.294C387.832 147.565 387.899 155.307 387.633 158.078C387.571 159.021 387.58 160.949 387.091 161.626C386.147 159.912 386.42 157.77 385.494 156.829C383.997 156.452 382.412 156.647 381.05 157.377C379.283 158.305 380.434 159.846 379.415 159.838C379.049 160.937 379.096 161.655 378.814 162.686C377.531 155.634 378.697 144.787 379.506 137.718Z" fill="url(#paint17_linear_669_28598)"/>
<path d="M382.119 183.327L382.687 182.907C383.481 183.26 383.859 184.056 384.076 184.864C386.464 193.743 390.398 201.357 395.645 208.875C395.722 208.982 395.262 210.032 395.112 210.238C388.957 202.849 384.885 192.535 382.119 183.327Z" fill="url(#paint18_linear_669_28598)"/>
<path d="M494.71 127.521C495.466 128.44 495.354 129.502 495.184 130.594L494.701 130.782C494.317 130.027 494.511 128.37 494.71 127.521Z" fill="url(#paint19_linear_669_28598)"/>
<path d="M513.932 160.992C522.595 157.937 540.882 153.423 549.844 153.461C551.909 179.746 544.822 207.944 527.877 228.201C512.642 246.415 489.891 253.03 467.804 258.011C464.83 258.681 460.535 260.801 457.652 262.126C457.717 261.037 466.318 242.433 467.678 239.828C479.218 217.681 496.743 201.356 519.501 191.142C513.817 196.286 508.919 200.252 503.399 205.85C491.347 218.075 483.551 231.142 474.75 245.715C486.926 244.22 503.695 236.937 512.971 228.85C533.505 210.947 538.846 189.632 541.148 164.214C532.289 165.962 525.551 167.432 517.011 170.118L516.489 169.789C520.447 168.461 523.884 167.269 528.035 166.494C529.863 166.153 534.618 165.41 535.356 163.558C535.222 163.374 535.087 163.189 534.955 163.004C534.797 162.784 533.88 161.425 533.9 161.311C534.167 159.925 534.501 157.863 534.724 156.522C533.338 155.494 517.166 160.417 514.547 161.275C514.342 161.181 514.137 161.086 513.932 160.992Z" fill="url(#paint20_linear_669_28598)"/>
<path d="M452.637 96.2206C452.206 93.4081 452.039 80.6613 452.599 77.9197C453.141 79.6371 453.231 81.6794 453.407 83.5005C451.737 87.2265 453.703 92.0479 452.637 96.2206Z" fill="url(#paint21_linear_669_28598)"/>
<path d="M542.326 229.073C545.294 236.25 546.642 246.25 548.273 253.901C556.667 293.285 553.529 335.317 538.365 372.683C536.47 377.353 529.644 390.372 529.239 394.242L528.979 393.636C528.697 393.82 520.811 405.92 519.404 407.827C507.41 424.081 490.872 437.458 472.204 445.272C467.142 447.393 462.149 448.248 458.259 449.804C442.547 453.161 422.64 451.301 408.961 442.483C412.48 443.675 415.333 444.63 419.08 444.73C431.112 445.055 439.269 445.474 448.594 437.033C449.953 434.775 452.221 432.39 453.779 430.061C464.692 413.736 466.008 384.176 447.68 372.407C440.751 367.96 436.225 366.287 427.872 367.172C417.463 368.274 410.382 375.425 409.617 385.901C408.993 394.169 413.836 399.199 418.805 405.059C411.038 405.668 404.437 405.372 397.327 401.862C389.309 397.893 383.186 390.914 380.291 382.45C376.647 371.675 378.633 358.444 383.593 348.469C395.065 325.395 421.532 314.388 446.279 320.101C451.761 321.366 456.812 322.729 461.865 325.292C477.615 333.258 489.706 346.966 495.645 363.589C497.47 368.775 497.798 372.961 499.333 377.59L499.474 378.012C502.368 374.233 505.526 366.662 507.375 362.107C519.41 332.429 521.476 299.599 517.069 268.114C516.565 264.5 515.332 260.716 515.159 257.106C515.865 254.961 520.635 251.702 522.548 250.281C524.306 248.054 529.462 243.831 531.759 241.565C536.01 237.365 538.813 233.851 542.326 229.073Z" fill="#042239"/>
<path d="M522.548 250.281C525.457 258.371 527.174 269.994 528.003 278.559C531.146 311.008 526.321 344.467 512.265 374.008C506.13 386.898 495.223 404.028 484.526 413.599C486.035 409.035 487.843 403.586 488.555 398.857C490.608 385.199 489.056 371.037 482.813 358.665C475.98 345.376 464.089 335.394 449.815 330.97C426.911 323.634 397.591 333.229 389.631 357.853C384.914 372.446 389.247 384.563 401.227 393.944C396.035 371.441 413.396 352.82 438.943 357.885C475.313 365.095 483.023 419.816 448.91 437.01C448.805 437.019 448.699 437.028 448.594 437.034C449.953 434.775 452.221 432.39 453.779 430.061C464.692 413.737 466.008 384.176 447.68 372.408C440.751 367.961 436.225 366.288 427.872 367.173C417.463 368.274 410.382 375.425 409.617 385.902C408.993 394.17 413.836 399.2 418.805 405.059C411.038 405.669 404.437 405.373 397.327 401.863C389.309 397.893 383.186 390.915 380.291 382.451C376.647 371.675 378.633 358.445 383.593 348.469C395.065 325.395 421.532 314.388 446.279 320.101C451.761 321.367 456.812 322.729 461.865 325.293C477.615 333.258 489.706 346.967 495.645 363.59C497.47 368.775 497.798 372.962 499.333 377.591L499.474 378.012C502.368 374.233 505.526 366.663 507.375 362.107C519.41 332.429 521.476 299.599 517.069 268.115C516.565 264.5 515.332 260.716 515.159 257.106C515.865 254.961 520.635 251.703 522.548 250.281Z" fill="url(#paint22_linear_669_28598)"/>
<path d="M108.916 146.601C114.431 131.049 128.074 113.071 139.307 101.021C170.994 66.6636 213.396 44.0663 259.585 36.9199C305.042 29.9907 353.47 37.6796 393.914 59.7343C399.832 62.9619 407.941 67.2507 412.869 71.8732C412.614 75.2203 411.313 80.3318 410.9 84.1682C410.528 87.8534 410.221 91.5454 409.98 95.2421C409.852 97.5337 409.951 99.4761 409.623 101.763C409.479 102.911 409.099 104.585 408.87 105.764C404.382 102.873 399.873 98.2415 395.156 95.4311C390.369 92.579 384.838 90.4957 380.08 87.6996L379.767 87.5124C377.042 86.6906 372.009 83.9924 368.971 82.8613C363.609 80.8635 357.996 78.6106 352.573 76.8369C332.733 70.348 311.936 67.0368 291.051 67.2952C285.902 67.3591 281.214 67.8844 276.172 68.0496L275.723 68.1446C274.087 68.4791 271.775 68.5524 270.008 68.8427C265.713 69.5482 261.355 70.2885 257.096 71.1879C233.201 76.0172 210.619 85.9146 190.875 100.213C186.538 103.289 181.892 107.077 177.729 110.412C175.67 112.061 170.813 117.878 168.793 118.81C163.331 121.331 156.697 123.055 150.819 125.306C149.128 126.494 147.709 128.587 145.837 129.592C142.313 131.483 137.18 132.168 133.566 133.598C125.348 136.85 115.979 141.391 108.916 146.601Z" fill="#042239"/>
<path d="M150.819 125.306C152.169 120.046 173.109 101.424 178.329 97.361C206.965 74.926 241.541 61.3627 277.794 58.3443C286.325 57.5565 296.253 56.9026 304.813 57.976C299.672 58.62 278.844 57.5407 276.085 59.4617C278.102 61.9053 280.612 60.492 279.969 65.5267L280.51 65.8999C279.949 67.6413 277.681 66.5981 276.172 68.0497L275.723 68.1447C274.087 68.4792 271.775 68.5525 270.008 68.8428C265.713 69.5483 261.355 70.2886 257.096 71.188C233.201 76.0173 210.619 85.9147 190.875 100.213C186.538 103.289 181.892 107.077 177.729 110.412C175.67 112.062 170.813 117.878 168.793 118.81C163.331 121.331 156.697 123.055 150.819 125.306Z" fill="url(#paint23_linear_669_28598)"/>
<path d="M304.813 57.976C329.493 58.2921 364.084 68.4728 385.107 81.2954C384.149 81.5735 383.262 80.907 382.128 80.4031C381.48 81.41 377.848 84.2087 376.623 85.3774C377.651 86.1827 379.919 86.9609 380.142 87.4033L379.767 87.5125C377.042 86.6908 372.009 83.9925 368.971 82.8614C363.609 80.8636 357.996 78.6107 352.573 76.837C332.733 70.3481 311.936 67.0369 291.051 67.2953C285.902 67.3592 281.214 67.8845 276.172 68.0497C277.681 66.5981 279.949 67.6413 280.51 65.8999L279.969 65.5267C280.612 60.492 278.102 61.9053 276.085 59.4617C278.844 57.5407 299.672 58.62 304.813 57.976Z" fill="url(#paint24_linear_669_28598)"/>
<path d="M379.767 87.5125L380.142 87.4033C379.919 86.9609 377.651 86.1827 376.623 85.3774C377.848 84.2087 381.48 81.41 382.128 80.4031C383.262 80.907 384.149 81.5735 385.107 81.2954C389.651 83.3925 405.674 94.1913 409.503 98.6858C409.635 98.8408 409.629 101.277 409.623 101.763C409.479 102.911 409.099 104.586 408.87 105.764C404.382 102.873 399.873 98.2416 395.156 95.4312C390.369 92.5791 384.838 90.4958 380.08 87.6997L379.767 87.5125Z" fill="url(#paint25_linear_669_28598)"/>
<path d="M440.897 288.865C441.276 288.51 446.839 283.558 450.02 281.217C462.721 271.878 472.597 267.945 488.297 271.113C506.596 274.805 513.896 302.094 496.81 311.071C493.043 313.057 488.631 313.432 484.579 312.114C481.494 311.086 478.611 309.172 477.36 306.128C473.66 297.123 480.636 292.352 487.664 289.664C476.42 273.213 452.358 286.227 439.872 294.41C438.562 295.265 433.506 299.2 432.31 299.156C432.765 297.735 434.057 296.223 435.02 295.045C436.186 293.575 437.499 292.485 438.723 291.063C439.574 290.212 440 289.787 440.897 288.865Z" fill="url(#paint26_linear_669_28598)"/>
<path d="M350.859 90.0515C360.917 89.1974 372.861 91.2778 381.911 95.7327C393 101.192 411.056 112.989 415.192 124.997C411.316 122.515 407.294 119.081 403.518 116.298C393.776 109.12 385.57 104.944 374.036 101.519C371.171 100.906 368.262 100.521 365.335 100.368C355.617 99.8633 349.175 100.489 341.924 107.068C346.154 109.445 349.022 111.399 350.505 116.483C352.711 123.092 345.858 130.241 339.381 129.924C323.575 129.15 321.662 110.468 330.015 100.447C335.889 93.4007 342.24 91.0326 350.859 90.0515Z" fill="url(#paint27_linear_669_28598)"/>
<path d="M397.21 298.02C400.793 290.853 403.327 281.526 401.443 273.543C400.148 268.054 392.265 263.261 395.792 256.775C398.429 251.924 402.419 249.383 407.596 252.676C419.479 260.235 414.697 280.171 408.434 289.917C406.333 293.171 402.196 298.477 399.123 300.496C398.332 301.6 394.547 304.298 393.278 305.136C394.509 302.338 395.581 300.636 397.21 298.02Z" fill="url(#paint28_linear_669_28598)"/>
<path d="M397.21 298.02C397.802 299.409 396.539 300.009 397.872 300.718C398.411 300.276 398.37 300.165 399.041 300.015L399.123 300.496C398.332 301.6 394.547 304.298 393.278 305.136C394.509 302.338 395.581 300.636 397.21 298.02Z" fill="url(#paint29_linear_669_28598)"/>
<path d="M524.71 118.134C525.355 118.085 526.002 118.076 526.647 118.108C531.466 118.323 534.132 121.959 533.748 126.644C532.948 136.401 521.168 136.405 514.524 140.202C511.723 141.802 509.37 143.982 506.983 146.156C505.031 148.208 503.631 149.676 501.908 151.954C504.835 139.648 510.776 121.539 524.71 118.134Z" fill="url(#paint30_linear_669_28598)"/>
<path d="M318.185 79.2266C322.556 78.6333 330.322 79.1644 334.802 79.7067C331.699 81.444 327.029 81.9143 322.649 84.258C318.281 86.5795 314.256 89.4939 310.687 92.9185C308.525 94.9599 305.751 97.8192 303.448 99.5577L303.123 99.7991C298.298 102.807 290.038 103.512 289.883 96.8744C289.609 85.0795 310.389 79.8339 318.185 79.2266Z" fill="url(#paint31_linear_669_28598)"/>
<path d="M69.7938 418.122C76.538 425.994 88.4513 435.448 96.9772 441.662C101.064 444.639 107.656 448.008 110.92 451.679C114.646 455.874 118.004 461.373 121.546 465.967C126.999 473.039 133.803 479.247 139.181 486.158C143.266 491.408 147.132 497.672 151.139 503.15C157.48 511.816 164.216 518.405 171.935 525.85C171.218 526.849 171.198 526.91 170.16 527.517C163.267 524.238 152.33 516.674 146.105 512.218C119.183 492.943 96.1212 468.762 78.4569 440.736C74.0395 433.729 70.0434 427.591 66.3371 420.035C66.4555 419.868 66.5767 419.701 66.7007 419.537C67.6924 418.245 68.1134 418.359 69.7938 418.122Z" fill="#042239"/>
<path d="M61.0414 407.824C64.0472 411.677 66.5123 414.46 69.7938 418.122C68.1134 418.359 67.6924 418.245 66.7007 419.537C66.5767 419.701 66.4555 419.868 66.3371 420.035C64.0241 415.904 62.1869 412.438 61.0414 407.824Z" fill="#042239"/>
<path d="M171.935 525.85C175.083 528.847 178.555 530.695 181.661 533.903C177.791 531.492 173.949 529.761 170.16 527.517C171.198 526.91 171.218 526.849 171.935 525.85Z" fill="#042239"/>
<path d="M66.5115 176.583C74.724 160.12 92.1231 133.241 105.394 120.893L108.432 121.145L108.178 121.511C103.486 128.35 99.9331 136.61 96.1769 143.966C94.9224 146.422 92.6625 154.867 91.1645 156.359C83.7067 163.787 74.5034 170.564 67.9204 178.949C67.4988 177.634 67.4806 177.593 66.5115 176.583Z" fill="#042239"/>
<path d="M105.394 120.893C108.174 117.99 110.991 114.912 114.084 112.356C112.326 115.757 110.693 118.044 108.432 121.145L105.394 120.893Z" fill="#042239"/>
<path d="M61.8378 186.664C62.2125 185.311 65.6513 178.443 66.5115 176.583C67.4806 177.593 67.4988 177.634 67.9204 178.949C65.8353 181.027 63.5909 184.231 61.8378 186.664Z" fill="#042239"/>
<path d="M181.24 178.699C199.372 184.368 213.681 185.918 232.554 182.9C234.573 182.576 242.733 179.79 243.797 180.817C242.585 184.478 238.461 187.728 236.693 191.743C231.577 203.362 232.209 214.887 232.168 227.324L232.211 265.356C232.173 275.181 232.749 286.387 229.704 295.787C228.928 298.181 224.984 302.203 225.584 304.272L225.2 304.518C216.962 309.709 201.674 312.982 192.173 316.6C170.322 324.923 151.322 339.882 139.137 359.942C132.91 370.193 129.301 380.004 125.909 391.357C126.329 383.781 129.473 372.753 129.577 366.677C129.662 367.462 129.642 368.224 130.075 368.848C132.35 364.603 133.5 359.523 135.662 355.339C142.8 341.526 152.334 329.01 164.505 319.245C169.641 315.123 175.038 311.18 180.243 307.008C190.708 293.11 188.269 273.745 188.423 257.351C188.592 239.197 188.807 220.312 187.964 202.131C187.723 196.909 185.554 191.075 184.867 185.766L184.81 185.312C183.465 183.096 182.189 181.121 181.24 178.699Z" fill="#042239"/>
<path d="M388.664 138.832C393.583 141.546 398.666 145.183 403.456 148.035C421.655 158.871 437.555 171.478 443.423 192.952C448.113 210.11 446.519 229.47 439.356 245.858C432.507 232.653 429.351 230.322 417.961 220.804C402.269 207.693 392.502 191.987 389.1 171.616C388.248 166.498 388.251 162.669 387.633 158.078C387.899 155.307 387.832 147.565 387.914 144.294L388.664 138.832Z" fill="#042239"/>
<path d="M184.81 185.312C199.606 196.458 198.754 214.036 198.497 230.651C198.445 234.013 198.491 237.445 198.5 240.813L198.554 262.398C198.565 275.355 198.911 287.082 190.514 297.838C188.775 300.064 183.06 306.694 180.243 307.008C190.708 293.109 188.269 273.744 188.422 257.351C188.592 239.196 188.807 220.311 187.964 202.131C187.723 196.909 185.554 191.075 184.866 185.765L184.81 185.312Z" fill="url(#paint32_linear_669_28598)"/>
<path d="M403.989 172.425C414.056 177.454 425.426 187.386 429.644 198.047C428.742 199.388 429.064 200.865 429.272 202.5C425.519 197.391 422.88 192.723 418.775 187.554C413.921 181.439 408.993 177.698 403.989 172.425Z" fill="url(#paint33_linear_669_28598)"/>
<path d="M429.272 202.5C429.064 200.865 428.742 199.388 429.644 198.047C431.47 202.425 433.014 206.28 434.253 210.888C432.366 208.092 431.045 205.249 429.272 202.5Z" fill="url(#paint34_linear_669_28598)"/>
<defs>
<linearGradient id="paint0_linear_669_28598" x1="662.128" y1="300.106" x2="2252.13" y2="300.106" gradientUnits="userSpaceOnUse">
<stop stop-color="#987622"/>
<stop offset="0.264423" stop-color="#BC922C"/>
<stop offset="0.466346" stop-color="#E0C67B"/>
<stop offset="0.725962" stop-color="#BC922C"/>
<stop offset="1" stop-color="#987622"/>
</linearGradient>
<linearGradient id="paint1_linear_669_28598" x1="79.149" y1="440.851" x2="523.83" y2="440.851" gradientUnits="userSpaceOnUse">
<stop stop-color="#987622"/>
<stop offset="0.3" stop-color="#BC922C"/>
<stop offset="0.5" stop-color="#E0C67B"/>
<stop offset="0.7" stop-color="#BC922C"/>
<stop offset="1" stop-color="#987622"/>
</linearGradient>
<linearGradient id="paint2_linear_669_28598" x1="79.149" y1="440.851" x2="523.83" y2="440.851" gradientUnits="userSpaceOnUse">
<stop stop-color="#987622"/>
<stop offset="0.3" stop-color="#BC922C"/>
<stop offset="0.5" stop-color="#E0C67B"/>
<stop offset="0.7" stop-color="#BC922C"/>
<stop offset="1" stop-color="#987622"/>
</linearGradient>
<linearGradient id="paint3_linear_669_28598" x1="79.149" y1="440.851" x2="523.83" y2="440.851" gradientUnits="userSpaceOnUse">
<stop stop-color="#987622"/>
<stop offset="0.3" stop-color="#BC922C"/>
<stop offset="0.5" stop-color="#E0C67B"/>
<stop offset="0.7" stop-color="#BC922C"/>
<stop offset="1" stop-color="#987622"/>
</linearGradient>
<linearGradient id="paint4_linear_669_28598" x1="79.149" y1="440.851" x2="523.83" y2="440.851" gradientUnits="userSpaceOnUse">
<stop stop-color="#987622"/>
<stop offset="0.3" stop-color="#BC922C"/>
<stop offset="0.5" stop-color="#E0C67B"/>
<stop offset="0.7" stop-color="#BC922C"/>
<stop offset="1" stop-color="#987622"/>
</linearGradient>
<linearGradient id="paint5_linear_669_28598" x1="79.149" y1="440.851" x2="523.83" y2="440.851" gradientUnits="userSpaceOnUse">
<stop stop-color="#987622"/>
<stop offset="0.3" stop-color="#BC922C"/>
<stop offset="0.5" stop-color="#E0C67B"/>
<stop offset="0.7" stop-color="#BC922C"/>
<stop offset="1" stop-color="#987622"/>
</linearGradient>
<linearGradient id="paint6_linear_669_28598" x1="79.149" y1="440.851" x2="523.83" y2="440.851" gradientUnits="userSpaceOnUse">
<stop stop-color="#987622"/>
<stop offset="0.3" stop-color="#BC922C"/>
<stop offset="0.5" stop-color="#E0C67B"/>
<stop offset="0.7" stop-color="#BC922C"/>
<stop offset="1" stop-color="#987622"/>
</linearGradient>
<linearGradient id="paint7_linear_669_28598" x1="79.149" y1="440.851" x2="523.83" y2="440.851" gradientUnits="userSpaceOnUse">
<stop stop-color="#987622"/>
<stop offset="0.3" stop-color="#BC922C"/>
<stop offset="0.5" stop-color="#E0C67B"/>
<stop offset="0.7" stop-color="#BC922C"/>
<stop offset="1" stop-color="#987622"/>
</linearGradient>
<linearGradient id="paint8_linear_669_28598" x1="79.149" y1="440.851" x2="523.83" y2="440.851" gradientUnits="userSpaceOnUse">
<stop stop-color="#987622"/>
<stop offset="0.3" stop-color="#BC922C"/>
<stop offset="0.5" stop-color="#E0C67B"/>
<stop offset="0.7" stop-color="#BC922C"/>
<stop offset="1" stop-color="#987622"/>
</linearGradient>
<linearGradient id="paint9_linear_669_28598" x1="72.3404" y1="398.298" x2="529.362" y2="398.298" gradientUnits="userSpaceOnUse">
<stop stop-color="#987622"/>
<stop offset="0.3" stop-color="#BC922C"/>
<stop offset="0.5" stop-color="#E0C67B"/>
<stop offset="0.7" stop-color="#BC922C"/>
<stop offset="1" stop-color="#987622"/>
</linearGradient>
<linearGradient id="paint10_linear_669_28598" x1="72.3404" y1="398.298" x2="529.362" y2="398.298" gradientUnits="userSpaceOnUse">
<stop stop-color="#987622"/>
<stop offset="0.3" stop-color="#BC922C"/>
<stop offset="0.5" stop-color="#E0C67B"/>
<stop offset="0.7" stop-color="#BC922C"/>
<stop offset="1" stop-color="#987622"/>
</linearGradient>
<linearGradient id="paint11_linear_669_28598" x1="63.8297" y1="245.107" x2="555.319" y2="245.107" gradientUnits="userSpaceOnUse">
<stop stop-color="#987622"/>
<stop offset="0.3" stop-color="#BC922C"/>
<stop offset="0.5" stop-color="#E0C67B"/>
<stop offset="0.7" stop-color="#BC922C"/>
<stop offset="0.947115" stop-color="#987622"/>
</linearGradient>
<linearGradient id="paint12_linear_669_28598" x1="58.7233" y1="291.915" x2="540" y2="291.915" gradientUnits="userSpaceOnUse">
<stop stop-color="#987622"/>
<stop offset="0.3" stop-color="#BC922C"/>
<stop offset="0.5" stop-color="#E0C67B"/>
<stop offset="0.7" stop-color="#BC922C"/>
<stop offset="1" stop-color="#987622"/>
</linearGradient>
<linearGradient id="paint13_linear_669_28598" x1="58.7233" y1="291.915" x2="540" y2="291.915" gradientUnits="userSpaceOnUse">
<stop stop-color="#987622"/>
<stop offset="0.3" stop-color="#BC922C"/>
<stop offset="0.5" stop-color="#E0C67B"/>
<stop offset="0.7" stop-color="#BC922C"/>
<stop offset="1" stop-color="#987622"/>
</linearGradient>
<linearGradient id="paint14_linear_669_28598" x1="58.7233" y1="291.915" x2="540" y2="291.915" gradientUnits="userSpaceOnUse">
<stop stop-color="#987622"/>
<stop offset="0.3" stop-color="#BC922C"/>
<stop offset="0.5" stop-color="#E0C67B"/>
<stop offset="0.7" stop-color="#BC922C"/>
<stop offset="1" stop-color="#987622"/>
</linearGradient>
<linearGradient id="paint15_linear_669_28598" x1="58.7233" y1="291.915" x2="540" y2="291.915" gradientUnits="userSpaceOnUse">
<stop stop-color="#987622"/>
<stop offset="0.3" stop-color="#BC922C"/>
<stop offset="0.5" stop-color="#E0C67B"/>
<stop offset="0.7" stop-color="#BC922C"/>
<stop offset="1" stop-color="#987622"/>
</linearGradient>
<linearGradient id="paint16_linear_669_28598" x1="59.9999" y1="155.745" x2="549.787" y2="155.745" gradientUnits="userSpaceOnUse">
<stop stop-color="#987622"/>
<stop offset="0.3" stop-color="#BC922C"/>
<stop offset="0.5" stop-color="#E0C67B"/>
<stop offset="0.7" stop-color="#BC922C"/>
<stop offset="1" stop-color="#987622"/>
</linearGradient>
<linearGradient id="paint17_linear_669_28598" x1="59.9999" y1="155.745" x2="549.787" y2="155.745" gradientUnits="userSpaceOnUse">
<stop stop-color="#987622"/>
<stop offset="0.3" stop-color="#BC922C"/>
<stop offset="0.5" stop-color="#E0C67B"/>
<stop offset="0.7" stop-color="#BC922C"/>
<stop offset="1" stop-color="#987622"/>
</linearGradient>
<linearGradient id="paint18_linear_669_28598" x1="59.9999" y1="155.745" x2="549.787" y2="155.745" gradientUnits="userSpaceOnUse">
<stop stop-color="#987622"/>
<stop offset="0.3" stop-color="#BC922C"/>
<stop offset="0.5" stop-color="#E0C67B"/>
<stop offset="0.7" stop-color="#BC922C"/>
<stop offset="1" stop-color="#987622"/>
</linearGradient>
<linearGradient id="paint19_linear_669_28598" x1="59.9999" y1="155.745" x2="549.787" y2="155.745" gradientUnits="userSpaceOnUse">
<stop stop-color="#987622"/>
<stop offset="0.3" stop-color="#BC922C"/>
<stop offset="0.5" stop-color="#E0C67B"/>
<stop offset="0.7" stop-color="#BC922C"/>
<stop offset="1" stop-color="#987622"/>
</linearGradient>
<linearGradient id="paint20_linear_669_28598" x1="59.9999" y1="155.745" x2="549.787" y2="155.745" gradientUnits="userSpaceOnUse">
<stop stop-color="#987622"/>
<stop offset="0.3" stop-color="#BC922C"/>
<stop offset="0.5" stop-color="#E0C67B"/>
<stop offset="0.7" stop-color="#BC922C"/>
<stop offset="1" stop-color="#987622"/>
</linearGradient>
<linearGradient id="paint21_linear_669_28598" x1="59.9999" y1="155.745" x2="549.787" y2="155.745" gradientUnits="userSpaceOnUse">
<stop stop-color="#987622"/>
<stop offset="0.3" stop-color="#BC922C"/>
<stop offset="0.5" stop-color="#E0C67B"/>
<stop offset="0.7" stop-color="#BC922C"/>
<stop offset="1" stop-color="#987622"/>
</linearGradient>
<linearGradient id="paint22_linear_669_28598" x1="59.5744" y1="343.83" x2="545.106" y2="343.83" gradientUnits="userSpaceOnUse">
<stop stop-color="#987622"/>
<stop offset="0.302885" stop-color="#BC922C"/>
<stop offset="0.5" stop-color="#E0C67B"/>
<stop offset="0.7" stop-color="#BC922C"/>
<stop offset="1" stop-color="#987622"/>
</linearGradient>
<linearGradient id="paint23_linear_669_28598" x1="71.0637" y1="91.3596" x2="547.234" y2="91.0637" gradientUnits="userSpaceOnUse">
<stop stop-color="#987622"/>
<stop offset="0.3" stop-color="#BC922C"/>
<stop offset="0.5" stop-color="#E0C67B"/>
<stop offset="0.701923" stop-color="#BC922C"/>
<stop offset="1" stop-color="#987622"/>
</linearGradient>
<linearGradient id="paint24_linear_669_28598" x1="71.0637" y1="91.3596" x2="547.234" y2="91.0637" gradientUnits="userSpaceOnUse">
<stop stop-color="#987622"/>
<stop offset="0.3" stop-color="#BC922C"/>
<stop offset="0.5" stop-color="#E0C67B"/>
<stop offset="0.701923" stop-color="#BC922C"/>
<stop offset="1" stop-color="#987622"/>
</linearGradient>
<linearGradient id="paint25_linear_669_28598" x1="71.0637" y1="91.3596" x2="547.234" y2="91.0637" gradientUnits="userSpaceOnUse">
<stop stop-color="#987622"/>
<stop offset="0.3" stop-color="#BC922C"/>
<stop offset="0.5" stop-color="#E0C67B"/>
<stop offset="0.701923" stop-color="#BC922C"/>
<stop offset="1" stop-color="#987622"/>
</linearGradient>
<linearGradient id="paint26_linear_669_28598" x1="58.7233" y1="291.063" x2="552.34" y2="291.063" gradientUnits="userSpaceOnUse">
<stop stop-color="#987622"/>
<stop offset="0.302885" stop-color="#BC922C"/>
<stop offset="0.5" stop-color="#E0C67B"/>
<stop offset="0.7" stop-color="#BC922C"/>
<stop offset="1" stop-color="#987622"/>
</linearGradient>
<linearGradient id="paint27_linear_669_28598" x1="57.4468" y1="109.787" x2="540" y2="109.787" gradientUnits="userSpaceOnUse">
<stop stop-color="#987622"/>
<stop offset="0.3" stop-color="#BC922C"/>
<stop offset="0.495192" stop-color="#E0C67B"/>
<stop offset="0.697115" stop-color="#BC922C"/>
<stop offset="1" stop-color="#987622"/>
</linearGradient>
<linearGradient id="paint28_linear_669_28598" x1="56.1702" y1="278.298" x2="548.936" y2="278.298" gradientUnits="userSpaceOnUse">
<stop stop-color="#987622"/>
<stop offset="0.230769" stop-color="#BC922C"/>
<stop offset="0.490385" stop-color="#E0C67B"/>
<stop offset="0.745192" stop-color="#BC922C"/>
<stop offset="1" stop-color="#987622"/>
</linearGradient>
<linearGradient id="paint29_linear_669_28598" x1="56.1702" y1="278.298" x2="548.936" y2="278.298" gradientUnits="userSpaceOnUse">
<stop stop-color="#987622"/>
<stop offset="0.230769" stop-color="#BC922C"/>
<stop offset="0.490385" stop-color="#E0C67B"/>
<stop offset="0.745192" stop-color="#BC922C"/>
<stop offset="1" stop-color="#987622"/>
</linearGradient>
<linearGradient id="paint30_linear_669_28598" x1="65.5319" y1="135.319" x2="543.404" y2="135.319" gradientUnits="userSpaceOnUse">
<stop stop-color="#987622"/>
<stop offset="0.3" stop-color="#BC922C"/>
<stop offset="0.504808" stop-color="#E0C67B"/>
<stop offset="0.7" stop-color="#BC922C"/>
<stop offset="1" stop-color="#987622"/>
</linearGradient>
<linearGradient id="paint31_linear_669_28598" x1="56.1702" y1="90.2124" x2="539.149" y2="90.2124" gradientUnits="userSpaceOnUse">
<stop stop-color="#987622"/>
<stop offset="0.3" stop-color="#BC922C"/>
<stop offset="0.5" stop-color="#E0C67B"/>
<stop offset="0.7" stop-color="#BC922C"/>
<stop offset="1" stop-color="#987622"/>
</linearGradient>
<linearGradient id="paint32_linear_669_28598" x1="554.042" y1="245.957" x2="61.2765" y2="245.957" gradientUnits="userSpaceOnUse">
<stop stop-color="#987622"/>
<stop offset="0.3" stop-color="#BC922C"/>
<stop offset="0.5" stop-color="#E0C67B"/>
<stop offset="0.7" stop-color="#BC922C"/>
<stop offset="1" stop-color="#987622"/>
</linearGradient>
<linearGradient id="paint33_linear_669_28598" x1="60.851" y1="211.063" x2="549.787" y2="211.063" gradientUnits="userSpaceOnUse">
<stop stop-color="#987622"/>
<stop offset="0.3" stop-color="#BC922C"/>
<stop offset="0.5" stop-color="#E0C67B"/>
<stop offset="0.7" stop-color="#BC922C"/>
<stop offset="1" stop-color="#987622"/>
</linearGradient>
<linearGradient id="paint34_linear_669_28598" x1="60.851" y1="211.063" x2="549.787" y2="211.063" gradientUnits="userSpaceOnUse">
<stop stop-color="#987622"/>
<stop offset="0.3" stop-color="#BC922C"/>
<stop offset="0.5" stop-color="#E0C67B"/>
<stop offset="0.7" stop-color="#BC922C"/>
<stop offset="1" stop-color="#987622"/>
</linearGradient>
</defs>
</svg>
