<svg width="2223" height="600" viewBox="0 0 2223 600" fill="none" xmlns="http://www.w3.org/2000/svg">
<path d="M683.081 344.912V206.714C683.081 199.398 682.395 193.911 681.023 190.253C679.88 186.367 677.594 183.624 674.165 182.023C670.735 180.194 665.592 178.937 658.733 178.251L648.102 177.222V163.848C652.903 163.848 658.619 163.963 665.249 164.191C671.879 164.42 678.851 164.648 686.167 164.877C693.711 164.877 700.913 164.877 707.771 164.877H712.229C721.145 164.877 729.032 164.877 735.891 164.877C742.978 164.648 749.151 164.42 754.409 164.191C759.896 163.963 764.697 163.848 768.812 163.848C802.19 163.848 827.109 168.878 843.569 178.937C860.258 188.996 868.602 204.085 868.602 224.203C868.602 238.148 864.373 250.036 855.914 259.867C847.684 269.469 835.567 276.899 819.564 282.157C803.79 287.186 784.357 289.701 761.267 289.701H715.658V281.471H761.953C778.871 281.471 791.445 277.013 799.675 268.097C807.905 259.181 812.02 245.693 812.02 227.632C812.02 210.714 808.134 198.141 800.361 189.91C792.588 181.68 780.585 177.565 764.354 177.565H742.064V344.912H683.081ZM858.658 411.439C842.654 411.439 830.652 407.896 822.651 400.808C814.878 393.721 809.391 381.605 806.19 364.459L799.332 329.823C797.731 320.679 795.445 313.592 792.473 308.562C789.73 303.532 785.843 299.989 780.814 297.931C775.784 295.645 769.269 294.502 761.267 294.502H718.402V285.586H758.181C781.271 285.586 799.789 287.415 813.735 291.073C827.909 294.502 838.768 300.446 846.312 308.905C853.857 317.364 859.343 329.023 862.773 343.883L867.574 363.087C869.631 372.003 872.146 378.29 875.118 381.948C878.09 385.377 882.091 387.092 887.12 387.092C889.406 387.092 891.578 386.749 893.636 386.063C895.693 385.148 897.751 383.662 899.808 381.605L905.981 391.892C899.808 398.751 892.95 403.666 885.406 406.638C877.861 409.839 868.945 411.439 858.658 411.439ZM707.771 405.609C700.913 405.609 693.711 405.724 686.167 405.952C678.851 405.952 671.879 406.067 665.249 406.295C658.619 406.295 652.903 406.41 648.102 406.638V393.264L658.733 392.235C665.363 391.321 670.393 390.064 673.822 388.463C677.48 386.863 679.88 384.234 681.023 380.576C682.395 376.69 683.081 371.088 683.081 363.773L682.738 344.912H742.064V363.773C742.064 374.746 743.207 382.062 745.493 385.72C747.779 389.149 753.037 391.435 761.267 392.578L767.097 393.264V406.638C763.211 406.41 758.41 406.295 752.694 406.295C746.979 406.067 741.035 405.952 734.862 405.952C728.69 405.724 722.517 405.609 716.344 405.609H712.915H707.771ZM989.906 229.004V317.821H936.753V269.126C936.753 259.981 935.153 253.58 931.952 249.922C928.98 246.264 923.15 243.978 914.463 243.064L906.576 242.378V229.004C912.063 229.461 917.092 229.804 921.664 230.033C926.465 230.033 931.724 230.033 937.439 230.033C947.727 230.033 957.1 229.69 965.559 229.004C974.246 228.089 982.362 226.832 989.906 225.232V229.004ZM989.906 317.821V354.857C989.906 365.83 992.078 374.06 996.422 379.547C1000.77 385.034 1007.51 387.777 1016.65 387.777C1026.03 387.777 1034.37 384.577 1041.69 378.176C1049.23 371.546 1055.86 361.372 1061.58 347.655L1065.01 352.799C1057.46 373.375 1047.75 388.349 1035.86 397.722C1023.97 406.867 1009.8 411.439 993.336 411.439C974.818 411.439 960.758 406.295 951.156 396.008C941.554 385.491 936.753 370.288 936.753 350.399V317.821H989.906ZM1051.29 406.638V317.821H1104.44V366.516C1104.44 375.661 1105.93 382.062 1108.9 385.72C1111.87 389.378 1117.82 391.664 1126.73 392.578L1134.28 393.264V406.638C1128.79 406.41 1123.76 406.295 1119.19 406.295C1114.62 406.067 1109.47 405.952 1103.76 405.952C1093.47 405.952 1083.98 406.295 1075.29 406.981C1066.84 407.667 1058.83 408.81 1051.29 410.41V406.638ZM1104.44 229.004V317.821H1051.29V269.126C1051.29 259.981 1049.92 253.58 1047.17 249.922C1044.43 246.264 1039.06 243.978 1031.06 243.064L1025.57 242.378V229.004C1031.06 229.461 1035.97 229.804 1040.32 230.033C1044.66 230.033 1049.35 230.033 1054.38 230.033C1063.98 230.033 1072.89 229.69 1081.12 229.004C1089.35 228.089 1097.13 226.832 1104.44 225.232V229.004ZM1208.16 405.609C1198.1 405.609 1188.61 405.724 1179.7 405.952C1171.01 406.181 1161.64 406.41 1151.58 406.638V393.264L1159.81 392.578C1168.27 391.664 1173.98 389.492 1176.96 386.063C1180.16 382.634 1181.76 376.461 1181.76 367.545V317.821H1234.91V367.545C1234.91 376.69 1236.17 383.091 1238.68 386.749C1241.2 390.178 1245.88 392.235 1252.74 392.921L1256.51 393.264V406.638C1247.83 406.41 1239.71 406.181 1232.17 405.952C1224.85 405.724 1216.85 405.609 1208.16 405.609ZM1181.76 317.821V269.126C1181.76 259.981 1180.16 253.694 1176.96 250.265C1173.98 246.607 1168.15 244.207 1159.47 243.064L1151.58 242.378V229.004C1157.07 229.461 1162.1 229.804 1166.67 230.033C1171.47 230.033 1176.73 230.033 1182.44 230.033C1192.73 230.033 1202.1 229.69 1210.56 229.004C1219.25 228.089 1227.36 226.832 1234.91 225.232V229.004V317.821H1181.76ZM1296.29 317.821V281.128C1296.29 269.697 1294.12 261.353 1289.78 256.095C1285.43 250.608 1278.57 247.865 1269.2 247.865C1259.83 247.865 1251.48 251.179 1244.17 257.809C1236.85 264.211 1230.22 274.27 1224.28 287.987L1220.85 282.843C1228.62 262.039 1238.45 247.064 1250.34 237.92C1262.23 228.775 1276.4 224.203 1292.86 224.203C1311.38 224.203 1325.44 229.461 1335.04 239.977C1344.64 250.265 1349.45 265.354 1349.45 285.243V317.821H1296.29ZM1323.04 405.609C1314.58 405.609 1306.58 405.724 1299.04 405.952C1291.49 406.181 1283.38 406.41 1274.69 406.638V393.264L1278.46 392.921C1285.32 392.235 1290.01 390.178 1292.52 386.749C1295.04 383.091 1296.29 376.69 1296.29 367.545V317.821H1349.45V367.545C1349.45 376.69 1350.7 383.091 1353.22 386.749C1355.96 390.178 1360.76 392.235 1367.62 392.921L1371.39 393.264V406.638C1362.48 406.41 1354.36 406.181 1347.05 405.952C1339.73 405.724 1331.73 405.609 1323.04 405.609ZM1411.17 317.821V281.128C1411.17 269.697 1408.77 261.353 1403.97 256.095C1399.4 250.608 1392.31 247.865 1382.71 247.865C1373.34 247.865 1364.88 250.951 1357.33 257.123C1349.79 263.296 1342.93 273.355 1336.76 287.301L1332.64 277.013C1340.42 258.952 1350.47 245.693 1362.82 237.234C1375.39 228.546 1390.25 224.203 1407.4 224.203C1426.15 224.203 1440.32 229.461 1449.92 239.977C1459.52 250.265 1464.33 265.354 1464.33 285.243V317.821H1411.17ZM1437.58 405.609C1429.12 405.609 1421.12 405.724 1413.57 405.952C1406.26 406.181 1398.14 406.41 1389.22 406.638V393.264L1393 392.921C1399.86 392.235 1404.54 390.178 1407.06 386.749C1409.8 383.091 1411.17 376.69 1411.17 367.545V317.821H1464.33V367.545C1464.33 376.461 1465.81 382.634 1468.78 386.063C1471.76 389.492 1477.58 391.664 1486.27 392.578L1494.16 393.264V406.638C1484.1 406.41 1474.73 406.181 1466.04 405.952C1457.35 405.724 1447.86 405.609 1437.58 405.609ZM1601.15 411.439C1583.77 411.439 1568.68 407.781 1555.88 400.466C1543.08 392.921 1533.13 382.176 1526.05 368.231C1519.19 354.285 1515.76 337.711 1515.76 318.507C1515.76 298.16 1519.53 281.014 1527.07 267.068C1534.62 252.894 1545.02 242.263 1558.28 235.176C1571.77 227.861 1587.43 224.203 1605.26 224.203C1621.72 224.203 1635.55 227.175 1646.76 233.119C1658.19 239.063 1666.87 248.207 1672.82 260.553C1678.76 272.898 1681.5 288.787 1681.05 308.219H1554.51L1553.82 295.188H1634.75C1634.98 283.986 1634.07 274.155 1632.01 265.697C1629.95 257.009 1626.75 250.265 1622.41 245.464C1618.06 240.435 1612.35 237.92 1605.26 237.92C1596.35 237.92 1588.69 242.721 1582.29 252.323C1576.11 261.696 1572.46 276.784 1571.31 297.588L1572 298.96C1571.77 301.018 1571.54 303.19 1571.31 305.476C1571.31 307.762 1571.31 310.505 1571.31 313.706C1571.31 336.11 1575.43 353.599 1583.66 366.173C1592.12 378.518 1604.23 384.691 1620.01 384.691C1631.21 384.691 1640.81 381.948 1648.81 376.461C1657.04 370.974 1664.02 362.515 1669.73 351.085L1682.08 357.6C1674.99 375.204 1664.59 388.578 1650.87 397.722C1637.15 406.867 1620.58 411.439 1601.15 411.439ZM1735.3 317.821V269.126C1735.3 259.981 1733.7 253.694 1730.5 250.265C1727.52 246.607 1721.69 244.207 1713.01 243.064L1705.12 242.378V229.004C1710.61 229.461 1715.64 229.804 1720.21 230.033C1725.01 230.033 1730.27 230.033 1735.98 230.033C1746.27 230.033 1755.64 229.69 1764.1 229.004C1772.79 228.089 1780.91 226.832 1788.45 225.232V229.004V317.821H1735.3ZM1761.7 405.609C1751.64 405.609 1742.15 405.724 1733.24 405.952C1724.55 406.181 1715.18 406.41 1705.12 406.638V393.264L1713.35 392.578C1721.81 391.664 1727.52 389.492 1730.5 386.063C1733.7 382.634 1735.3 376.461 1735.3 367.545V317.821H1788.45V367.545C1788.45 376.461 1789.94 382.634 1792.91 386.063C1795.88 389.492 1801.6 391.664 1810.05 392.578L1818.28 393.264V406.638C1808.22 406.41 1798.85 406.181 1790.16 405.952C1781.48 405.724 1771.99 405.609 1761.7 405.609ZM1761.7 196.769C1752.79 196.769 1745.01 194.254 1738.38 189.225C1731.98 183.966 1728.78 176.651 1728.78 167.277C1728.78 158.133 1731.98 151.046 1738.38 146.016C1745.01 140.987 1752.79 138.472 1761.7 138.472C1770.62 138.472 1778.39 140.987 1785.02 146.016C1791.65 151.046 1794.97 158.247 1794.97 167.62C1794.97 176.765 1791.65 183.966 1785.02 189.225C1778.39 194.254 1770.62 196.769 1761.7 196.769ZM1894.17 405.609C1884.11 405.609 1874.62 405.724 1865.71 405.952C1857.02 406.181 1847.65 406.41 1837.59 406.638V393.264L1845.82 392.578C1854.28 391.664 1859.99 389.492 1862.96 386.063C1866.16 382.634 1867.76 376.461 1867.76 367.545V317.821H1920.92V367.545C1920.92 373.489 1921.6 378.176 1922.97 381.605C1924.58 384.805 1927.2 387.206 1930.86 388.806C1934.52 390.406 1939.66 391.664 1946.29 392.578L1956.92 393.264V406.638C1949.61 406.41 1942.52 406.295 1935.66 406.295C1929.03 406.067 1922.29 405.952 1915.43 405.952C1908.8 405.724 1901.71 405.609 1894.17 405.609ZM1867.76 317.821V269.126C1867.76 259.981 1866.16 253.694 1862.96 250.265C1859.99 246.607 1854.16 244.207 1845.47 243.064L1837.59 242.378V229.004C1843.07 229.461 1848.1 229.804 1852.68 230.033C1857.48 230.033 1862.73 230.033 1868.45 230.033C1878.74 230.033 1888.11 229.69 1896.57 229.004C1905.26 228.089 1913.37 226.832 1920.92 225.232V229.004V317.821H1867.76ZM1975.79 295.874C1969.61 295.874 1964.7 294.159 1961.04 290.73C1957.38 287.301 1955.55 282.957 1955.55 277.699C1955.55 274.27 1956.12 271.183 1957.27 268.44C1958.41 265.468 1959.55 262.725 1960.7 260.21C1961.84 257.695 1962.41 255.295 1962.41 253.008C1962.41 247.979 1959.32 245.464 1953.15 245.464C1948.81 245.464 1944.46 246.493 1940.12 248.55C1935.78 250.608 1931.78 253.58 1928.12 257.466C1924.46 261.124 1921.6 265.468 1919.55 270.497L1919.2 255.752C1924.46 245.921 1931.66 238.148 1940.81 232.433C1949.95 226.718 1959.55 223.86 1969.61 223.86C1980.59 223.86 1989.16 227.06 1995.33 233.462C2001.5 239.863 2004.59 248.779 2004.59 260.21C2004.59 270.955 2001.96 279.642 1996.7 286.272C1991.45 292.673 1984.47 295.874 1975.79 295.874ZM2130.56 317.821V273.241C2130.56 261.124 2127.93 252.323 2122.67 246.836C2117.64 241.12 2109.64 238.263 2098.67 238.263C2091.35 238.263 2085.41 239.406 2080.83 241.692C2076.49 243.749 2074.32 246.607 2074.32 250.265C2074.32 252.78 2075.23 255.523 2077.06 258.495C2079.12 261.467 2081.06 264.553 2082.89 267.754C2084.72 270.955 2085.64 274.384 2085.64 278.042C2085.64 283.3 2083.24 287.644 2078.43 291.073C2073.86 294.274 2067.69 295.874 2059.92 295.874C2051.46 295.874 2044.71 293.588 2039.68 289.015C2034.88 284.443 2032.48 278.27 2032.48 270.497C2032.48 261.124 2035.8 253.008 2042.43 246.15C2049.06 239.291 2058.32 233.919 2070.2 230.033C2082.09 226.146 2096.04 224.203 2112.04 224.203C2137.65 224.203 2155.94 229.804 2166.91 241.006C2178.11 251.98 2183.71 270.155 2183.71 295.531V317.821H2130.56ZM2076.03 411.439C2060.49 411.439 2048.14 407.553 2039 399.78C2029.85 392.007 2025.28 381.49 2025.28 368.231C2025.28 357.714 2027.8 349.141 2032.83 342.511C2038.08 335.882 2044.71 330.623 2052.72 326.737C2060.72 322.622 2069.18 319.193 2078.09 316.449C2087.01 313.706 2095.47 311.077 2103.47 308.562C2111.7 306.047 2118.33 302.961 2123.36 299.303C2128.62 295.645 2131.24 290.959 2131.24 285.243L2132.62 302.389C2131.24 306.733 2128.62 310.391 2124.73 313.363C2120.84 316.335 2116.38 319.078 2111.36 321.593C2106.55 324.108 2101.75 326.966 2096.95 330.166C2092.38 333.367 2088.49 337.253 2085.29 341.826C2082.32 346.398 2080.83 352.342 2080.83 359.658C2080.83 367.431 2082.78 373.489 2086.66 377.833C2090.78 382.176 2096.5 384.348 2103.81 384.348C2109.75 384.348 2115.24 382.862 2120.27 379.89C2125.3 376.918 2129.76 372.232 2133.65 365.83L2133.99 380.233C2126.9 390.749 2118.56 398.637 2108.95 403.895C2099.35 408.924 2088.38 411.439 2076.03 411.439ZM2183.71 377.833C2183.71 383.091 2184.51 386.749 2186.11 388.806C2187.71 390.864 2190.23 391.892 2193.66 391.892C2196.63 391.892 2199.49 391.321 2202.23 390.178C2205.2 389.035 2208.06 387.434 2210.8 385.377L2216.29 396.35C2210.35 401.151 2203.37 404.809 2195.37 407.324C2187.6 410.067 2178.91 411.439 2169.31 411.439C2156.05 411.439 2146.22 408.81 2139.82 403.552C2133.65 398.294 2130.56 389.949 2130.56 378.518V317.821H2183.71V377.833Z" fill="#987622"/>
<path d="M167.134 460.292C161.25 448.682 158.052 432.308 158.277 419.388C158.636 398.795 166.63 378.235 181.637 363.865C194.898 351.17 211.651 343.934 230.221 344.511C271.224 345.786 294.574 388.272 314.631 418.36C323.388 431.496 330.349 441.343 341.162 452.833C346.245 457.076 349.919 461.028 355.579 465.214C377.153 481.395 403.978 488.959 430.828 486.434C431.857 486.343 434.112 485.836 434.804 486.085C434.353 486.569 434.373 486.613 433.837 486.976C426.694 493.972 402.319 510.68 392.772 514.292C355.327 533.517 309.05 543.126 267.331 535.216C258.961 533.845 250.43 531.244 242.454 528.443C218.467 519.771 197.393 504.548 181.621 484.503C177.252 478.987 173.425 473.669 170.368 467.297C169.133 466.067 167.545 462.027 167.134 460.292ZM255.252 469.442L216.055 469.659C212.211 469.659 181.548 469.421 180.6 469.908L180.887 471.05C188.778 485.596 212.209 501.132 227.98 505.418C233.268 506.857 238.735 508.281 244.174 509.154C246.449 509.52 249.497 509.663 251.39 510.038C266.727 510.024 279.573 508.512 291.455 497.192C295.31 493.518 297.958 487.609 297.946 482.236C297.952 479.007 297.161 475.826 295.644 472.975C294.785 473.622 295.764 473.848 294.671 474.742C292.41 476.599 288.549 477.791 285.708 477.375C282.488 476.924 279.586 475.193 277.663 472.571C275.432 469.597 274.535 465.832 275.188 462.173C275.886 458.409 278.056 455.077 281.216 452.915C300.012 439.884 316.843 468.024 311.93 485.162C307.526 500.523 297.858 509.45 282.801 515.332C272.85 518.827 256.804 520.289 246.108 519.091C246.283 519.449 246.53 520.008 246.732 520.33C259.419 524.168 272.483 526.62 285.697 527.646C319.122 529.972 352.447 522.516 382.629 508.333C390.038 504.853 398.537 500.801 404.707 495.437C395.898 494.576 388.855 492.522 380.64 489.449C361.737 482.379 344.543 471.466 331.02 456.378C328.562 453.639 325.852 450.809 323.804 447.75C320.104 445.149 297.481 409.957 293.347 403.943C281.725 387.036 269.72 368.801 250.045 359.649C243.753 356.722 238.437 355.91 231.787 354.592C231.502 360.035 231.673 365.549 231.706 371.007L231.756 392.924L231.862 417.079C231.917 425.054 231.784 434.88 233.493 442.579C234.606 447.572 236.978 452.195 240.384 456.006C242.733 458.625 246.064 460.925 249.293 462.273C254.139 464.291 255.59 462.296 255.298 468.554L255.252 469.442ZM173.338 448.887C177.868 458.907 188.336 445.814 188.031 436.796C187.728 427.878 190.077 377.098 187.878 372.519L187.492 372.255C181.885 375.964 175.374 389.321 172.815 395.754C167.035 410.283 166.836 434.452 173.338 448.887Z" fill="url(#paint0_linear_669_28571)"/>
<path d="M331.131 493.445C340.333 492.469 341.936 498.074 337.02 504.791C331.257 512.666 319.775 516.208 310.773 517.717C308.795 518.004 304.743 518.514 302.821 518.367L302.651 518.013C303.357 516.724 311.871 511.184 313.699 509.646C319.239 504.982 324.882 495.917 331.131 493.445Z" fill="url(#paint1_linear_669_28571)"/>
<path d="M323.804 447.75L324.032 447.323C322.421 445.152 313.017 433.711 313.131 431.907C316.166 428.716 316.975 430.685 318.355 426.299L318.917 425.807C319.796 426.469 324.844 434.435 325.948 435.853C330.618 441.867 335.086 447.654 340.585 452.942C340.778 452.912 340.992 452.927 341.162 452.833C346.245 457.076 349.919 461.028 355.579 465.214C377.153 481.395 403.978 488.959 430.828 486.434C431.857 486.343 434.112 485.836 434.804 486.085C434.353 486.569 434.373 486.613 433.837 486.976C426.694 493.972 402.319 510.68 392.772 514.292C355.327 533.517 309.05 543.126 267.331 535.216C258.961 533.845 250.43 531.244 242.454 528.443C218.467 519.771 197.393 504.548 181.621 484.503C177.252 478.987 173.425 473.669 170.368 467.297C172.198 467.599 174.798 471.847 180.887 471.05C188.778 485.596 212.209 501.132 227.98 505.418C233.268 506.857 238.735 508.281 244.174 509.154C246.449 509.52 249.497 509.663 251.39 510.038C266.727 510.024 279.573 508.512 291.455 497.192C295.31 493.518 297.958 487.609 297.946 482.236C297.952 479.007 297.161 475.826 295.644 472.975C294.785 473.622 295.764 473.848 294.671 474.742C292.41 476.599 288.549 477.791 285.708 477.375C282.488 476.924 279.586 475.193 277.663 472.571C275.432 469.597 274.535 465.832 275.188 462.173C275.886 458.409 278.056 455.077 281.216 452.915C300.012 439.884 316.843 468.024 311.93 485.162C307.526 500.523 297.858 509.45 282.801 515.332C272.85 518.827 256.804 520.289 246.108 519.091C246.283 519.449 246.53 520.008 246.732 520.33C259.419 524.168 272.483 526.62 285.697 527.646C319.122 529.972 352.447 522.516 382.629 508.333C390.038 504.853 398.537 500.801 404.707 495.437C395.898 494.576 388.855 492.522 380.64 489.449C361.737 482.379 344.543 471.466 331.02 456.378C328.562 453.639 325.852 450.809 323.804 447.75Z" fill="url(#paint2_linear_669_28571)"/>
<path d="M170.368 467.297C172.198 467.599 174.798 471.847 180.887 471.05C188.778 485.596 212.209 501.132 227.98 505.418C233.268 506.857 238.735 508.281 244.174 509.154C246.449 509.52 249.497 509.663 251.39 510.038L250.997 510.079C244.993 510.665 238.802 508.714 232.973 507.413C231.608 507.109 228.878 506.297 227.692 506.318C226.968 507.639 227.315 508.222 226.858 509.608C226.506 510.674 224.951 512.092 224.987 513.074C225.031 514.281 225.08 514.571 224.627 515.646C223.678 516.32 223.642 516.059 222.436 515.813L221.665 516.246L221.525 516.87C227.648 524.031 248.174 529.659 257.311 532.374C259.563 533.045 265.972 533.951 267.331 535.216C258.961 533.845 250.43 531.244 242.454 528.443C218.467 519.771 197.393 504.548 181.621 484.503C177.252 478.987 173.425 473.669 170.368 467.297Z" fill="url(#paint3_linear_669_28571)"/>
<path d="M392.772 514.292C394.62 511.875 414.029 502.371 415.022 500.596L414.51 499.21C415.919 494.839 416.271 492.367 421.28 493.242C422.335 493.427 422.262 493.752 422.921 494.578C425.262 494.142 430.541 487.808 433.837 486.976C426.694 493.972 402.319 510.68 392.772 514.292Z" fill="url(#paint4_linear_669_28571)"/>
<path d="M246.732 520.33C244.314 519.578 242.892 519.296 240.499 518.309L240.538 518.373L240.968 517.746L241.115 517.767L240.882 518.558L241.417 517.823L246.108 519.091C246.283 519.449 246.53 520.008 246.732 520.33Z" fill="url(#paint5_linear_669_28571)"/>
<path d="M167.134 460.292C170.623 461.986 171.741 462.126 175.626 462.261C177.009 462.252 178.909 462.015 180.326 461.877C178.151 463.445 178.986 465.033 179.747 467.236C179.974 468.079 180.2 469.178 180.6 469.908L180.887 471.05C174.798 471.847 172.198 467.599 170.368 467.297C169.133 466.067 167.545 462.027 167.134 460.292Z" fill="url(#paint6_linear_669_28571)"/>
<path d="M175.626 462.261C177.009 462.252 178.909 462.015 180.326 461.877C178.151 463.445 178.986 465.033 179.747 467.236C175.252 467.362 175.611 466.219 175.626 462.261Z" fill="url(#paint7_linear_669_28571)"/>
<path d="M136.608 451.26C133.376 448.896 130.674 447.985 127.322 446.121C113.009 438.173 98.1683 428.766 85.941 417.879C65.1091 399.15 49.575 375.267 40.9002 348.63C27.3814 307.002 31.9005 259.016 51.7245 220.308C76.2264 171.749 126.588 141.337 179.261 131.757C245.64 119.683 355.216 122.409 379.588 201.115C399.275 264.706 356.221 321.355 294.135 334.289C293.317 334.459 292.788 334.866 292.443 335.581C298.447 337.187 303.434 338.013 309.343 340.236C325.178 346.201 332.974 356.455 342.416 369.768C358.066 391.828 372.835 416.177 394.16 433.365C398.435 436.793 404.156 439.828 408.961 442.483C422.64 451.301 442.547 453.161 458.259 449.804C462.149 448.248 467.142 447.393 472.204 445.272C490.872 437.458 507.41 424.081 519.404 407.827C520.811 405.92 528.697 393.82 528.979 393.636L529.239 394.242C528.437 401.947 527.168 404.241 524.276 411.372C522.776 415.072 522.375 417.595 520.204 421.497C520.011 422.057 519.803 422.611 519.577 423.155C517.09 429.196 507.812 442.778 503.93 448.275C474.229 490.362 433.292 523.245 385.79 543.173C335.678 564.232 275.662 568.16 225.024 546.961C193.094 533.596 164.26 508.6 147.882 477.905C145.31 473.086 142.853 468.141 140.86 463.064C139.39 459.317 138.318 455.271 136.763 451.617L136.608 451.26ZM132.437 426.085C132.689 421.691 132.704 417.126 132.951 412.726C135.853 361.023 173.943 323.403 225.44 319.515C242.364 318.237 265.255 317.613 281.556 311.775L281.928 311.64C283.258 311.42 287.256 309.949 288.706 309.44C300.173 305.379 311.464 298.401 320.186 289.967C350.227 260.92 351.106 208.122 322.037 178.085C305.013 160.492 275.473 150.859 251.477 150.565C245.83 149.751 232.994 149.981 227.087 150.245C189.106 151.945 145.595 162.61 114.773 185.612C84.8789 208.265 65.192 241.851 60.0317 279.002C54.6739 316.219 65.5524 354.188 88.0319 384.1C93.9024 391.799 100.534 398.889 107.825 405.258C112.572 409.456 121.986 416.236 125.126 420.929C126.194 423.281 130.049 432.117 131.187 433.796C131.414 432.375 131.152 431.898 132.344 431.051C132.752 429.53 132.521 427.702 132.437 426.085ZM170.368 467.297C173.425 473.669 177.252 478.987 181.621 484.503C197.393 504.548 218.467 519.771 242.454 528.443C250.43 531.243 258.961 533.845 267.331 535.216C309.05 543.126 355.327 533.517 392.772 514.292C402.319 510.68 426.694 493.972 433.837 486.976C434.373 486.612 434.353 486.569 434.804 486.085C434.112 485.836 431.857 486.343 430.828 486.434C403.978 488.959 377.153 481.395 355.579 465.214C349.919 461.028 346.245 457.075 341.162 452.833C330.349 441.343 323.388 431.496 314.631 418.36C294.574 388.272 271.224 345.785 230.221 344.511C211.651 343.934 194.898 351.17 181.637 363.864C166.63 378.235 158.636 398.795 158.277 419.388C158.052 432.308 161.25 448.682 167.134 460.292C167.545 462.027 169.133 466.067 170.368 467.297Z" fill="#042239"/>
<path d="M292.443 335.581C298.447 337.187 303.434 338.013 309.343 340.236C325.178 346.201 332.974 356.455 342.416 369.768C358.066 391.828 372.835 416.177 394.16 433.365C398.435 436.793 404.156 439.828 408.961 442.482C422.64 451.301 442.547 453.161 458.259 449.804L458.792 450.12C448.236 452.962 438.911 451.925 428.426 450.75C426.762 450.565 422.903 457.591 420.917 457.79L420.911 458.2L421.272 458.253C424.67 458.789 427.831 459.92 431.23 460.412C432.17 460.55 434.276 460.409 434.687 460.84C433.948 460.825 433.192 460.734 432.513 460.925C426.076 460.6 416.496 457.415 410.64 454.881C381.349 442.204 361.128 414.372 343.286 389.057C335.001 377.3 329.358 368.525 319.644 357.533C314.15 351.416 307.831 346.093 300.87 341.722C299.118 340.638 291.651 336.759 290.819 335.877L292.443 335.581Z" fill="url(#paint8_linear_669_28571)"/>
<path d="M458.259 449.804C462.149 448.248 467.142 447.393 472.204 445.272C490.872 437.458 507.41 424.081 519.404 407.827C520.811 405.92 528.697 393.82 528.979 393.636L529.239 394.242C528.437 401.947 527.168 404.241 524.276 411.372C522.776 415.072 522.375 417.595 520.204 421.497C515.315 426.501 510.536 432.053 505.327 436.708C488.004 452.429 465.542 461.291 442.151 461.631C440.221 461.651 434.186 461.525 432.513 460.925C433.192 460.734 433.948 460.825 434.687 460.84C434.276 460.409 432.17 460.55 431.23 460.412C427.831 459.92 424.67 458.789 421.272 458.253L420.911 458.2L420.917 457.79C422.903 457.591 426.762 450.565 428.426 450.75C438.911 451.925 448.236 452.962 458.792 450.12L458.259 449.804Z" fill="url(#paint9_linear_669_28571)"/>
<path d="M289.617 201.536C291.449 203.063 295.242 213.587 296.341 216.481C303.905 236.412 304.919 249.826 296.057 269.402L296.552 269.287C301.799 268.115 308.824 264.234 314.203 262.182L314.558 262.453C314.719 263.507 314.561 264.379 314.238 265.414C310.354 277.838 297.683 279.537 287.048 282.984C281.698 284.717 277.877 286.452 273.157 289.168C275.32 285.054 278.17 282.165 280.591 278.385C287.985 266.839 292.178 255.057 291.867 241.269C291.347 233.109 289.575 221.715 285.021 214.698C281.853 216.948 278.438 218.336 275.228 220.438C262.368 228.86 252.407 239.233 252.166 255.375C252.071 261.685 252.265 265.616 249.316 271.241C249.171 271.019 248.905 270.615 248.798 270.38C244.129 260.186 242.629 248.702 246.181 238.037C252.686 218.503 273.07 210.202 289.617 201.536Z" fill="url(#paint10_linear_669_28571)"/>
<path d="M125.126 420.929C121.986 416.236 112.572 409.456 107.825 405.258C100.534 398.889 93.9024 391.799 88.0319 384.1C65.5524 354.188 54.6739 316.219 60.0317 279.002C65.192 241.851 84.879 208.265 114.773 185.612C145.595 162.61 189.106 151.945 227.087 150.245C232.994 149.981 245.83 149.751 251.477 150.565C275.473 150.859 305.013 160.492 322.037 178.085C351.105 208.122 350.227 260.92 320.186 289.967C311.464 298.401 300.173 305.379 288.706 309.44C287.256 309.949 283.258 311.42 281.928 311.64L281.556 311.775C265.255 317.613 242.364 318.237 225.44 319.515C173.943 323.403 135.853 361.023 132.951 412.726C132.704 417.126 132.689 421.691 132.437 426.085C132.521 427.702 132.752 429.53 132.344 431.051C131.152 431.898 131.414 432.375 131.187 433.796C130.049 432.117 126.194 423.281 125.126 420.929ZM152.712 230.414C159.305 230.673 162.41 232.501 166.965 237.437C172.474 243.459 175.405 251.4 175.129 259.557C174.745 268.771 170.702 277.452 163.896 283.676C156.27 290.681 145.812 293.868 135.573 293.385C122.974 292.789 111.123 287.229 102.61 277.921C93.7172 268 88.5668 256.709 88.5425 243.288C88.5337 238.502 88.9146 233.863 88.4048 229.109C80.8717 240.474 77.4844 249.911 73.5419 262.864C59.7797 308.074 75.2294 361.307 109.315 393.613C112.677 396.797 117.588 402.138 121.427 404.716C122.065 405.141 122.72 405.542 123.39 405.914C124.681 387.117 124.093 365.798 113.906 349.421C112.1 346.573 110.187 343.793 108.171 341.089C102.532 333.498 88.2434 315.911 101.849 308.523C106.902 308.318 110.596 309.592 114.304 313.143C125.651 324.009 129.05 340.204 129.501 355.33C129.6 358.644 129.235 363.674 129.577 366.677C129.662 367.462 129.642 368.224 130.075 368.848C132.35 364.603 133.5 359.523 135.662 355.339C142.8 341.526 152.334 329.01 164.506 319.245C169.641 315.123 175.038 311.18 180.243 307.008C190.708 293.11 188.269 273.745 188.423 257.351C188.593 239.197 188.807 220.312 187.964 202.131C187.723 196.909 185.554 191.075 184.867 185.766L184.81 185.312C183.465 183.095 182.189 181.121 181.24 178.699C199.372 184.368 213.681 185.918 232.554 182.899C234.573 182.576 242.733 179.79 243.797 180.817C242.585 184.478 238.461 187.728 236.693 191.743C231.577 203.362 232.209 214.887 232.168 227.324L232.211 265.355C232.173 275.18 232.749 286.387 229.704 295.787C228.928 298.181 224.985 302.203 225.584 304.272C230.545 302.376 239.786 297.126 244.225 294.179C251.972 289.033 259.516 280.721 264.611 272.993C267.163 269.121 269.522 263.408 271.378 259.057C273.498 252.753 273.909 246.884 275.533 242.104C276.87 246.848 278.093 258.719 276.605 262.982C274.461 278.752 264.4 291.699 251.971 301.04C249.04 303.243 245.124 305.57 242.532 307.74C251.972 307.506 261.358 306.243 270.525 303.976C273.302 303.595 276.275 302.634 278.964 301.825C311.142 292.161 331.846 269.643 332.801 235.095C334.046 190.058 301.225 165.98 259.507 161.341C250.392 160.328 242.315 160.236 233.226 159.998C227.726 160.345 222.002 160.243 216.575 160.783C189.113 163.531 159.058 169.826 140.263 191.834C131.523 202.07 125.256 213.273 126.213 227.107C126.865 236.541 132.519 246.716 143.331 245.95C146.266 245.743 148.802 244.612 150.718 242.336C153.797 238.665 153.262 235.74 152.819 231.432L152.712 230.414Z" fill="url(#paint11_linear_669_28571)"/>
<path d="M275.533 242.104C276.87 246.848 278.093 258.719 276.605 262.982L276.156 262.957C276.035 261.631 275.414 260.893 274.693 259.761C273.369 260.17 272.377 260.109 271.378 259.057C273.498 252.753 273.909 246.884 275.533 242.104Z" fill="url(#paint12_linear_669_28571)"/>
<path d="M251.477 150.565C275.473 150.859 305.013 160.492 322.037 178.085C351.105 208.122 350.227 260.92 320.186 289.967C311.464 298.401 300.173 305.379 288.706 309.44C287.256 309.949 283.258 311.42 281.928 311.64C278.709 311.411 278.785 312.457 276.269 312.61C275.962 312.337 275.866 312.252 275.704 311.868C274.584 309.232 272.239 307.445 270.582 305.206C270.194 304.682 270.347 304.828 270.525 303.976C273.302 303.595 276.275 302.634 278.964 301.825C311.142 292.161 331.846 269.643 332.801 235.095C334.046 190.058 301.225 165.98 259.507 161.341C250.392 160.328 242.315 160.236 233.226 159.998C231.91 159.769 229.782 159.823 228.388 159.808C231.117 158.949 233.935 160.516 238.229 158.226C238.729 157.428 240.153 156.065 240.439 155.511C243.67 149.247 245.227 151.03 251.477 150.565Z" fill="url(#paint13_linear_669_28571)"/>
<path d="M125.126 420.929C127.195 421.254 130.733 424.377 131.143 426.349L130.859 426.841C129.961 426.381 130.267 425.936 129.902 425.115C129.305 423.774 127.515 422.47 126.398 421.529C126.167 423.281 128.477 427.635 130.145 428.59C131.305 428.546 130.755 428.687 131.821 428.039C132.243 427.102 132.146 426.864 132.437 426.085C132.521 427.702 132.752 429.53 132.344 431.051C131.152 431.898 131.414 432.375 131.187 433.796C130.049 432.117 126.194 423.281 125.126 420.929Z" fill="url(#paint14_linear_669_28571)"/>
<path d="M142.733 179.569L142.913 179.62L143.008 179.879C133.067 186.464 125.985 193.854 120.687 204.803C112.646 221.422 113.493 245.182 132.251 253.984C139.609 257.438 150.241 257.201 155.984 250.93C157.959 248.773 159.107 246.282 160.266 243.609C168.265 255.43 166.535 269.517 154.885 278.093C153.87 278.731 152.948 279.284 151.875 279.819C143.724 283.823 134.312 284.407 125.73 281.44C94.5591 270.926 91.2817 231.383 107.94 207.307C117.438 193.58 128.012 186.736 142.733 179.569Z" fill="#042239"/>
<path d="M198.371 363.938C204.141 357.788 223.513 352.623 231.787 354.592C231.502 360.035 231.673 365.549 231.706 371.007L231.756 392.924L231.862 417.079C231.917 425.054 231.784 434.88 233.493 442.579C234.606 447.571 236.978 452.194 240.384 456.006C242.733 458.625 246.064 460.925 249.293 462.272C254.139 464.291 255.59 462.296 255.298 468.554L255.252 469.441L216.055 469.658C212.211 469.658 181.548 469.421 180.6 469.907C180.2 469.178 179.974 468.079 179.747 467.235C178.986 465.032 178.151 463.444 180.326 461.877C200.973 456.879 198.401 428.977 198.402 412.708L198.385 381.976C198.365 376.043 198.193 369.841 198.371 363.938Z" fill="#042239"/>
<path d="M437.549 161.52C434.649 152.255 428.895 143.008 425.842 133.631C417.334 107.507 419.898 76.7505 432.982 52.539C435.905 47.1296 444.463 32.2462 449.405 29.1475C451.922 28.8708 460.143 40.4098 461.933 42.6709C477.425 62.2556 492.715 83.8283 495.771 109.296C497.871 126.599 495.117 143.707 487.509 159.325C482.892 168.795 480.144 172.355 478.998 183.042L479.341 182.813C481.673 181.225 485.405 177.857 487.62 175.84C494.156 169.883 505.301 163.385 513.932 160.992C522.595 157.937 540.882 153.423 549.844 153.461C551.909 179.746 544.822 207.944 527.877 228.201C512.643 246.415 489.891 253.03 467.804 258.011C464.83 258.681 460.535 260.801 457.652 262.126C455.171 265.395 452.543 270.84 449.994 274.584C447.753 277.875 441.841 284.104 440.438 287.011C439.594 288.194 438.902 289.274 438.135 290.496C436.594 291.622 434.408 293.124 433.075 294.384C432.724 294.92 432.363 295.444 431.988 295.963C430.544 297.94 425.792 302.291 423.902 304.02C406.36 319.934 384.721 330.636 361.424 334.922C353.449 336.366 345.475 337.093 337.392 337.412C334.532 337.526 331.696 337.881 328.866 338.3C335.725 331.043 348.583 328.819 357.897 326.467C376.348 321.812 393.448 313.544 407.748 300.87C413.294 295.954 421.037 289.292 424.928 282.885C429.879 272.359 430.758 265.78 429.337 254.073C427.661 240.228 420.618 235.187 410.555 226.937C405.932 223.149 398.672 215.49 395.271 210.476L395.112 210.238C388.957 202.849 384.885 192.535 382.119 183.327C380.256 178.72 378.8 167.576 378.815 162.686C377.531 155.634 378.697 144.787 379.506 137.718C380.13 133.826 380.862 128.211 382.207 124.626C386.291 126.325 391.503 129.664 395.455 131.914C411.217 140.882 424.064 149.286 437.549 161.52Z" fill="#042239"/>
<path d="M437.549 161.52C434.648 152.255 428.895 143.008 425.842 133.631C417.334 107.507 419.898 76.7505 432.981 52.539C435.905 47.1296 444.463 32.2462 449.405 29.1475C451.922 28.8708 460.143 40.4098 461.933 42.6709C477.425 62.2556 492.715 83.8283 495.771 109.296C497.871 126.599 495.117 143.707 487.509 159.325C482.892 168.795 480.144 172.355 478.998 183.042L479.341 182.813C481.673 181.225 485.405 177.857 487.62 175.84C494.156 169.883 505.301 163.385 513.932 160.992C514.137 161.086 514.342 161.181 514.547 161.275C517.166 160.417 533.338 155.494 534.724 156.522C534.501 157.863 534.167 159.925 533.9 161.311C533.88 161.425 534.797 162.784 534.955 163.004C535.087 163.189 535.222 163.374 535.356 163.558C534.618 165.41 529.863 166.153 528.035 166.494C523.884 167.269 520.447 168.461 516.489 169.789L517.011 170.118C493.6 179.06 484.198 189.466 470.836 210.157C471.258 206.882 471.316 201.161 471.322 197.823C471.504 181.568 469.298 165.375 464.772 149.762C460.573 135.278 455.64 122.003 453.65 106.821C453.246 103.723 452.481 99.2704 452.637 96.2206C453.703 92.0479 451.737 87.2265 453.407 83.5005C456.299 100.818 460.321 114.173 466.67 130.514C469.904 138.837 474.829 151.324 476.42 160.012C478.148 156.237 481.245 150.07 482.376 146.334C487.605 129.064 488.716 110.753 482.265 93.6826C475.327 75.3185 462.639 58.0031 450.229 43.1077C434.98 62.7308 427.485 88.4625 430.559 113.222C432.75 132.358 442.825 149.161 449.511 166.84C455.505 182.69 458.47 202.358 454.916 219.195C450.445 240.361 440.93 262.404 427.972 279.816C427.245 280.792 425.988 282.428 424.928 282.885C429.879 272.359 430.758 265.779 429.337 254.073C427.661 240.228 420.618 235.187 410.555 226.937C405.932 223.149 398.672 215.49 395.271 210.476L395.112 210.238C388.957 202.849 384.885 192.535 382.119 183.327C380.256 178.72 378.8 167.576 378.814 162.686C377.531 155.634 378.697 144.787 379.506 137.718C380.13 133.826 380.862 128.211 382.207 124.626C386.291 126.325 391.503 129.664 395.455 131.914C411.217 140.882 424.064 149.286 437.549 161.52Z" fill="url(#paint15_linear_669_28571)"/>
<path d="M379.506 137.718C380.332 139.031 379.966 143.973 382.509 145.081C384.1 145.772 384.044 144.767 385.96 144.802C387.387 144.073 387.437 143.452 387.689 141.986L387.914 144.294C387.832 147.565 387.899 155.307 387.633 158.078C387.571 159.021 387.58 160.949 387.091 161.626C386.147 159.912 386.42 157.77 385.494 156.829C383.997 156.452 382.412 156.647 381.05 157.377C379.283 158.305 380.435 159.846 379.415 159.838C379.049 160.937 379.096 161.655 378.814 162.686C377.531 155.634 378.697 144.787 379.506 137.718Z" fill="url(#paint16_linear_669_28571)"/>
<path d="M382.119 183.327L382.688 182.907C383.482 183.26 383.859 184.056 384.076 184.864C386.464 193.743 390.398 201.357 395.646 208.875C395.722 208.982 395.262 210.032 395.112 210.238C388.957 202.849 384.885 192.535 382.119 183.327Z" fill="url(#paint17_linear_669_28571)"/>
<path d="M494.71 127.521C495.466 128.44 495.354 129.502 495.185 130.594L494.701 130.782C494.317 130.027 494.511 128.37 494.71 127.521Z" fill="url(#paint18_linear_669_28571)"/>
<path d="M513.932 160.992C522.595 157.937 540.882 153.423 549.844 153.461C551.909 179.746 544.822 207.944 527.877 228.201C512.643 246.415 489.891 253.03 467.804 258.011C464.83 258.681 460.535 260.801 457.652 262.126C457.717 261.037 466.318 242.433 467.678 239.828C479.218 217.681 496.743 201.356 519.501 191.142C513.817 196.286 508.919 200.252 503.399 205.85C491.347 218.075 483.551 231.142 474.75 245.715C486.926 244.22 503.695 236.937 512.971 228.85C533.505 210.947 538.846 189.632 541.148 164.214C532.289 165.962 525.551 167.432 517.011 170.118L516.489 169.789C520.447 168.461 523.884 167.269 528.035 166.494C529.863 166.153 534.618 165.41 535.356 163.558C535.222 163.374 535.087 163.189 534.955 163.004C534.797 162.784 533.88 161.425 533.9 161.311C534.167 159.925 534.501 157.863 534.724 156.522C533.338 155.494 517.166 160.417 514.547 161.275C514.342 161.181 514.137 161.086 513.932 160.992Z" fill="url(#paint19_linear_669_28571)"/>
<path d="M452.637 96.2206C452.206 93.4081 452.039 80.6613 452.599 77.9197C453.141 79.6371 453.231 81.6794 453.407 83.5005C451.737 87.2265 453.703 92.0479 452.637 96.2206Z" fill="url(#paint20_linear_669_28571)"/>
<path d="M542.326 229.073C545.294 236.25 546.642 246.25 548.274 253.901C556.667 293.285 553.529 335.317 538.365 372.683C536.47 377.353 529.644 390.372 529.239 394.242L528.979 393.636C528.697 393.82 520.811 405.92 519.404 407.827C507.41 424.081 490.872 437.458 472.204 445.272C467.142 447.393 462.15 448.248 458.259 449.804C442.547 453.161 422.64 451.301 408.961 442.483C412.48 443.675 415.333 444.63 419.08 444.73C431.112 445.055 439.269 445.474 448.594 437.033C449.953 434.775 452.221 432.39 453.779 430.061C464.693 413.736 466.008 384.176 447.68 372.407C440.751 367.96 436.225 366.287 427.872 367.172C417.463 368.274 410.382 375.425 409.617 385.901C408.993 394.169 413.836 399.199 418.805 405.059C411.038 405.668 404.438 405.372 397.327 401.862C389.309 397.893 383.186 390.914 380.291 382.45C376.647 371.675 378.633 358.444 383.593 348.469C395.066 325.395 421.532 314.388 446.279 320.101C451.761 321.366 456.812 322.729 461.865 325.292C477.615 333.258 489.706 346.966 495.645 363.589C497.47 368.775 497.798 372.961 499.333 377.59L499.474 378.012C502.368 374.233 505.526 366.662 507.375 362.107C519.41 332.429 521.476 299.599 517.069 268.114C516.566 264.5 515.332 260.716 515.159 257.106C515.865 254.961 520.635 251.702 522.548 250.281C524.306 248.054 529.462 243.831 531.759 241.565C536.01 237.365 538.814 233.851 542.326 229.073Z" fill="#042239"/>
<path d="M522.548 250.28C525.457 258.37 527.174 269.993 528.003 278.558C531.147 311.007 526.321 344.466 512.265 374.007C506.13 386.897 495.223 404.027 484.526 413.598C486.035 409.034 487.843 403.585 488.555 398.856C490.609 385.198 489.056 371.036 482.813 358.664C475.981 345.375 464.089 335.393 449.816 330.969C426.911 323.633 397.591 333.228 389.631 357.852C384.914 372.445 389.247 384.562 401.227 393.943C396.035 371.44 413.397 352.819 438.943 357.884C475.313 365.094 483.024 419.815 448.91 437.009C448.805 437.018 448.699 437.027 448.594 437.033C449.953 434.774 452.221 432.389 453.779 430.06C464.693 413.736 466.008 384.175 447.68 372.407C440.751 367.96 436.225 366.287 427.872 367.172C417.463 368.273 410.382 375.424 409.617 385.901C408.993 394.169 413.836 399.199 418.805 405.058C411.038 405.668 404.438 405.372 397.327 401.862C389.309 397.892 383.186 390.914 380.291 382.45C376.647 371.675 378.633 358.444 383.593 348.468C395.066 325.394 421.532 314.387 446.279 320.1C451.761 321.366 456.812 322.728 461.865 325.292C477.615 333.258 489.706 346.966 495.645 363.589C497.47 368.774 497.798 372.961 499.333 377.59L499.474 378.011C502.368 374.232 505.526 366.662 507.375 362.106C519.41 332.428 521.476 299.598 517.069 268.114C516.566 264.499 515.332 260.715 515.159 257.105C515.865 254.96 520.635 251.702 522.548 250.28Z" fill="url(#paint21_linear_669_28571)"/>
<path d="M108.917 146.601C114.431 131.05 128.074 113.072 139.307 101.021C170.995 66.6641 213.396 44.0668 259.585 36.9204C305.042 29.9911 353.47 37.6801 393.914 59.7348C399.832 62.9624 407.941 67.2512 412.869 71.8737C412.614 75.2208 411.314 80.3323 410.9 84.1687C410.528 87.8539 410.221 91.5459 409.981 95.2426C409.852 97.5342 409.951 99.4766 409.623 101.763C409.48 102.912 409.099 104.586 408.87 105.765C404.382 102.873 399.873 98.242 395.156 95.4316C390.369 92.5795 384.838 90.4962 380.08 87.7001L379.767 87.5129C377.042 86.6911 372.009 83.9929 368.971 82.8618C363.609 80.864 357.996 78.6111 352.573 76.8374C332.733 70.3485 311.936 67.0373 291.051 67.2957C285.902 67.3596 281.214 67.8849 276.172 68.0501L275.723 68.145C274.088 68.4796 271.775 68.5529 270.008 68.8432C265.713 69.5487 261.355 70.289 257.096 71.1884C233.201 76.0177 210.619 85.9151 190.875 100.213C186.538 103.29 181.892 107.078 177.73 110.412C175.67 112.062 170.813 117.879 168.793 118.811C163.331 121.331 156.697 123.056 150.819 125.306C149.128 126.494 147.709 128.588 145.837 129.592C142.313 131.483 137.18 132.169 133.566 133.599C125.348 136.851 115.979 141.392 108.917 146.601Z" fill="#042239"/>
<path d="M150.819 125.306C152.169 120.046 173.109 101.424 178.329 97.361C206.965 74.926 241.541 61.3627 277.794 58.3443C286.325 57.5565 296.253 56.9026 304.814 57.976C299.672 58.62 278.844 57.5407 276.085 59.4617C278.102 61.9053 280.612 60.492 279.969 65.5267L280.51 65.8999C279.949 67.6413 277.681 66.5981 276.172 68.0497L275.723 68.1447C274.088 68.4792 271.775 68.5525 270.008 68.8428C265.713 69.5483 261.355 70.2886 257.096 71.188C233.201 76.0173 210.619 85.9147 190.875 100.213C186.538 103.289 181.892 107.077 177.73 110.412C175.67 112.062 170.813 117.878 168.793 118.81C163.331 121.331 156.697 123.055 150.819 125.306Z" fill="url(#paint22_linear_669_28571)"/>
<path d="M304.814 57.976C329.493 58.2921 364.084 68.4728 385.107 81.2954C384.149 81.5735 383.262 80.907 382.128 80.4031C381.481 81.41 377.848 84.2087 376.623 85.3774C377.651 86.1827 379.919 86.9609 380.142 87.4033L379.767 87.5125C377.042 86.6908 372.009 83.9925 368.971 82.8614C363.609 80.8636 357.996 78.6107 352.573 76.837C332.733 70.3481 311.936 67.0369 291.051 67.2953C285.902 67.3592 281.214 67.8845 276.172 68.0497C277.681 66.5981 279.949 67.6413 280.51 65.8999L279.969 65.5267C280.612 60.492 278.102 61.9053 276.085 59.4617C278.844 57.5407 299.672 58.62 304.814 57.976Z" fill="url(#paint23_linear_669_28571)"/>
<path d="M379.767 87.5125L380.142 87.4033C379.919 86.9609 377.651 86.1827 376.623 85.3774C377.848 84.2087 381.481 81.41 382.128 80.4031C383.262 80.907 384.149 81.5735 385.107 81.2954C389.651 83.3925 405.674 94.1913 409.503 98.6858C409.635 98.8408 409.629 101.277 409.623 101.763C409.48 102.911 409.099 104.586 408.87 105.764C404.382 102.873 399.873 98.2416 395.156 95.4312C390.369 92.5791 384.838 90.4958 380.08 87.6997L379.767 87.5125Z" fill="url(#paint24_linear_669_28571)"/>
<path d="M440.897 288.866C441.277 288.511 446.839 283.559 450.02 281.218C462.721 271.879 472.597 267.945 488.297 271.113C506.596 274.806 513.896 302.095 496.811 311.071C493.043 313.058 488.631 313.433 484.579 312.114C481.494 311.086 478.611 309.173 477.36 306.129C473.66 297.123 480.636 292.353 487.664 289.664C476.42 273.213 452.358 286.228 439.872 294.41C438.563 295.266 433.506 299.2 432.311 299.156C432.765 297.735 434.057 296.224 435.021 295.046C436.187 293.575 437.499 292.486 438.723 291.064C439.574 290.213 440 289.787 440.897 288.866Z" fill="url(#paint25_linear_669_28571)"/>
<path d="M350.859 90.0515C360.917 89.1974 372.861 91.2778 381.911 95.7327C393 101.192 411.056 112.989 415.192 124.997C411.316 122.515 407.294 119.081 403.518 116.298C393.776 109.12 385.57 104.944 374.036 101.519C371.171 100.906 368.262 100.521 365.335 100.368C355.617 99.8633 349.175 100.489 341.924 107.068C346.154 109.445 349.022 111.399 350.505 116.483C352.711 123.092 345.858 130.241 339.381 129.924C323.575 129.15 321.662 110.468 330.015 100.447C335.889 93.4007 342.24 91.0326 350.859 90.0515Z" fill="url(#paint26_linear_669_28571)"/>
<path d="M397.21 298.02C400.793 290.853 403.327 281.525 401.443 273.542C400.148 268.054 392.265 263.26 395.792 256.775C398.429 251.923 402.419 249.383 407.596 252.675C419.479 260.235 414.697 280.17 408.434 289.916C406.333 293.171 402.196 298.477 399.123 300.495C398.332 301.6 394.547 304.298 393.278 305.136C394.509 302.338 395.581 300.636 397.21 298.02Z" fill="url(#paint27_linear_669_28571)"/>
<path d="M397.21 298.02C397.802 299.408 396.539 300.009 397.872 300.718C398.411 300.275 398.37 300.164 399.041 300.015L399.123 300.495C398.332 301.6 394.547 304.298 393.278 305.136C394.509 302.338 395.581 300.636 397.21 298.02Z" fill="url(#paint28_linear_669_28571)"/>
<path d="M524.71 118.134C525.355 118.085 526.002 118.076 526.647 118.108C531.466 118.323 534.132 121.959 533.748 126.644C532.948 136.401 521.168 136.405 514.524 140.202C511.723 141.802 509.37 143.982 506.983 146.156C505.031 148.208 503.631 149.676 501.908 151.954C504.835 139.648 510.776 121.539 524.71 118.134Z" fill="url(#paint29_linear_669_28571)"/>
<path d="M318.185 79.2271C322.556 78.6338 330.322 79.1649 334.802 79.7072C331.699 81.4445 327.029 81.9147 322.649 84.2585C318.281 86.58 314.256 89.4944 310.687 92.9189C308.525 94.9603 305.751 97.8197 303.448 99.5582L303.123 99.7996C298.298 102.807 290.038 103.513 289.883 96.8749C289.609 85.08 310.389 79.8344 318.185 79.2271Z" fill="url(#paint30_linear_669_28571)"/>
<path d="M69.794 418.122C76.5381 425.994 88.4514 435.448 96.9773 441.662C101.064 444.639 107.656 448.008 110.92 451.679C114.647 455.874 118.004 461.373 121.546 465.967C126.999 473.039 133.803 479.247 139.181 486.158C143.266 491.408 147.132 497.672 151.139 503.15C157.48 511.816 164.216 518.405 171.935 525.85C171.218 526.849 171.198 526.91 170.16 527.517C163.267 524.238 152.331 516.674 146.105 512.218C119.183 492.943 96.1213 468.762 78.457 440.736C74.0397 433.729 70.0436 427.591 66.3372 420.035C66.4556 419.868 66.5769 419.701 66.7008 419.537C67.6925 418.245 68.1135 418.359 69.794 418.122Z" fill="#042239"/>
<path d="M61.0415 407.824C64.0474 411.677 66.5124 414.46 69.794 418.122C68.1135 418.359 67.6925 418.245 66.7008 419.537C66.5769 419.701 66.4556 419.868 66.3372 420.035C64.0242 415.904 62.187 412.438 61.0415 407.824Z" fill="#042239"/>
<path d="M171.935 525.85C175.083 528.847 178.555 530.695 181.661 533.903C177.791 531.492 173.949 529.761 170.16 527.517C171.198 526.91 171.218 526.849 171.935 525.85Z" fill="#042239"/>
<path d="M66.5115 176.583C74.724 160.12 92.1231 133.241 105.394 120.893L108.432 121.145L108.178 121.511C103.486 128.35 99.9331 136.61 96.1769 143.966C94.9224 146.422 92.6625 154.867 91.1645 156.359C83.7067 163.787 74.5034 170.564 67.9204 178.949C67.4988 177.634 67.4806 177.593 66.5115 176.583Z" fill="#042239"/>
<path d="M105.394 120.893C108.174 117.99 110.991 114.912 114.084 112.356C112.326 115.757 110.693 118.044 108.432 121.145L105.394 120.893Z" fill="#042239"/>
<path d="M61.8378 186.664C62.2125 185.311 65.6513 178.443 66.5115 176.583C67.4806 177.593 67.4988 177.634 67.9204 178.949C65.8353 181.027 63.5909 184.231 61.8378 186.664Z" fill="#042239"/>
<path d="M181.24 178.699C199.372 184.367 213.681 185.918 232.554 182.899C234.573 182.576 242.733 179.79 243.797 180.816C242.585 184.478 238.461 187.727 236.693 191.743C231.577 203.361 232.209 214.887 232.168 227.324L232.211 265.355C232.173 275.18 232.749 286.386 229.704 295.787C228.929 298.18 224.985 302.203 225.584 304.271L225.2 304.517C216.962 309.709 201.674 312.981 192.173 316.599C170.322 324.923 151.322 339.882 139.137 359.941C132.91 370.192 129.301 380.004 125.909 391.356C126.329 383.78 129.473 372.753 129.578 366.677C129.662 367.462 129.642 368.223 130.075 368.847C132.35 364.602 133.5 359.522 135.662 355.339C142.8 341.525 152.334 329.01 164.506 319.245C169.641 315.123 175.038 311.18 180.243 307.008C190.708 293.109 188.269 273.744 188.423 257.351C188.593 239.196 188.807 220.311 187.964 202.131C187.723 196.909 185.554 191.075 184.867 185.765L184.81 185.311C183.465 183.095 182.189 181.121 181.24 178.699Z" fill="#042239"/>
<path d="M388.664 138.832C393.583 141.546 398.666 145.183 403.456 148.035C421.655 158.871 437.555 171.478 443.423 192.952C448.113 210.11 446.52 229.47 439.356 245.858C432.507 232.653 429.352 230.322 417.961 220.804C402.27 207.693 392.502 191.987 389.101 171.616C388.248 166.498 388.251 162.669 387.633 158.078C387.899 155.307 387.832 147.565 387.914 144.294L388.664 138.832Z" fill="#042239"/>
<path d="M184.81 185.312C199.606 196.458 198.754 214.036 198.497 230.651C198.445 234.013 198.491 237.445 198.5 240.813L198.554 262.398C198.565 275.355 198.911 287.082 190.514 297.838C188.775 300.064 183.06 306.694 180.243 307.008C190.708 293.109 188.269 273.744 188.423 257.351C188.593 239.196 188.807 220.311 187.964 202.131C187.723 196.909 185.554 191.075 184.867 185.765L184.81 185.312Z" fill="url(#paint31_linear_669_28571)"/>
<path d="M403.989 172.426C414.056 177.455 425.426 187.387 429.645 198.048C428.742 199.389 429.064 200.866 429.272 202.501C425.52 197.392 422.88 192.724 418.775 187.555C413.921 181.44 408.993 177.699 403.989 172.426Z" fill="url(#paint32_linear_669_28571)"/>
<path d="M429.272 202.501C429.064 200.866 428.742 199.389 429.645 198.048C431.47 202.426 433.014 206.281 434.253 210.889C432.366 208.093 431.045 205.25 429.272 202.501Z" fill="url(#paint33_linear_669_28571)"/>
<defs>
<linearGradient id="paint0_linear_669_28571" x1="79.149" y1="440.851" x2="523.83" y2="440.851" gradientUnits="userSpaceOnUse">
<stop stop-color="#987622"/>
<stop offset="0.3" stop-color="#BC922C"/>
<stop offset="0.5" stop-color="#E0C67B"/>
<stop offset="0.7" stop-color="#BC922C"/>
<stop offset="1" stop-color="#987622"/>
</linearGradient>
<linearGradient id="paint1_linear_669_28571" x1="79.149" y1="440.851" x2="523.83" y2="440.851" gradientUnits="userSpaceOnUse">
<stop stop-color="#987622"/>
<stop offset="0.3" stop-color="#BC922C"/>
<stop offset="0.5" stop-color="#E0C67B"/>
<stop offset="0.7" stop-color="#BC922C"/>
<stop offset="1" stop-color="#987622"/>
</linearGradient>
<linearGradient id="paint2_linear_669_28571" x1="79.149" y1="440.851" x2="523.83" y2="440.851" gradientUnits="userSpaceOnUse">
<stop stop-color="#987622"/>
<stop offset="0.3" stop-color="#BC922C"/>
<stop offset="0.5" stop-color="#E0C67B"/>
<stop offset="0.7" stop-color="#BC922C"/>
<stop offset="1" stop-color="#987622"/>
</linearGradient>
<linearGradient id="paint3_linear_669_28571" x1="79.149" y1="440.851" x2="523.83" y2="440.851" gradientUnits="userSpaceOnUse">
<stop stop-color="#987622"/>
<stop offset="0.3" stop-color="#BC922C"/>
<stop offset="0.5" stop-color="#E0C67B"/>
<stop offset="0.7" stop-color="#BC922C"/>
<stop offset="1" stop-color="#987622"/>
</linearGradient>
<linearGradient id="paint4_linear_669_28571" x1="79.149" y1="440.851" x2="523.83" y2="440.851" gradientUnits="userSpaceOnUse">
<stop stop-color="#987622"/>
<stop offset="0.3" stop-color="#BC922C"/>
<stop offset="0.5" stop-color="#E0C67B"/>
<stop offset="0.7" stop-color="#BC922C"/>
<stop offset="1" stop-color="#987622"/>
</linearGradient>
<linearGradient id="paint5_linear_669_28571" x1="79.149" y1="440.851" x2="523.83" y2="440.851" gradientUnits="userSpaceOnUse">
<stop stop-color="#987622"/>
<stop offset="0.3" stop-color="#BC922C"/>
<stop offset="0.5" stop-color="#E0C67B"/>
<stop offset="0.7" stop-color="#BC922C"/>
<stop offset="1" stop-color="#987622"/>
</linearGradient>
<linearGradient id="paint6_linear_669_28571" x1="79.149" y1="440.851" x2="523.83" y2="440.851" gradientUnits="userSpaceOnUse">
<stop stop-color="#987622"/>
<stop offset="0.3" stop-color="#BC922C"/>
<stop offset="0.5" stop-color="#E0C67B"/>
<stop offset="0.7" stop-color="#BC922C"/>
<stop offset="1" stop-color="#987622"/>
</linearGradient>
<linearGradient id="paint7_linear_669_28571" x1="79.149" y1="440.851" x2="523.83" y2="440.851" gradientUnits="userSpaceOnUse">
<stop stop-color="#987622"/>
<stop offset="0.3" stop-color="#BC922C"/>
<stop offset="0.5" stop-color="#E0C67B"/>
<stop offset="0.7" stop-color="#BC922C"/>
<stop offset="1" stop-color="#987622"/>
</linearGradient>
<linearGradient id="paint8_linear_669_28571" x1="72.3405" y1="398.298" x2="529.362" y2="398.298" gradientUnits="userSpaceOnUse">
<stop stop-color="#987622"/>
<stop offset="0.3" stop-color="#BC922C"/>
<stop offset="0.5" stop-color="#E0C67B"/>
<stop offset="0.7" stop-color="#BC922C"/>
<stop offset="1" stop-color="#987622"/>
</linearGradient>
<linearGradient id="paint9_linear_669_28571" x1="72.3405" y1="398.298" x2="529.362" y2="398.298" gradientUnits="userSpaceOnUse">
<stop stop-color="#987622"/>
<stop offset="0.3" stop-color="#BC922C"/>
<stop offset="0.5" stop-color="#E0C67B"/>
<stop offset="0.7" stop-color="#BC922C"/>
<stop offset="1" stop-color="#987622"/>
</linearGradient>
<linearGradient id="paint10_linear_669_28571" x1="63.8298" y1="245.107" x2="555.319" y2="245.107" gradientUnits="userSpaceOnUse">
<stop stop-color="#987622"/>
<stop offset="0.3" stop-color="#BC922C"/>
<stop offset="0.5" stop-color="#E0C67B"/>
<stop offset="0.7" stop-color="#BC922C"/>
<stop offset="0.947115" stop-color="#987622"/>
</linearGradient>
<linearGradient id="paint11_linear_669_28571" x1="58.7235" y1="291.915" x2="540" y2="291.915" gradientUnits="userSpaceOnUse">
<stop stop-color="#987622"/>
<stop offset="0.3" stop-color="#BC922C"/>
<stop offset="0.5" stop-color="#E0C67B"/>
<stop offset="0.7" stop-color="#BC922C"/>
<stop offset="1" stop-color="#987622"/>
</linearGradient>
<linearGradient id="paint12_linear_669_28571" x1="58.7235" y1="291.915" x2="540" y2="291.915" gradientUnits="userSpaceOnUse">
<stop stop-color="#987622"/>
<stop offset="0.3" stop-color="#BC922C"/>
<stop offset="0.5" stop-color="#E0C67B"/>
<stop offset="0.7" stop-color="#BC922C"/>
<stop offset="1" stop-color="#987622"/>
</linearGradient>
<linearGradient id="paint13_linear_669_28571" x1="58.7235" y1="291.915" x2="540" y2="291.915" gradientUnits="userSpaceOnUse">
<stop stop-color="#987622"/>
<stop offset="0.3" stop-color="#BC922C"/>
<stop offset="0.5" stop-color="#E0C67B"/>
<stop offset="0.7" stop-color="#BC922C"/>
<stop offset="1" stop-color="#987622"/>
</linearGradient>
<linearGradient id="paint14_linear_669_28571" x1="58.7235" y1="291.915" x2="540" y2="291.915" gradientUnits="userSpaceOnUse">
<stop stop-color="#987622"/>
<stop offset="0.3" stop-color="#BC922C"/>
<stop offset="0.5" stop-color="#E0C67B"/>
<stop offset="0.7" stop-color="#BC922C"/>
<stop offset="1" stop-color="#987622"/>
</linearGradient>
<linearGradient id="paint15_linear_669_28571" x1="60.0001" y1="155.745" x2="549.787" y2="155.745" gradientUnits="userSpaceOnUse">
<stop stop-color="#987622"/>
<stop offset="0.3" stop-color="#BC922C"/>
<stop offset="0.5" stop-color="#E0C67B"/>
<stop offset="0.7" stop-color="#BC922C"/>
<stop offset="1" stop-color="#987622"/>
</linearGradient>
<linearGradient id="paint16_linear_669_28571" x1="60.0001" y1="155.745" x2="549.787" y2="155.745" gradientUnits="userSpaceOnUse">
<stop stop-color="#987622"/>
<stop offset="0.3" stop-color="#BC922C"/>
<stop offset="0.5" stop-color="#E0C67B"/>
<stop offset="0.7" stop-color="#BC922C"/>
<stop offset="1" stop-color="#987622"/>
</linearGradient>
<linearGradient id="paint17_linear_669_28571" x1="60.0001" y1="155.745" x2="549.787" y2="155.745" gradientUnits="userSpaceOnUse">
<stop stop-color="#987622"/>
<stop offset="0.3" stop-color="#BC922C"/>
<stop offset="0.5" stop-color="#E0C67B"/>
<stop offset="0.7" stop-color="#BC922C"/>
<stop offset="1" stop-color="#987622"/>
</linearGradient>
<linearGradient id="paint18_linear_669_28571" x1="60.0001" y1="155.745" x2="549.787" y2="155.745" gradientUnits="userSpaceOnUse">
<stop stop-color="#987622"/>
<stop offset="0.3" stop-color="#BC922C"/>
<stop offset="0.5" stop-color="#E0C67B"/>
<stop offset="0.7" stop-color="#BC922C"/>
<stop offset="1" stop-color="#987622"/>
</linearGradient>
<linearGradient id="paint19_linear_669_28571" x1="60.0001" y1="155.745" x2="549.787" y2="155.745" gradientUnits="userSpaceOnUse">
<stop stop-color="#987622"/>
<stop offset="0.3" stop-color="#BC922C"/>
<stop offset="0.5" stop-color="#E0C67B"/>
<stop offset="0.7" stop-color="#BC922C"/>
<stop offset="1" stop-color="#987622"/>
</linearGradient>
<linearGradient id="paint20_linear_669_28571" x1="60.0001" y1="155.745" x2="549.787" y2="155.745" gradientUnits="userSpaceOnUse">
<stop stop-color="#987622"/>
<stop offset="0.3" stop-color="#BC922C"/>
<stop offset="0.5" stop-color="#E0C67B"/>
<stop offset="0.7" stop-color="#BC922C"/>
<stop offset="1" stop-color="#987622"/>
</linearGradient>
<linearGradient id="paint21_linear_669_28571" x1="59.5746" y1="343.829" x2="545.106" y2="343.829" gradientUnits="userSpaceOnUse">
<stop stop-color="#987622"/>
<stop offset="0.302885" stop-color="#BC922C"/>
<stop offset="0.5" stop-color="#E0C67B"/>
<stop offset="0.7" stop-color="#BC922C"/>
<stop offset="1" stop-color="#987622"/>
</linearGradient>
<linearGradient id="paint22_linear_669_28571" x1="71.0639" y1="91.3596" x2="547.234" y2="91.0637" gradientUnits="userSpaceOnUse">
<stop stop-color="#987622"/>
<stop offset="0.3" stop-color="#BC922C"/>
<stop offset="0.5" stop-color="#E0C67B"/>
<stop offset="0.701923" stop-color="#BC922C"/>
<stop offset="1" stop-color="#987622"/>
</linearGradient>
<linearGradient id="paint23_linear_669_28571" x1="71.0639" y1="91.3596" x2="547.234" y2="91.0637" gradientUnits="userSpaceOnUse">
<stop stop-color="#987622"/>
<stop offset="0.3" stop-color="#BC922C"/>
<stop offset="0.5" stop-color="#E0C67B"/>
<stop offset="0.701923" stop-color="#BC922C"/>
<stop offset="1" stop-color="#987622"/>
</linearGradient>
<linearGradient id="paint24_linear_669_28571" x1="71.0639" y1="91.3596" x2="547.234" y2="91.0637" gradientUnits="userSpaceOnUse">
<stop stop-color="#987622"/>
<stop offset="0.3" stop-color="#BC922C"/>
<stop offset="0.5" stop-color="#E0C67B"/>
<stop offset="0.701923" stop-color="#BC922C"/>
<stop offset="1" stop-color="#987622"/>
</linearGradient>
<linearGradient id="paint25_linear_669_28571" x1="58.7234" y1="291.064" x2="552.34" y2="291.064" gradientUnits="userSpaceOnUse">
<stop stop-color="#987622"/>
<stop offset="0.302885" stop-color="#BC922C"/>
<stop offset="0.5" stop-color="#E0C67B"/>
<stop offset="0.7" stop-color="#BC922C"/>
<stop offset="1" stop-color="#987622"/>
</linearGradient>
<linearGradient id="paint26_linear_669_28571" x1="57.4468" y1="109.787" x2="540" y2="109.787" gradientUnits="userSpaceOnUse">
<stop stop-color="#987622"/>
<stop offset="0.3" stop-color="#BC922C"/>
<stop offset="0.495192" stop-color="#E0C67B"/>
<stop offset="0.697115" stop-color="#BC922C"/>
<stop offset="1" stop-color="#987622"/>
</linearGradient>
<linearGradient id="paint27_linear_669_28571" x1="56.1702" y1="278.298" x2="548.936" y2="278.298" gradientUnits="userSpaceOnUse">
<stop stop-color="#987622"/>
<stop offset="0.230769" stop-color="#BC922C"/>
<stop offset="0.490385" stop-color="#E0C67B"/>
<stop offset="0.745192" stop-color="#BC922C"/>
<stop offset="1" stop-color="#987622"/>
</linearGradient>
<linearGradient id="paint28_linear_669_28571" x1="56.1702" y1="278.298" x2="548.936" y2="278.298" gradientUnits="userSpaceOnUse">
<stop stop-color="#987622"/>
<stop offset="0.230769" stop-color="#BC922C"/>
<stop offset="0.490385" stop-color="#E0C67B"/>
<stop offset="0.745192" stop-color="#BC922C"/>
<stop offset="1" stop-color="#987622"/>
</linearGradient>
<linearGradient id="paint29_linear_669_28571" x1="65.5319" y1="135.319" x2="543.404" y2="135.319" gradientUnits="userSpaceOnUse">
<stop stop-color="#987622"/>
<stop offset="0.3" stop-color="#BC922C"/>
<stop offset="0.504808" stop-color="#E0C67B"/>
<stop offset="0.7" stop-color="#BC922C"/>
<stop offset="1" stop-color="#987622"/>
</linearGradient>
<linearGradient id="paint30_linear_669_28571" x1="56.1702" y1="90.2129" x2="539.149" y2="90.2129" gradientUnits="userSpaceOnUse">
<stop stop-color="#987622"/>
<stop offset="0.3" stop-color="#BC922C"/>
<stop offset="0.5" stop-color="#E0C67B"/>
<stop offset="0.7" stop-color="#BC922C"/>
<stop offset="1" stop-color="#987622"/>
</linearGradient>
<linearGradient id="paint31_linear_669_28571" x1="554.043" y1="245.957" x2="61.2766" y2="245.957" gradientUnits="userSpaceOnUse">
<stop stop-color="#987622"/>
<stop offset="0.3" stop-color="#BC922C"/>
<stop offset="0.5" stop-color="#E0C67B"/>
<stop offset="0.7" stop-color="#BC922C"/>
<stop offset="1" stop-color="#987622"/>
</linearGradient>
<linearGradient id="paint32_linear_669_28571" x1="60.8511" y1="211.064" x2="549.787" y2="211.064" gradientUnits="userSpaceOnUse">
<stop stop-color="#987622"/>
<stop offset="0.3" stop-color="#BC922C"/>
<stop offset="0.5" stop-color="#E0C67B"/>
<stop offset="0.7" stop-color="#BC922C"/>
<stop offset="1" stop-color="#987622"/>
</linearGradient>
<linearGradient id="paint33_linear_669_28571" x1="60.8511" y1="211.064" x2="549.787" y2="211.064" gradientUnits="userSpaceOnUse">
<stop stop-color="#987622"/>
<stop offset="0.3" stop-color="#BC922C"/>
<stop offset="0.5" stop-color="#E0C67B"/>
<stop offset="0.7" stop-color="#BC922C"/>
<stop offset="1" stop-color="#987622"/>
</linearGradient>
</defs>
</svg>
