<svg width="100" height="100" viewBox="0 0 100 100" fill="none" xmlns="http://www.w3.org/2000/svg">
<path d="M71.569 36.098C77.9997 40.7112 85.8775 43.4255 94.3859 43.4255V26.9944C92.7757 26.9947 91.1696 26.8262 89.5942 26.4913V39.4249C81.0865 39.4249 73.2097 36.7106 66.7773 32.0977V65.6288C66.7773 82.4028 53.2277 95.9998 36.5143 95.9998C30.2782 95.9998 24.4819 94.1078 19.667 90.8629C25.1625 96.5019 32.8263 100 41.305 100C58.0194 100 71.5697 86.4031 71.5697 69.6284V36.098H71.569V36.098ZM77.4801 19.521C74.1937 15.9178 72.0359 11.2613 71.569 6.11339V4H67.0282C68.1712 10.543 72.0698 16.133 77.4801 19.521ZM30.2382 77.991C28.402 75.5749 27.4098 72.6193 27.4142 69.5803C27.4142 61.9086 33.6118 55.6882 41.2578 55.6882C42.6828 55.6878 44.0992 55.9068 45.4572 56.3392V39.5409C43.8702 39.3226 42.2685 39.2299 40.6676 39.2639V52.3389C39.3086 51.9065 37.8914 51.6869 36.4661 51.6882C28.8201 51.6882 22.6229 57.908 22.6229 65.5808C22.6229 71.006 25.7206 75.7029 30.2382 77.991Z" fill="#FF004F"/>
<path d="M66.7771 32.0973C73.2095 36.7102 81.0862 39.4245 89.594 39.4245V26.4909C84.845 25.4757 80.6409 22.9852 77.4799 19.521C72.0692 16.1326 68.171 10.5427 67.028 4H55.1005V69.6277C55.0735 77.2785 48.8866 83.4735 41.2569 83.4735C36.7609 83.4735 32.7666 81.3227 30.237 77.991C25.7197 75.7029 22.622 71.0056 22.622 65.5811C22.622 57.909 28.8192 51.6886 36.4652 51.6886C37.9302 51.6886 39.3422 51.9175 40.6666 52.3393V39.2643C24.2469 39.6047 11.0414 53.0689 11.0414 69.6281C11.0414 77.8942 14.3299 85.3879 19.6671 90.8632C24.4821 94.1078 30.2783 96.0001 36.5145 96.0001C53.2281 96.0001 66.7775 82.4024 66.7775 65.6288V32.0973H66.7771Z" fill="black"/>
<path d="M89.5941 26.4908V22.9937C85.3117 23.0002 81.1133 21.7966 77.48 19.5206C80.6964 23.0544 84.9316 25.4911 89.5941 26.4908ZM67.0281 3.99993C66.9191 3.37463 66.8353 2.74521 66.7772 2.11339V0H50.3086V65.6284C50.2823 73.2782 44.0957 79.4732 36.4653 79.4732C34.2252 79.4732 32.1101 78.9395 30.237 77.9913C32.7667 81.3227 36.761 83.4731 41.257 83.4731C48.886 83.4731 55.074 77.2788 55.1006 69.628V3.99993H67.0281ZM40.6674 39.2642V35.5412C39.2913 35.3525 37.904 35.2577 36.5149 35.2584C19.7998 35.2581 6.25018 48.8558 6.25018 65.6284C6.25018 76.1439 11.5754 85.4111 19.6676 90.8624C14.3303 85.3875 11.0419 77.8935 11.0419 69.6276C11.0419 53.0688 24.247 39.6046 40.6674 39.2642Z" fill="#00F2EA"/>
</svg>
