<svg width="100" height="100" viewBox="0 0 100 100" fill="none" xmlns="http://www.w3.org/2000/svg">
<g clip-path="url(#clip0_748_6752)">
<path d="M98.0085 25.7734C97.4431 23.646 96.3289 21.7044 94.7773 20.1428C93.2258 18.5813 91.2913 17.4547 89.1675 16.8757C81.3494 14.7734 50.0994 14.7734 50.0994 14.7734C50.0994 14.7734 18.8494 14.7734 11.0312 16.8757C8.90741 17.4547 6.97294 18.5813 5.4214 20.1428C3.86985 21.7044 2.75564 23.646 2.19027 25.7734C0.0993655 33.6257 0.0993652 50.0007 0.0993652 50.0007C0.0993652 50.0007 0.0993655 66.3757 2.19027 74.228C2.75564 76.3554 3.86985 78.2971 5.4214 79.8586C6.97294 81.4201 8.90741 82.5467 11.0312 83.1257C18.8494 85.228 50.0994 85.228 50.0994 85.228C50.0994 85.228 81.3494 85.228 89.1675 83.1257C91.2913 82.5467 93.2258 81.4201 94.7773 79.8586C96.3289 78.2971 97.4431 76.3554 98.0085 74.228C100.099 66.3757 100.099 50.0007 100.099 50.0007C100.099 50.0007 100.099 33.6257 98.0085 25.7734Z" fill="#FF0302"/>
<path d="M39.8722 64.8695V35.1309L66.0085 50.0002L39.8722 64.8695Z" fill="#FEFEFE"/>
</g>
<defs>
<clipPath id="clip0_748_6752">
<rect width="100" height="100" fill="white"/>
</clipPath>
</defs>
</svg>
