<svg width="32" height="32" viewBox="0 0 32 32" fill="none" xmlns="http://www.w3.org/2000/svg">
<path d="M8.47005 25.938C8.11603 25.2396 7.92364 24.2545 7.93719 23.4772C7.95882 22.2384 8.4397 21.0014 9.34254 20.1369C10.1403 19.3732 11.1482 18.9379 12.2653 18.9726C14.7321 19.0493 16.1368 21.6053 17.3434 23.4154C17.8703 24.2057 18.289 24.798 18.9396 25.4893C19.2454 25.7445 19.4664 25.9823 19.8069 26.2341C21.1048 27.2076 22.7185 27.6626 24.3339 27.5107C24.3957 27.5052 24.5314 27.4748 24.573 27.4897C24.5459 27.5188 24.5471 27.5215 24.5149 27.5433C24.0852 27.9642 22.6188 28.9694 22.0444 29.1867C19.7917 30.3432 17.0077 30.9213 14.4979 30.4455C13.9944 30.363 13.4811 30.2065 13.0013 30.038C11.5583 29.5163 10.2904 28.6005 9.34155 27.3946C9.07873 27.0627 8.84851 26.7428 8.66461 26.3594C8.59031 26.2854 8.49476 26.0424 8.47005 25.938ZM13.7712 26.4885L11.4131 26.5015C11.1818 26.5015 9.33718 26.4872 9.28013 26.5165L9.29742 26.5852C9.77215 27.4603 11.1817 28.395 12.1305 28.6528C12.4486 28.7394 12.7775 28.825 13.1047 28.8775C13.2416 28.8996 13.425 28.9082 13.5388 28.9308C14.4615 28.9299 15.2343 28.8389 15.9492 28.1579C16.1811 27.9369 16.3404 27.5814 16.3397 27.2581C16.3401 27.0639 16.2925 26.8725 16.2012 26.701C16.1495 26.74 16.2084 26.7535 16.1427 26.8073C16.0066 26.919 15.7743 26.9908 15.6034 26.9657C15.4097 26.9386 15.2352 26.8344 15.1195 26.6767C14.9852 26.4978 14.9313 26.2713 14.9705 26.0512C15.0126 25.8247 15.1431 25.6243 15.3332 25.4942C16.464 24.7103 17.4765 26.4032 17.1809 27.4342C16.916 28.3583 16.3344 28.8953 15.4286 29.2492C14.8299 29.4595 13.8646 29.5475 13.2211 29.4754C13.2316 29.4969 13.2465 29.5305 13.2587 29.5499C14.0219 29.7808 14.8078 29.9283 15.6028 29.99C17.6136 30.13 19.6185 29.6814 21.4342 28.8282C21.8799 28.6188 22.3912 28.375 22.7624 28.0523C22.2324 28.0005 21.8087 27.877 21.3145 27.6921C20.1774 27.2668 19.143 26.6103 18.3294 25.7026C18.1815 25.5378 18.0185 25.3675 17.8953 25.1835C17.6727 25.027 16.3117 22.9099 16.063 22.548C15.3638 21.5309 14.6416 20.4339 13.458 19.8833C13.0794 19.7072 12.7596 19.6584 12.3596 19.5791C12.3424 19.9066 12.3527 20.2383 12.3547 20.5666L12.3577 21.8852L12.3641 23.3383C12.3674 23.8181 12.3594 24.4092 12.4622 24.8724C12.5291 25.1728 12.6718 25.4509 12.8767 25.6802C13.0181 25.8377 13.2184 25.9761 13.4127 26.0572C13.7043 26.1786 13.7915 26.0586 13.774 26.4351L13.7712 26.4885ZM8.84324 25.2519C9.11578 25.8547 9.74555 25.067 9.72717 24.5245C9.70898 23.988 9.85028 20.9331 9.71801 20.6576L9.69479 20.6417C9.35745 20.8649 8.96577 21.6684 8.81178 22.0554C8.46406 22.9294 8.45213 24.3835 8.84324 25.2519Z" fill="url(#paint0_linear_732_1294)"/>
<path d="M18.3361 27.9325C18.8897 27.8738 18.9861 28.211 18.6903 28.6151C18.3437 29.0889 17.6529 29.3019 17.1113 29.3927C16.9924 29.41 16.7486 29.4406 16.633 29.4318L16.6228 29.4105C16.6652 29.333 17.1774 28.9997 17.2874 28.9071C17.6207 28.6265 17.9601 28.0812 18.3361 27.9325Z" fill="url(#paint1_linear_732_1294)"/>
<path d="M17.8953 25.1835L17.909 25.1578C17.8121 25.0272 17.2463 24.3389 17.2532 24.2303C17.4358 24.0384 17.4844 24.1568 17.5675 23.893L17.6013 23.8634C17.6542 23.9032 17.9579 24.3824 18.0243 24.4678C18.3052 24.8296 18.574 25.1777 18.9048 25.4958C18.9165 25.4941 18.9293 25.4949 18.9396 25.4893C19.2454 25.7445 19.4664 25.9823 19.8069 26.2341C21.1048 27.2076 22.7185 27.6626 24.3339 27.5107C24.3957 27.5052 24.5314 27.4748 24.573 27.4897C24.5459 27.5188 24.5471 27.5215 24.5149 27.5433C24.0852 27.9642 22.6188 28.9694 22.0444 29.1867C19.7917 30.3432 17.0077 30.9213 14.4979 30.4455C13.9944 30.363 13.4811 30.2065 13.0013 30.038C11.5583 29.5163 10.2904 28.6005 9.34155 27.3946C9.07873 27.0627 8.84851 26.7428 8.66461 26.3594C8.7747 26.3776 8.93108 26.6332 9.29742 26.5852C9.77215 27.4603 11.1817 28.395 12.1305 28.6528C12.4486 28.7394 12.7775 28.825 13.1047 28.8775C13.2416 28.8996 13.425 28.9082 13.5388 28.9308C14.4615 28.9299 15.2343 28.8389 15.9492 28.1579C16.1811 27.9369 16.3404 27.5814 16.3397 27.2581C16.3401 27.0639 16.2925 26.8725 16.2012 26.701C16.1495 26.74 16.2084 26.7535 16.1427 26.8073C16.0066 26.919 15.7743 26.9908 15.6034 26.9657C15.4097 26.9386 15.2352 26.8344 15.1195 26.6767C14.9852 26.4978 14.9313 26.2713 14.9705 26.0512C15.0126 25.8247 15.1431 25.6243 15.3332 25.4942C16.464 24.7103 17.4765 26.4032 17.1809 27.4342C16.916 28.3583 16.3344 28.8953 15.4286 29.2492C14.8299 29.4595 13.8646 29.5475 13.2211 29.4754C13.2316 29.4969 13.2465 29.5305 13.2587 29.5499C14.0219 29.7808 14.8078 29.9283 15.6028 29.99C17.6136 30.13 19.6185 29.6814 21.4342 28.8282C21.8799 28.6188 22.3912 28.375 22.7624 28.0523C22.2324 28.0005 21.8087 27.877 21.3145 27.6921C20.1774 27.2668 19.143 26.6103 18.3294 25.7026C18.1815 25.5378 18.0185 25.3675 17.8953 25.1835Z" fill="url(#paint2_linear_732_1294)"/>
<path d="M8.66461 26.3594C8.7747 26.3776 8.93108 26.6332 9.29742 26.5852C9.77215 27.4603 11.1817 28.395 12.1305 28.6528C12.4486 28.7394 12.7775 28.825 13.1047 28.8775C13.2416 28.8996 13.425 28.9082 13.5388 28.9308L13.5152 28.9332C13.154 28.9685 12.7815 28.8511 12.4309 28.7728C12.3488 28.7545 12.1846 28.7057 12.1132 28.7069C12.0696 28.7864 12.0905 28.8215 12.063 28.9048C12.0418 28.969 11.9483 29.0543 11.9505 29.1134C11.9531 29.186 11.9561 29.2034 11.9288 29.2681C11.8717 29.3086 11.8696 29.293 11.797 29.2781L11.7506 29.3042L11.7422 29.3418C12.1105 29.7725 13.3454 30.1111 13.8951 30.2745C14.0306 30.3148 14.4161 30.3693 14.4979 30.4455C13.9944 30.363 13.4811 30.2065 13.0013 30.038C11.5583 29.5163 10.2904 28.6005 9.34155 27.3946C9.07873 27.0627 8.84851 26.7428 8.66461 26.3594Z" fill="url(#paint3_linear_732_1294)"/>
<path d="M22.0444 29.1867C22.1556 29.0413 23.3233 28.4695 23.383 28.3627L23.3522 28.2793C23.4369 28.0164 23.4581 27.8676 23.7595 27.9203C23.8229 27.9314 23.8185 27.951 23.8582 28.0007C23.999 27.9744 24.3166 27.5934 24.5149 27.5433C24.0852 27.9642 22.6188 28.9694 22.0444 29.1867Z" fill="url(#paint4_linear_732_1294)"/>
<path d="M13.2587 29.5499C13.1132 29.5046 13.0276 29.4877 12.8837 29.4283L12.886 29.4322L12.9119 29.3945L12.9207 29.3957L12.9067 29.4433L12.9389 29.3991L13.2211 29.4754C13.2316 29.4969 13.2465 29.5305 13.2587 29.5499Z" fill="url(#paint5_linear_732_1294)"/>
<path d="M8.47005 25.938C8.67993 26.0399 8.7472 26.0484 8.98089 26.0565C9.06412 26.0559 9.17843 26.0417 9.26365 26.0334C9.13279 26.1277 9.18303 26.2232 9.22882 26.3557C9.24247 26.4065 9.25609 26.4726 9.28013 26.5165L9.29742 26.5852C8.93108 26.6332 8.7747 26.3776 8.66461 26.3594C8.59031 26.2854 8.49476 26.0424 8.47005 25.938Z" fill="url(#paint6_linear_732_1294)"/>
<path d="M8.98089 26.0565C9.06412 26.0559 9.17843 26.0417 9.26365 26.0334C9.13279 26.1277 9.18303 26.2232 9.22882 26.3557C8.9584 26.3633 8.98001 26.2946 8.98089 26.0565Z" fill="url(#paint7_linear_732_1294)"/>
<path d="M6.63359 25.3945C6.43913 25.2523 6.27661 25.1975 6.07491 25.0854C5.21388 24.6072 4.32105 24.0413 3.58545 23.3863C2.33221 22.2595 1.39768 20.8228 0.875801 19.2203C0.0625092 16.716 0.334378 13.8291 1.52699 11.5004C3.00102 8.57911 6.03078 6.74955 9.19956 6.17319C13.1929 5.44685 19.785 5.61083 21.2513 10.3458C22.4357 14.1714 19.8455 17.5794 16.1104 18.3575C16.0612 18.3678 16.0294 18.3923 16.0086 18.4353C16.3698 18.5319 16.6698 18.5816 17.0253 18.7153C17.9779 19.0742 18.4469 19.6911 19.015 20.4919C19.9565 21.8191 20.845 23.2839 22.1279 24.318C22.3851 24.5242 22.7293 24.7068 23.0183 24.8665C23.8412 25.397 25.0389 25.5089 25.9841 25.3069C26.2182 25.2133 26.5185 25.1619 26.823 25.0343C27.9461 24.5642 28.941 23.7594 29.6626 22.7816C29.7472 22.6669 30.2217 21.9389 30.2386 21.9278L30.2543 21.9643C30.206 22.4279 30.1297 22.5659 29.9557 22.9949C29.8655 23.2175 29.8413 23.3692 29.7107 23.604C29.6991 23.6376 29.6866 23.671 29.673 23.7037C29.5234 24.0672 28.9652 24.8843 28.7317 25.2149C26.9448 27.7469 24.4821 29.7251 21.6244 30.924C18.6096 32.1909 14.999 32.4272 11.9527 31.1519C10.0318 30.3478 8.29714 28.8441 7.3118 26.9975C7.1571 26.7076 7.00927 26.4101 6.88938 26.1046C6.80094 25.8792 6.73647 25.6358 6.64293 25.416L6.63359 25.3945ZM6.38268 23.88C6.39782 23.6156 6.3987 23.341 6.41356 23.0763C6.58815 19.9658 8.87963 17.7026 11.9777 17.4687C12.9958 17.3919 14.373 17.3543 15.3537 17.0031L15.376 16.995C15.456 16.9817 15.6966 16.8933 15.7838 16.8626C16.4736 16.6183 17.1529 16.1985 17.6776 15.6911C19.4849 13.9437 19.5378 10.7673 17.789 8.96032C16.7648 7.9019 14.9877 7.32241 13.5441 7.3047C13.2044 7.25575 12.4321 7.26954 12.0768 7.28544C9.79183 7.38771 7.17422 8.0293 5.31998 9.41312C3.52156 10.7759 2.3372 12.7965 2.02675 15.0315C1.70442 17.2704 2.35887 19.5546 3.71124 21.3542C4.06441 21.8173 4.46335 22.2439 4.90202 22.627C5.18758 22.8796 5.75394 23.2874 5.94279 23.5698C6.00707 23.7113 6.23898 24.2429 6.30746 24.3439C6.32113 24.2584 6.30534 24.2297 6.37704 24.1787C6.40163 24.0873 6.38772 23.9773 6.38268 23.88ZM8.66461 26.3593C8.84851 26.7426 9.07872 27.0625 9.34155 27.3944C10.2904 28.6003 11.5582 29.5161 13.0013 30.0378C13.4811 30.2063 13.9944 30.3628 14.4979 30.4453C17.0077 30.9212 19.7917 30.3431 22.0444 29.1865C22.6188 28.9692 24.0852 27.9641 24.5149 27.5432C24.5471 27.5213 24.5459 27.5187 24.573 27.4896C24.5314 27.4746 24.3957 27.5051 24.3339 27.5106C22.7185 27.6625 21.1048 27.2074 19.8069 26.234C19.4664 25.9821 19.2454 25.7444 18.9396 25.4892C18.289 24.7979 17.8702 24.2055 17.3434 23.4152C16.1368 21.6051 14.7321 19.0492 12.2653 18.9725C11.1482 18.9378 10.1403 19.3731 9.34253 20.1368C8.43969 21.0013 7.95881 22.2382 7.93719 23.4771C7.92363 24.2543 8.11603 25.2394 8.47004 25.9379C8.49475 26.0422 8.5903 26.2853 8.66461 26.3593Z" fill="#042239"/>
<path d="M16.0086 18.4353C16.3698 18.5319 16.6698 18.5816 17.0253 18.7154C17.9779 19.0742 18.4469 19.6911 19.015 20.492C19.9565 21.8191 20.845 23.2839 22.1279 24.318C22.3851 24.5242 22.7293 24.7068 23.0183 24.8665C23.8412 25.397 25.0389 25.5089 25.9841 25.3069L26.0162 25.326C25.3811 25.4969 24.8201 25.4345 24.1893 25.3639C24.0892 25.3528 23.8571 25.7754 23.7376 25.7874L23.7373 25.8121L23.7589 25.8152C23.9634 25.8475 24.1536 25.9155 24.358 25.9451C24.4146 25.9534 24.5413 25.945 24.566 25.9709C24.5216 25.97 24.4761 25.9645 24.4352 25.976C24.048 25.9564 23.4716 25.7648 23.1193 25.6124C21.3572 24.8497 20.1407 23.1754 19.0673 21.6524C18.5689 20.9451 18.2294 20.4172 17.645 19.7559C17.3145 19.3879 16.9344 19.0677 16.5156 18.8047C16.4102 18.7395 15.9609 18.5062 15.9109 18.4531L16.0086 18.4353Z" fill="url(#paint8_linear_732_1294)"/>
<path d="M25.9841 25.3069C26.2181 25.2133 26.5185 25.1619 26.823 25.0343C27.9461 24.5642 28.941 23.7595 29.6626 22.7816C29.7472 22.6669 30.2217 21.939 30.2386 21.9279L30.2543 21.9644C30.206 22.4279 30.1297 22.5659 29.9557 22.9949C29.8655 23.2175 29.8413 23.3692 29.7107 23.604C29.4166 23.905 29.1291 24.239 28.8157 24.5191C27.7736 25.4649 26.4222 25.998 25.0151 26.0185C24.8989 26.0197 24.5358 26.0121 24.4352 25.976C24.4761 25.9645 24.5216 25.97 24.566 25.9709C24.5413 25.945 24.4146 25.9534 24.358 25.9451C24.1536 25.9155 23.9634 25.8475 23.7589 25.8152L23.7373 25.8121L23.7376 25.7874C23.8571 25.7754 24.0892 25.3528 24.1893 25.3639C24.8201 25.4345 25.3811 25.4969 26.0162 25.326L25.9841 25.3069Z" fill="url(#paint9_linear_732_1294)"/>
<path d="M15.8386 10.3711C15.9488 10.463 16.177 11.0961 16.2431 11.2702C16.6982 12.4692 16.7592 13.2763 16.226 14.454L16.2558 14.447C16.5715 14.3765 16.9941 14.143 17.3177 14.0196L17.339 14.0359C17.3487 14.0993 17.3392 14.1518 17.3198 14.214C17.0861 14.9614 16.3238 15.0636 15.684 15.271C15.3622 15.3753 15.1323 15.4797 14.8484 15.643C14.9785 15.3956 15.1499 15.2218 15.2956 14.9943C15.7404 14.2997 15.9927 13.5909 15.9739 12.7614C15.9427 12.2706 15.8361 11.5851 15.5621 11.163C15.3715 11.2983 15.1661 11.3818 14.973 11.5082C14.1993 12.0149 13.6001 12.639 13.5855 13.6101C13.5798 13.9897 13.5915 14.2262 13.4141 14.5646C13.4054 14.5512 13.3894 14.5269 13.3829 14.5128C13.102 13.8995 13.0118 13.2086 13.2255 12.567C13.6168 11.3918 14.8431 10.8925 15.8386 10.3711Z" fill="url(#paint10_linear_732_1294)"/>
<path d="M5.94277 23.5698C5.75391 23.2875 5.18755 22.8796 4.90199 22.6271C4.46332 22.2439 4.06438 21.8174 3.71121 21.3542C2.35885 19.5547 1.70439 17.2705 2.02672 15.0315C2.33717 12.7965 3.52153 10.776 5.31995 9.41317C7.17419 8.02934 9.7918 7.38776 12.0768 7.28548C12.4321 7.26958 13.2044 7.2558 13.5441 7.30474C14.9877 7.32246 16.7648 7.90195 17.789 8.96037C19.5377 10.7674 19.4848 13.9437 17.6776 15.6912C17.1529 16.1985 16.4736 16.6184 15.7838 16.8626C15.6965 16.8933 15.456 16.9818 15.376 16.995L15.3536 17.0031C14.3729 17.3544 12.9958 17.3919 11.9777 17.4688C8.8796 17.7026 6.58812 19.9659 6.41353 23.0763C6.39867 23.3411 6.39779 23.6157 6.38265 23.88C6.38769 23.9773 6.4016 24.0873 6.37701 24.1788C6.30531 24.2297 6.3211 24.2584 6.30743 24.3439C6.23895 24.2429 6.00704 23.7114 5.94277 23.5698ZM7.60239 12.1085C7.99902 12.1241 8.18579 12.234 8.45981 12.531C8.79123 12.8933 8.96755 13.371 8.951 13.8617C8.92788 14.416 8.68465 14.9383 8.27521 15.3127C7.81639 15.7341 7.18725 15.9259 6.57131 15.8968C5.81331 15.8609 5.10034 15.5265 4.58823 14.9665C4.05324 14.3697 3.7434 13.6904 3.74193 12.8829C3.7414 12.595 3.76432 12.3159 3.73365 12.03C3.28046 12.7136 3.07668 13.2814 2.8395 14.0606C2.01156 16.7805 2.94102 19.983 4.99158 21.9265C5.19386 22.1181 5.48931 22.4394 5.72027 22.5945C5.75864 22.62 5.79803 22.6442 5.83834 22.6666C5.91601 21.5357 5.88066 20.2532 5.26778 19.2679C5.15914 19.0966 5.04407 18.9293 4.92281 18.7667C4.58353 18.31 3.72394 17.252 4.54242 16.8075C4.84642 16.7951 5.06865 16.8718 5.29172 17.0854C5.97439 17.7391 6.17885 18.7134 6.20601 19.6234C6.21197 19.8228 6.19001 20.1254 6.2106 20.306C6.21569 20.3533 6.21449 20.3991 6.24051 20.4366C6.3774 20.1813 6.44656 19.8756 6.57661 19.6239C7.00608 18.7929 7.5796 18.04 8.31187 17.4525C8.6208 17.2046 8.9455 16.9673 9.25863 16.7164C9.88819 15.8802 9.74148 14.7152 9.75072 13.729C9.76094 12.6368 9.77382 11.5007 9.72315 10.407C9.70861 10.0928 9.57813 9.74184 9.53679 9.4224L9.53338 9.3951C9.45249 9.26177 9.37573 9.143 9.31862 8.99729C10.4094 9.33832 11.2703 9.43159 12.4056 9.24998C12.5271 9.23054 13.018 9.06293 13.082 9.12468C13.0091 9.34494 12.761 9.54046 12.6546 9.78201C12.3469 10.481 12.3849 11.1743 12.3824 11.9226L12.385 14.2105C12.3827 14.8016 12.4174 15.4758 12.2342 16.0413C12.1876 16.1853 11.9503 16.4273 11.9863 16.5517C12.2848 16.4377 12.8407 16.1219 13.1078 15.9446C13.5738 15.635 14.0277 15.1349 14.3342 14.67C14.4878 14.4371 14.6297 14.0933 14.7413 13.8316C14.8689 13.4524 14.8936 13.0993 14.9913 12.8117C15.0717 13.0971 15.1453 13.8113 15.0558 14.0678C14.9268 15.0165 14.3215 15.7954 13.5738 16.3573C13.3975 16.4899 13.1619 16.6298 13.0059 16.7604C13.5738 16.7463 14.1385 16.6704 14.69 16.5339C14.8571 16.511 15.0359 16.4532 15.1977 16.4046C17.1335 15.8232 18.3791 14.4685 18.4365 12.3901C18.5114 9.68065 16.5369 8.2321 14.0271 7.95303C13.4788 7.89206 12.9929 7.88653 12.4461 7.87223C12.1152 7.8931 11.7709 7.88699 11.4444 7.91949C9.79226 8.08476 7.98413 8.4635 6.85345 9.78751C6.32761 10.4033 5.95064 11.0772 6.00819 11.9095C6.04744 12.4771 6.38759 13.0892 7.03804 13.0431C7.2146 13.0306 7.36717 12.9626 7.48242 12.8257C7.66762 12.6048 7.63544 12.4289 7.6088 12.1697L7.60239 12.1085Z" fill="url(#paint11_linear_732_1294)"/>
<path d="M14.9913 12.8117C15.0717 13.0971 15.1453 13.8113 15.0558 14.0678L15.0288 14.0662C15.0215 13.9865 14.9841 13.9421 14.9407 13.874C14.8611 13.8986 14.8014 13.8949 14.7413 13.8316C14.8689 13.4524 14.8936 13.0993 14.9913 12.8117Z" fill="url(#paint12_linear_732_1294)"/>
<path d="M13.5441 7.30474C14.9877 7.32246 16.7648 7.90195 17.789 8.96037C19.5377 10.7674 19.4848 13.9437 17.6776 15.6912C17.1529 16.1985 16.4736 16.6184 15.7838 16.8626C15.6965 16.8933 15.456 16.9818 15.376 16.995C15.1823 16.9813 15.1869 17.0442 15.0355 17.0533C15.0171 17.037 15.0113 17.0318 15.0016 17.0088C14.9342 16.8501 14.7931 16.7426 14.6934 16.608C14.6701 16.5764 14.6793 16.5852 14.69 16.5339C14.8571 16.511 15.0359 16.4532 15.1977 16.4046C17.1335 15.8232 18.3791 14.4685 18.4365 12.3901C18.5114 9.68065 16.5369 8.2321 14.0271 7.95303C13.4788 7.89206 12.9929 7.88653 12.4461 7.87223C12.3669 7.85847 12.2389 7.86169 12.155 7.86078C12.3192 7.80912 12.4888 7.90341 12.7471 7.76565C12.7772 7.71764 12.8628 7.63564 12.88 7.60229C13.0744 7.22547 13.1681 7.33273 13.5441 7.30474Z" fill="url(#paint13_linear_732_1294)"/>
<path d="M5.94277 23.5698C6.06727 23.5894 6.28013 23.7773 6.3048 23.8959L6.28769 23.9255C6.23367 23.8978 6.2521 23.871 6.23014 23.8217C6.19419 23.741 6.08652 23.6625 6.01935 23.606C6.0054 23.7114 6.14441 23.9733 6.24474 24.0307C6.3145 24.0281 6.28143 24.0365 6.34559 23.9976C6.37097 23.9412 6.36511 23.9269 6.38265 23.88C6.38769 23.9773 6.4016 24.0873 6.37701 24.1788C6.30531 24.2297 6.3211 24.2584 6.30743 24.3439C6.23895 24.2429 6.00704 23.7114 5.94277 23.5698Z" fill="url(#paint14_linear_732_1294)"/>
<path d="M7.00205 9.04956L7.0129 9.05261L7.01861 9.06823C6.42054 9.46437 5.99448 9.90894 5.67576 10.5676C5.19201 11.5675 5.24298 12.9969 6.37146 13.5264C6.81413 13.7341 7.45376 13.7199 7.79924 13.3426C7.91807 13.2129 7.98714 13.063 8.05681 12.9022C8.53805 13.6134 8.43399 14.4609 7.7331 14.9768C7.67206 15.0151 7.61658 15.0484 7.55202 15.0806C7.06169 15.3215 6.49547 15.3566 5.97914 15.1781C4.10391 14.5456 3.90674 12.1667 4.90892 10.7183C5.4803 9.89248 6.11646 9.48076 7.00205 9.04956Z" fill="#042239"/>
<path d="M10.3492 20.1413C10.6964 19.7713 11.8618 19.4606 12.3595 19.5791C12.3424 19.9065 12.3527 20.2382 12.3546 20.5666L12.3577 21.8851L12.3641 23.3383C12.3674 23.818 12.3593 24.4092 12.4621 24.8724C12.5291 25.1727 12.6718 25.4508 12.8767 25.6801C13.018 25.8377 13.2184 25.976 13.4127 26.0571C13.7042 26.1786 13.7915 26.0585 13.774 26.435L13.7712 26.4884L11.4131 26.5014C11.1818 26.5014 9.33716 26.4872 9.2801 26.5164C9.25606 26.4725 9.24244 26.4064 9.2288 26.3557C9.18301 26.2231 9.13276 26.1276 9.26362 26.0333C10.5058 25.7326 10.3511 24.054 10.3511 23.0753L10.3501 21.2265C10.3489 20.8696 10.3385 20.4964 10.3492 20.1413Z" fill="#042239"/>
<path d="M24.7382 7.96382C24.5637 7.40642 24.2175 6.85013 24.0339 6.28602C23.5221 4.7144 23.6763 2.86409 24.4634 1.40753C24.6393 1.0821 25.1541 0.186714 25.4515 0.000294272C25.6029 -0.0163473 26.0974 0.677834 26.2051 0.813864C27.1371 1.99208 28.057 3.2899 28.2408 4.82205C28.3672 5.86297 28.2015 6.89222 27.7438 7.83177C27.466 8.40152 27.3007 8.61564 27.2318 9.25856L27.2524 9.24482C27.3927 9.14929 27.6172 8.94667 27.7505 8.82531C28.1437 8.46694 28.8141 8.076 29.3334 7.93206C29.8545 7.7483 30.9547 7.4767 31.4938 7.47897C31.6181 9.06032 31.1917 10.7567 30.1723 11.9754C29.2558 13.0711 27.8871 13.4691 26.5583 13.7687C26.3794 13.809 26.121 13.9366 25.9476 14.0163C25.7983 14.2129 25.6402 14.5405 25.4869 14.7658C25.3521 14.9637 24.9964 15.3385 24.912 15.5134C24.8612 15.5845 24.8196 15.6495 24.7734 15.723C24.6807 15.7908 24.5492 15.8811 24.469 15.9569C24.4479 15.9892 24.4262 16.0207 24.4037 16.0519C24.3168 16.1709 24.0309 16.4326 23.9172 16.5366C22.8618 17.494 21.56 18.1378 20.1585 18.3957C19.6787 18.4826 19.199 18.5263 18.7127 18.5455C18.5407 18.5524 18.3701 18.5737 18.1998 18.5989C18.6124 18.1623 19.386 18.0286 19.9463 17.887C21.0563 17.607 22.0851 17.1096 22.9454 16.3471C23.279 16.0514 23.7448 15.6506 23.9789 15.2651C24.2768 14.6319 24.3296 14.2361 24.2441 13.5318C24.1433 12.6989 23.7196 12.3957 23.1142 11.8993C22.8361 11.6714 22.3993 11.2107 22.1947 10.909L22.1852 10.8947C21.8149 10.4502 21.5699 9.8297 21.4035 9.27575C21.2914 8.99856 21.2038 8.32816 21.2047 8.03396C21.1275 7.60973 21.1977 6.95716 21.2463 6.53187C21.2839 6.29776 21.3279 5.95994 21.4088 5.7443C21.6545 5.84647 21.9681 6.0474 22.2058 6.18276C23.154 6.72224 23.9269 7.22781 24.7382 7.96382Z" fill="#042239"/>
<path d="M24.7382 7.96382C24.5637 7.40642 24.2175 6.85013 24.0339 6.28602C23.5221 4.7144 23.6763 2.86409 24.4634 1.40753C24.6393 1.0821 25.1541 0.186714 25.4515 0.000294272C25.6029 -0.0163473 26.0974 0.677834 26.2051 0.813864C27.1371 1.99208 28.057 3.2899 28.2408 4.82205C28.3672 5.86297 28.2015 6.89221 27.7438 7.83177C27.466 8.40151 27.3007 8.61564 27.2318 9.25856L27.2524 9.24482C27.3927 9.14929 27.6172 8.94667 27.7505 8.82531C28.1437 8.46694 28.8141 8.076 29.3334 7.93205C29.3457 7.93773 29.3581 7.94342 29.3704 7.94912C29.528 7.89749 30.5009 7.60132 30.5842 7.66317C30.5708 7.74384 30.5507 7.86788 30.5347 7.95127C30.5335 7.95811 30.5886 8.03989 30.5981 8.0531C30.6061 8.06426 30.6142 8.07536 30.6223 8.08641C30.5779 8.19782 30.2918 8.24252 30.1818 8.26307C29.9321 8.30971 29.7254 8.38139 29.4872 8.4613L29.5186 8.48107C28.1102 9.01904 27.5446 9.64505 26.7407 10.8898C26.7661 10.6928 26.7696 10.3486 26.77 10.1478C26.7809 9.16993 26.6482 8.19576 26.3759 7.25647C26.1233 6.38513 25.8265 5.58648 25.7069 4.67312C25.6825 4.48676 25.6365 4.21889 25.6459 4.03542C25.71 3.78438 25.5918 3.49433 25.6922 3.27017C25.8662 4.312 26.1082 5.1154 26.4901 6.09853C26.6847 6.59922 26.981 7.35041 27.0767 7.8731C27.1807 7.64602 27.367 7.27501 27.435 7.05022C27.7496 6.0113 27.8164 4.90969 27.4283 3.88273C27.0109 2.77794 26.2476 1.73625 25.501 0.840143C24.5836 2.02067 24.1328 3.56869 24.3177 5.05821C24.4495 6.20942 25.0556 7.22032 25.4578 8.28385C25.8184 9.2374 25.9968 10.4207 25.783 11.4335C25.514 12.7069 24.9416 14.033 24.162 15.0805C24.1183 15.1392 24.0427 15.2376 23.9789 15.2651C24.2768 14.6319 24.3296 14.2361 24.2442 13.5318C24.1433 12.6989 23.7196 12.3957 23.1142 11.8993C22.8361 11.6714 22.3993 11.2107 22.1947 10.909L22.1852 10.8947C21.8149 10.4502 21.5699 9.8297 21.4035 9.27575C21.2914 8.99856 21.2038 8.32816 21.2047 8.03396C21.1275 7.60973 21.1977 6.95716 21.2463 6.53187C21.2839 6.29776 21.3279 5.95994 21.4088 5.7443C21.6545 5.84647 21.9681 6.0474 22.2058 6.18276C23.1541 6.72224 23.9269 7.22781 24.7382 7.96382Z" fill="url(#paint15_linear_732_1294)"/>
<path d="M21.2463 6.53187C21.296 6.6109 21.274 6.90822 21.427 6.97484C21.5227 7.01645 21.5193 6.95597 21.6346 6.95806C21.7204 6.91419 21.7234 6.87686 21.7386 6.78863L21.7522 6.92752C21.7472 7.12427 21.7513 7.59002 21.7352 7.75677C21.7315 7.81349 21.7321 7.92945 21.7026 7.97018C21.6459 7.86709 21.6623 7.7382 21.6066 7.68162C21.5165 7.65892 21.4212 7.67066 21.3392 7.71456C21.2329 7.77038 21.3022 7.86312 21.2409 7.86265C21.2188 7.92878 21.2216 7.97198 21.2047 8.03396C21.1275 7.60973 21.1977 6.95716 21.2463 6.53187Z" fill="url(#paint16_linear_732_1294)"/>
<path d="M21.4035 9.27575L21.4377 9.25044C21.4855 9.27171 21.5082 9.3196 21.5213 9.36821C21.6649 9.90234 21.9016 10.3604 22.2173 10.8127C22.2219 10.8191 22.1942 10.8823 22.1852 10.8947C21.8149 10.4502 21.5699 9.8297 21.4035 9.27575Z" fill="url(#paint17_linear_732_1294)"/>
<path d="M28.177 5.91843C28.2225 5.97374 28.2158 6.03763 28.2056 6.1033L28.1765 6.11462C28.1534 6.06923 28.165 5.96953 28.177 5.91843Z" fill="url(#paint18_linear_732_1294)"/>
<path d="M29.3334 7.93205C29.8545 7.7483 30.9547 7.4767 31.4939 7.47897C31.6181 9.06032 31.1918 10.7567 30.1723 11.9754C29.2558 13.0711 27.8871 13.4691 26.5583 13.7687C26.3794 13.809 26.121 13.9366 25.9476 14.0163C25.9515 13.9508 26.469 12.8316 26.5507 12.6748C27.245 11.3425 28.2993 10.3604 29.6684 9.74586C29.3265 10.0553 29.0318 10.2939 28.6998 10.6307C27.9747 11.3662 27.5057 12.1523 26.9762 13.029C27.7087 12.9391 28.7176 12.5009 29.2756 12.0144C30.5109 10.9374 30.8322 9.65502 30.9707 8.1259C30.4378 8.23108 30.0324 8.31947 29.5186 8.48107L29.4872 8.4613C29.7254 8.38139 29.9321 8.30971 30.1818 8.26307C30.2918 8.24252 30.5779 8.19782 30.6223 8.08641C30.6142 8.07536 30.6061 8.06426 30.5981 8.0531C30.5886 8.03989 30.5335 7.95811 30.5347 7.95127C30.5507 7.86788 30.5708 7.74384 30.5842 7.66317C30.5009 7.60132 29.528 7.89749 29.3704 7.94912C29.3581 7.94342 29.3457 7.93773 29.3334 7.93205Z" fill="url(#paint19_linear_732_1294)"/>
<path d="M25.6459 4.03542C25.62 3.86621 25.6099 3.09937 25.6436 2.93443C25.6762 3.03775 25.6817 3.16062 25.6922 3.27017C25.5918 3.49433 25.71 3.78438 25.6459 4.03542Z" fill="url(#paint20_linear_732_1294)"/>
<path d="M31.0416 12.0278C31.2201 12.4596 31.3012 13.0612 31.3994 13.5215C31.9043 15.8908 31.7156 18.4195 30.8033 20.6674C30.6893 20.9483 30.2786 21.7316 30.2543 21.9644L30.2386 21.9279C30.2217 21.939 29.7472 22.6669 29.6626 22.7817C28.941 23.7595 27.9461 24.5643 26.823 25.0343C26.5185 25.1619 26.2182 25.2134 25.9841 25.307C25.0389 25.509 23.8413 25.397 23.0183 24.8665C23.23 24.9383 23.4017 24.9957 23.6271 25.0017C24.351 25.0213 24.8416 25.0465 25.4026 24.5387C25.4844 24.4028 25.6208 24.2594 25.7146 24.1192C26.3711 23.1372 26.4503 21.3588 25.3477 20.6508C24.9308 20.3833 24.6585 20.2826 24.156 20.3359C23.5298 20.4021 23.1038 20.8323 23.0578 21.4626C23.0203 21.96 23.3116 22.2626 23.6105 22.6151C23.1433 22.6518 22.7462 22.634 22.3184 22.4228C21.8361 22.184 21.4677 21.7642 21.2936 21.255C21.0743 20.6067 21.1938 19.8108 21.4922 19.2107C22.1824 17.8225 23.7746 17.1604 25.2634 17.504C25.5932 17.5802 25.897 17.6621 26.2011 17.8164C27.1486 18.2956 27.876 19.1203 28.2332 20.1203C28.343 20.4323 28.3628 20.6841 28.4551 20.9626L28.4636 20.988C28.6377 20.7606 28.8277 20.3052 28.9389 20.0311C29.663 18.2457 29.7872 16.2706 29.5221 14.3765C29.4918 14.1591 29.4176 13.9314 29.4072 13.7143C29.4497 13.5852 29.7366 13.3892 29.8517 13.3037C29.9575 13.1697 30.2677 12.9156 30.4059 12.7793C30.6616 12.5267 30.8303 12.3153 31.0416 12.0278Z" fill="#042239"/>
<path d="M29.8517 13.3037C30.0267 13.7904 30.13 14.4896 30.1799 15.0049C30.369 16.957 30.0787 18.97 29.2331 20.7471C28.864 21.5226 28.2078 22.5531 27.5644 23.1289C27.6551 22.8543 27.7639 22.5265 27.8067 22.242C27.9302 21.4204 27.8368 20.5684 27.4612 19.8241C27.0502 19.0246 26.3348 18.4241 25.4761 18.158C24.0982 17.7166 22.3343 18.2939 21.8554 19.7752C21.5717 20.6531 21.8324 21.3821 22.553 21.9465C22.2407 20.5927 23.2852 19.4724 24.8221 19.7772C27.01 20.2109 27.4739 23.5029 25.4217 24.5373C25.4153 24.5379 25.409 24.5384 25.4026 24.5387C25.4844 24.4029 25.6208 24.2594 25.7146 24.1193C26.3711 23.1372 26.4503 21.3588 25.3477 20.6509C24.9308 20.3833 24.6585 20.2827 24.156 20.3359C23.5298 20.4022 23.1038 20.8324 23.0578 21.4627C23.0203 21.96 23.3116 22.2627 23.6105 22.6152C23.1433 22.6518 22.7462 22.634 22.3184 22.4229C21.8361 22.184 21.4677 21.7642 21.2936 21.255C21.0743 20.6068 21.1938 19.8108 21.4922 19.2107C22.1824 17.8226 23.7746 17.1604 25.2634 17.5041C25.5932 17.5802 25.897 17.6622 26.2011 17.8164C27.1486 18.2956 27.876 19.1203 28.2332 20.1203C28.343 20.4323 28.3628 20.6842 28.4551 20.9626L28.4636 20.988C28.6377 20.7607 28.8277 20.3052 28.9389 20.0312C29.663 18.2457 29.7872 16.2707 29.5221 14.3766C29.4918 14.1591 29.4176 13.9315 29.4072 13.7143C29.4497 13.5853 29.7366 13.3892 29.8517 13.3037Z" fill="url(#paint21_linear_732_1294)"/>
<path d="M4.96765 7.06638C5.29941 6.13079 6.12015 5.04923 6.79595 4.3243C8.70227 2.25736 11.2531 0.897911 14.0319 0.467984C16.7666 0.0511177 19.68 0.513686 22.1131 1.8405C22.4691 2.03467 22.957 2.29268 23.2534 2.57077C23.2381 2.77214 23.1599 3.07964 23.135 3.31044C23.1126 3.53214 23.0941 3.75425 23.0797 3.97665C23.0719 4.11451 23.0779 4.23136 23.0582 4.36893C23.0495 4.43802 23.0266 4.53874 23.0129 4.60965C22.7429 4.43571 22.4716 4.15709 22.1878 3.98801C21.8998 3.81643 21.5671 3.6911 21.2809 3.52289L21.262 3.51163C21.0981 3.46219 20.7953 3.29986 20.6125 3.23181C20.29 3.11163 19.9523 2.97609 19.626 2.86939C18.4325 2.47901 17.1813 2.27982 15.9248 2.29536C15.6151 2.2992 15.3331 2.33081 15.0297 2.34075L15.0027 2.34646C14.9043 2.36658 14.7652 2.37099 14.6589 2.38846C14.4005 2.4309 14.1384 2.47544 13.8821 2.52955C12.4446 2.82008 11.0861 3.4155 9.89826 4.27567C9.63734 4.46077 9.35786 4.68864 9.10745 4.88925C8.98356 4.9885 8.69137 5.33842 8.56983 5.39451C8.24123 5.54615 7.84213 5.64989 7.48852 5.78529C7.38679 5.85676 7.30143 5.98269 7.18877 6.04312C6.9768 6.15688 6.66799 6.19812 6.45055 6.28416C5.95615 6.4798 5.39254 6.75299 4.96765 7.06638Z" fill="#042239"/>
<path d="M7.48853 5.78513C7.56971 5.46867 8.82951 4.34839 9.1435 4.10395C10.8663 2.75426 12.9464 1.93829 15.1273 1.7567C15.6405 1.70931 16.2378 1.66997 16.7528 1.73455C16.4435 1.77329 15.1905 1.70836 15.0245 1.82393C15.1459 1.97094 15.2968 1.88591 15.2582 2.1888L15.2907 2.21125C15.257 2.31602 15.1206 2.25325 15.0298 2.34058L15.0027 2.3463C14.9043 2.36642 14.7652 2.37083 14.6589 2.3883C14.4005 2.43074 14.1384 2.47528 13.8821 2.52938C12.4446 2.81991 11.0861 3.41534 9.89827 4.27551C9.63735 4.46061 9.35787 4.68848 9.10745 4.88909C8.98357 4.98834 8.69138 5.33826 8.56984 5.39435C8.24124 5.54599 7.84214 5.64973 7.48853 5.78513Z" fill="url(#paint22_linear_732_1294)"/>
<path d="M16.7528 1.73455C18.2376 1.75357 20.3185 2.36604 21.5833 3.13745C21.5257 3.15417 21.4723 3.11408 21.4041 3.08376C21.3651 3.14434 21.1466 3.31271 21.0729 3.38302C21.1348 3.43147 21.2712 3.47828 21.2846 3.50489L21.262 3.51147C21.0981 3.46203 20.7953 3.2997 20.6125 3.23165C20.29 3.11147 19.9523 2.97593 19.6261 2.86923C18.4325 2.47885 17.1813 2.27966 15.9249 2.2952C15.6151 2.29904 15.3331 2.33064 15.0298 2.34058C15.1206 2.25325 15.257 2.31602 15.2907 2.21125L15.2582 2.1888C15.2968 1.88591 15.1459 1.97094 15.0245 1.82393C15.1905 1.70836 16.4435 1.77329 16.7528 1.73455Z" fill="url(#paint23_linear_732_1294)"/>
<path d="M21.262 3.51147L21.2846 3.50489C21.2712 3.47828 21.1348 3.43147 21.0729 3.38302C21.1466 3.31271 21.3651 3.14434 21.4041 3.08376C21.4723 3.11408 21.5257 3.15417 21.5833 3.13745C21.8567 3.26361 22.8206 3.91326 23.0509 4.18365C23.0589 4.19297 23.0585 4.33954 23.0582 4.36876C23.0495 4.43785 23.0266 4.53858 23.0129 4.60949C22.7429 4.43555 22.4716 4.15693 22.1878 3.98785C21.8999 3.81627 21.5671 3.69094 21.2809 3.52273L21.262 3.51147Z" fill="url(#paint24_linear_732_1294)"/>
<path d="M24.9396 15.6249C24.9624 15.6035 25.2971 15.3056 25.4885 15.1648C26.2525 14.6029 26.8466 14.3663 27.7912 14.5569C28.892 14.779 29.3312 16.4207 28.3034 16.9608C28.0767 17.0803 27.8113 17.1028 27.5675 17.0235C27.3819 16.9617 27.2085 16.8466 27.1332 16.6634C26.9106 16.1216 27.3303 15.8347 27.7531 15.6729C27.0767 14.6832 25.6291 15.4662 24.8779 15.9584C24.7992 16.0099 24.4949 16.2466 24.423 16.244C24.4504 16.1585 24.5281 16.0675 24.5861 15.9967C24.6562 15.9082 24.7352 15.8427 24.8088 15.7571C24.86 15.7059 24.8856 15.6803 24.9396 15.6249Z" fill="url(#paint25_linear_732_1294)"/>
<path d="M19.5229 3.66415C20.128 3.61278 20.8466 3.73793 21.391 4.00594C22.0581 4.33438 23.1443 5.04408 23.3932 5.76646C23.16 5.61718 22.918 5.41058 22.6909 5.24312C22.1048 4.81131 21.6111 4.56008 20.9172 4.35407C20.7449 4.31714 20.5699 4.29398 20.3938 4.28478C19.8092 4.25443 19.4216 4.29206 18.9854 4.68787C19.2399 4.83089 19.4124 4.94845 19.5016 5.25428C19.6343 5.6519 19.2221 6.08195 18.8324 6.06288C17.8815 6.01631 17.7664 4.89242 18.2689 4.28952C18.6223 3.86564 19.0044 3.72318 19.5229 3.66415Z" fill="url(#paint26_linear_732_1294)"/>
<path d="M22.3114 16.1757C22.5269 15.7445 22.6794 15.1834 22.5661 14.7031C22.4882 14.3729 22.0139 14.0846 22.2261 13.6944C22.3847 13.4025 22.6248 13.2497 22.9362 13.4478C23.6511 13.9025 23.3634 15.1019 22.9866 15.6882C22.8602 15.884 22.6114 16.2032 22.4265 16.3246C22.3789 16.391 22.1512 16.5534 22.0749 16.6038C22.1489 16.4355 22.2134 16.3331 22.3114 16.1757Z" fill="url(#paint27_linear_732_1294)"/>
<path d="M22.3114 16.1757C22.347 16.2592 22.271 16.2953 22.3512 16.338C22.3836 16.3114 22.3812 16.3047 22.4215 16.2957L22.4265 16.3246C22.3789 16.391 22.1512 16.5534 22.0749 16.6038C22.1489 16.4355 22.2134 16.3331 22.3114 16.1757Z" fill="url(#paint28_linear_732_1294)"/>
<path d="M29.9818 5.35379C30.0206 5.35082 30.0595 5.35028 30.0983 5.3522C30.3882 5.36515 30.5486 5.58388 30.5255 5.86577C30.4774 6.4527 29.7687 6.45297 29.369 6.68142C29.2005 6.77766 29.059 6.90879 28.9153 7.0396C28.7979 7.16304 28.7137 7.25133 28.61 7.3884C28.7861 6.64804 29.1436 5.55861 29.9818 5.35379Z" fill="url(#paint29_linear_732_1294)"/>
<path d="M17.5572 3.013C17.8202 2.97731 18.2874 3.00926 18.5569 3.04189C18.3703 3.1464 18.0893 3.17469 17.8258 3.31569C17.5631 3.45535 17.3209 3.63069 17.1062 3.8367C16.9761 3.95952 16.8092 4.13154 16.6707 4.23612L16.6511 4.25065C16.3608 4.43158 15.8639 4.47404 15.8546 4.07469C15.8381 3.36511 17.0882 3.04954 17.5572 3.013Z" fill="url(#paint30_linear_732_1294)"/>
<path d="M2.61404 23.401C3.01977 23.8746 3.73647 24.4434 4.24939 24.8172C4.49523 24.9963 4.89184 25.1989 5.08817 25.4198C5.31238 25.6722 5.51438 26.003 5.72743 26.2794C6.0555 26.7048 6.46482 27.0783 6.78835 27.4941C7.03414 27.8099 7.26671 28.1867 7.50778 28.5163C7.88924 29.0377 8.29449 29.4341 8.75886 29.8819C8.71573 29.942 8.71451 29.9457 8.65207 29.9822C8.23737 29.785 7.57944 29.3299 7.20493 29.0618C5.58528 27.9023 4.19789 26.4475 3.13521 24.7615C2.86946 24.3399 2.62906 23.9707 2.40608 23.5161C2.4132 23.5061 2.4205 23.496 2.42796 23.4861C2.48762 23.4084 2.51294 23.4153 2.61404 23.401Z" fill="#042239"/>
<path d="M2.08749 22.7815C2.26833 23.0133 2.41662 23.1807 2.61404 23.401C2.51294 23.4153 2.48762 23.4084 2.42796 23.4861C2.4205 23.496 2.4132 23.5061 2.40608 23.5161C2.26693 23.2676 2.15641 23.0591 2.08749 22.7815Z" fill="#042239"/>
<path d="M8.75886 29.8819C8.94822 30.0622 9.15709 30.1734 9.34395 30.3664C9.11116 30.2214 8.88003 30.1172 8.65207 29.9822C8.71451 29.9457 8.71573 29.942 8.75886 29.8819Z" fill="#042239"/>
<path d="M2.41658 8.86998C2.91064 7.87954 3.95737 6.2625 4.75577 5.51968L4.9385 5.53484L4.92326 5.55683C4.64099 5.96831 4.42722 6.46521 4.20125 6.90774C4.12578 7.0555 3.98982 7.56354 3.8997 7.65331C3.45104 8.10014 2.89737 8.50789 2.50134 9.01232C2.47597 8.9332 2.47488 8.93075 2.41658 8.86998Z" fill="#042239"/>
<path d="M4.75577 5.51968C4.92301 5.345 5.09246 5.15986 5.27856 5.0061C5.17279 5.21068 5.07453 5.34826 4.9385 5.53484L4.75577 5.51968Z" fill="#042239"/>
<path d="M2.13541 9.47646C2.15795 9.39505 2.36483 8.9819 2.41658 8.86998C2.47488 8.93075 2.47597 8.9332 2.50134 9.01232C2.3759 9.13732 2.24087 9.3301 2.13541 9.47646Z" fill="#042239"/>
<path d="M9.31864 8.99731C10.4095 9.33834 11.2703 9.43161 12.4057 9.25C12.5271 9.23056 13.0181 9.06295 13.082 9.12471C13.0092 9.34497 12.761 9.54048 12.6547 9.78203C12.3469 10.481 12.3849 11.1744 12.3825 11.9226L12.3851 14.2106C12.3827 14.8016 12.4174 15.4758 12.2342 16.0413C12.1876 16.1853 11.9503 16.4273 11.9863 16.5518L11.9633 16.5666C11.4677 16.8789 10.5479 17.0758 9.97637 17.2934C8.66179 17.7941 7.51874 18.6941 6.78573 19.9009C6.41111 20.5176 6.19397 21.1078 5.98993 21.7908C6.01519 21.335 6.2043 20.6716 6.21061 20.3061C6.21571 20.3533 6.21451 20.3991 6.24052 20.4367C6.37742 20.1813 6.44658 19.8757 6.57663 19.624C7.0061 18.793 7.57962 18.04 8.31188 17.4526C8.62081 17.2046 8.94552 16.9674 9.25864 16.7164C9.88821 15.8802 9.7415 14.7153 9.75073 13.729C9.76096 12.6368 9.77384 11.5007 9.72317 10.407C9.70863 10.0928 9.57815 9.74186 9.5368 9.42243L9.5334 9.39513C9.4525 9.2618 9.37574 9.14302 9.31864 8.99731Z" fill="#042239"/>
<path d="M21.7973 6.59888C22.0932 6.76215 22.399 6.98093 22.6872 7.15255C23.782 7.80443 24.7385 8.56285 25.0916 9.85476C25.3737 10.887 25.2779 12.0517 24.8469 13.0375C24.4349 12.2431 24.245 12.1029 23.5598 11.5303C22.6158 10.7416 22.0282 9.7967 21.8235 8.57113C21.7722 8.26326 21.7724 8.03288 21.7352 7.75673C21.7513 7.58998 21.7472 7.12423 21.7521 6.92748L21.7973 6.59888Z" fill="#042239"/>
<path d="M9.53339 9.39502C10.4235 10.0656 10.3723 11.1231 10.3568 12.1226C10.3537 12.3249 10.3564 12.5314 10.357 12.734L10.3602 14.0326C10.3609 14.812 10.3817 15.5175 9.87655 16.1646C9.77195 16.2986 9.42812 16.6974 9.25864 16.7163C9.8882 15.8801 9.74149 14.7151 9.75073 13.7289C9.76095 12.6367 9.77383 11.5006 9.72316 10.4069C9.70862 10.0927 9.57814 9.74176 9.53679 9.42232L9.53339 9.39502Z" fill="url(#paint31_linear_732_1294)"/>
<path d="M22.7192 8.61987C23.3248 8.92244 24.0089 9.51995 24.2627 10.1613C24.2084 10.242 24.2278 10.3308 24.2403 10.4292C24.0145 10.1219 23.8557 9.84102 23.6088 9.53003C23.3167 9.16214 23.0203 8.93711 22.7192 8.61987Z" fill="url(#paint32_linear_732_1294)"/>
<path d="M24.2403 10.4292C24.2278 10.3308 24.2084 10.242 24.2627 10.1613C24.3725 10.4247 24.4653 10.6566 24.5399 10.9338C24.4264 10.7656 24.3469 10.5946 24.2403 10.4292Z" fill="url(#paint33_linear_732_1294)"/>
<defs>
<linearGradient id="paint0_linear_732_1294" x1="3.17685" y1="24.7685" x2="29.9289" y2="24.7685" gradientUnits="userSpaceOnUse">
<stop stop-color="#987622"/>
<stop offset="0.3" stop-color="#BC922C"/>
<stop offset="0.5" stop-color="#E0C67B"/>
<stop offset="0.7" stop-color="#BC922C"/>
<stop offset="1" stop-color="#987622"/>
</linearGradient>
<linearGradient id="paint1_linear_732_1294" x1="3.17685" y1="24.7685" x2="29.9289" y2="24.7685" gradientUnits="userSpaceOnUse">
<stop stop-color="#987622"/>
<stop offset="0.3" stop-color="#BC922C"/>
<stop offset="0.5" stop-color="#E0C67B"/>
<stop offset="0.7" stop-color="#BC922C"/>
<stop offset="1" stop-color="#987622"/>
</linearGradient>
<linearGradient id="paint2_linear_732_1294" x1="3.17685" y1="24.7685" x2="29.9289" y2="24.7685" gradientUnits="userSpaceOnUse">
<stop stop-color="#987622"/>
<stop offset="0.3" stop-color="#BC922C"/>
<stop offset="0.5" stop-color="#E0C67B"/>
<stop offset="0.7" stop-color="#BC922C"/>
<stop offset="1" stop-color="#987622"/>
</linearGradient>
<linearGradient id="paint3_linear_732_1294" x1="3.17685" y1="24.7685" x2="29.9289" y2="24.7685" gradientUnits="userSpaceOnUse">
<stop stop-color="#987622"/>
<stop offset="0.3" stop-color="#BC922C"/>
<stop offset="0.5" stop-color="#E0C67B"/>
<stop offset="0.7" stop-color="#BC922C"/>
<stop offset="1" stop-color="#987622"/>
</linearGradient>
<linearGradient id="paint4_linear_732_1294" x1="3.17685" y1="24.7685" x2="29.9289" y2="24.7685" gradientUnits="userSpaceOnUse">
<stop stop-color="#987622"/>
<stop offset="0.3" stop-color="#BC922C"/>
<stop offset="0.5" stop-color="#E0C67B"/>
<stop offset="0.7" stop-color="#BC922C"/>
<stop offset="1" stop-color="#987622"/>
</linearGradient>
<linearGradient id="paint5_linear_732_1294" x1="3.17685" y1="24.7685" x2="29.9289" y2="24.7685" gradientUnits="userSpaceOnUse">
<stop stop-color="#987622"/>
<stop offset="0.3" stop-color="#BC922C"/>
<stop offset="0.5" stop-color="#E0C67B"/>
<stop offset="0.7" stop-color="#BC922C"/>
<stop offset="1" stop-color="#987622"/>
</linearGradient>
<linearGradient id="paint6_linear_732_1294" x1="3.17685" y1="24.7685" x2="29.9289" y2="24.7685" gradientUnits="userSpaceOnUse">
<stop stop-color="#987622"/>
<stop offset="0.3" stop-color="#BC922C"/>
<stop offset="0.5" stop-color="#E0C67B"/>
<stop offset="0.7" stop-color="#BC922C"/>
<stop offset="1" stop-color="#987622"/>
</linearGradient>
<linearGradient id="paint7_linear_732_1294" x1="3.17685" y1="24.7685" x2="29.9289" y2="24.7685" gradientUnits="userSpaceOnUse">
<stop stop-color="#987622"/>
<stop offset="0.3" stop-color="#BC922C"/>
<stop offset="0.5" stop-color="#E0C67B"/>
<stop offset="0.7" stop-color="#BC922C"/>
<stop offset="1" stop-color="#987622"/>
</linearGradient>
<linearGradient id="paint8_linear_732_1294" x1="2.76724" y1="22.2083" x2="30.2616" y2="22.2083" gradientUnits="userSpaceOnUse">
<stop stop-color="#987622"/>
<stop offset="0.3" stop-color="#BC922C"/>
<stop offset="0.5" stop-color="#E0C67B"/>
<stop offset="0.7" stop-color="#BC922C"/>
<stop offset="1" stop-color="#987622"/>
</linearGradient>
<linearGradient id="paint9_linear_732_1294" x1="2.76724" y1="22.2083" x2="30.2616" y2="22.2083" gradientUnits="userSpaceOnUse">
<stop stop-color="#987622"/>
<stop offset="0.3" stop-color="#BC922C"/>
<stop offset="0.5" stop-color="#E0C67B"/>
<stop offset="0.7" stop-color="#BC922C"/>
<stop offset="1" stop-color="#987622"/>
</linearGradient>
<linearGradient id="paint10_linear_732_1294" x1="2.25525" y1="12.9923" x2="31.8232" y2="12.9923" gradientUnits="userSpaceOnUse">
<stop stop-color="#987622"/>
<stop offset="0.3" stop-color="#BC922C"/>
<stop offset="0.5" stop-color="#E0C67B"/>
<stop offset="0.7" stop-color="#BC922C"/>
<stop offset="0.947115" stop-color="#987622"/>
</linearGradient>
<linearGradient id="paint11_linear_732_1294" x1="1.94802" y1="15.8084" x2="30.9016" y2="15.8084" gradientUnits="userSpaceOnUse">
<stop stop-color="#987622"/>
<stop offset="0.3" stop-color="#BC922C"/>
<stop offset="0.5" stop-color="#E0C67B"/>
<stop offset="0.7" stop-color="#BC922C"/>
<stop offset="1" stop-color="#987622"/>
</linearGradient>
<linearGradient id="paint12_linear_732_1294" x1="1.94802" y1="15.8084" x2="30.9016" y2="15.8084" gradientUnits="userSpaceOnUse">
<stop stop-color="#987622"/>
<stop offset="0.3" stop-color="#BC922C"/>
<stop offset="0.5" stop-color="#E0C67B"/>
<stop offset="0.7" stop-color="#BC922C"/>
<stop offset="1" stop-color="#987622"/>
</linearGradient>
<linearGradient id="paint13_linear_732_1294" x1="1.94802" y1="15.8084" x2="30.9016" y2="15.8084" gradientUnits="userSpaceOnUse">
<stop stop-color="#987622"/>
<stop offset="0.3" stop-color="#BC922C"/>
<stop offset="0.5" stop-color="#E0C67B"/>
<stop offset="0.7" stop-color="#BC922C"/>
<stop offset="1" stop-color="#987622"/>
</linearGradient>
<linearGradient id="paint14_linear_732_1294" x1="1.94802" y1="15.8084" x2="30.9016" y2="15.8084" gradientUnits="userSpaceOnUse">
<stop stop-color="#987622"/>
<stop offset="0.3" stop-color="#BC922C"/>
<stop offset="0.5" stop-color="#E0C67B"/>
<stop offset="0.7" stop-color="#BC922C"/>
<stop offset="1" stop-color="#987622"/>
</linearGradient>
<linearGradient id="paint15_linear_732_1294" x1="2.02485" y1="7.61638" x2="31.4905" y2="7.61638" gradientUnits="userSpaceOnUse">
<stop stop-color="#987622"/>
<stop offset="0.3" stop-color="#BC922C"/>
<stop offset="0.5" stop-color="#E0C67B"/>
<stop offset="0.7" stop-color="#BC922C"/>
<stop offset="1" stop-color="#987622"/>
</linearGradient>
<linearGradient id="paint16_linear_732_1294" x1="2.02485" y1="7.61638" x2="31.4905" y2="7.61638" gradientUnits="userSpaceOnUse">
<stop stop-color="#987622"/>
<stop offset="0.3" stop-color="#BC922C"/>
<stop offset="0.5" stop-color="#E0C67B"/>
<stop offset="0.7" stop-color="#BC922C"/>
<stop offset="1" stop-color="#987622"/>
</linearGradient>
<linearGradient id="paint17_linear_732_1294" x1="2.02485" y1="7.61638" x2="31.4905" y2="7.61638" gradientUnits="userSpaceOnUse">
<stop stop-color="#987622"/>
<stop offset="0.3" stop-color="#BC922C"/>
<stop offset="0.5" stop-color="#E0C67B"/>
<stop offset="0.7" stop-color="#BC922C"/>
<stop offset="1" stop-color="#987622"/>
</linearGradient>
<linearGradient id="paint18_linear_732_1294" x1="2.02485" y1="7.61638" x2="31.4905" y2="7.61638" gradientUnits="userSpaceOnUse">
<stop stop-color="#987622"/>
<stop offset="0.3" stop-color="#BC922C"/>
<stop offset="0.5" stop-color="#E0C67B"/>
<stop offset="0.7" stop-color="#BC922C"/>
<stop offset="1" stop-color="#987622"/>
</linearGradient>
<linearGradient id="paint19_linear_732_1294" x1="2.02485" y1="7.61638" x2="31.4905" y2="7.61638" gradientUnits="userSpaceOnUse">
<stop stop-color="#987622"/>
<stop offset="0.3" stop-color="#BC922C"/>
<stop offset="0.5" stop-color="#E0C67B"/>
<stop offset="0.7" stop-color="#BC922C"/>
<stop offset="1" stop-color="#987622"/>
</linearGradient>
<linearGradient id="paint20_linear_732_1294" x1="2.02485" y1="7.61638" x2="31.4905" y2="7.61638" gradientUnits="userSpaceOnUse">
<stop stop-color="#987622"/>
<stop offset="0.3" stop-color="#BC922C"/>
<stop offset="0.5" stop-color="#E0C67B"/>
<stop offset="0.7" stop-color="#BC922C"/>
<stop offset="1" stop-color="#987622"/>
</linearGradient>
<linearGradient id="paint21_linear_732_1294" x1="1.99925" y1="18.9316" x2="31.2088" y2="18.9316" gradientUnits="userSpaceOnUse">
<stop stop-color="#987622"/>
<stop offset="0.302885" stop-color="#BC922C"/>
<stop offset="0.5" stop-color="#E0C67B"/>
<stop offset="0.7" stop-color="#BC922C"/>
<stop offset="1" stop-color="#987622"/>
</linearGradient>
<linearGradient id="paint22_linear_732_1294" x1="2.69044" y1="3.74291" x2="31.3368" y2="3.7251" gradientUnits="userSpaceOnUse">
<stop stop-color="#987622"/>
<stop offset="0.3" stop-color="#BC922C"/>
<stop offset="0.5" stop-color="#E0C67B"/>
<stop offset="0.701923" stop-color="#BC922C"/>
<stop offset="1" stop-color="#987622"/>
</linearGradient>
<linearGradient id="paint23_linear_732_1294" x1="2.69044" y1="3.74291" x2="31.3368" y2="3.7251" gradientUnits="userSpaceOnUse">
<stop stop-color="#987622"/>
<stop offset="0.3" stop-color="#BC922C"/>
<stop offset="0.5" stop-color="#E0C67B"/>
<stop offset="0.701923" stop-color="#BC922C"/>
<stop offset="1" stop-color="#987622"/>
</linearGradient>
<linearGradient id="paint24_linear_732_1294" x1="2.69044" y1="3.74291" x2="31.3368" y2="3.7251" gradientUnits="userSpaceOnUse">
<stop stop-color="#987622"/>
<stop offset="0.3" stop-color="#BC922C"/>
<stop offset="0.5" stop-color="#E0C67B"/>
<stop offset="0.701923" stop-color="#BC922C"/>
<stop offset="1" stop-color="#987622"/>
</linearGradient>
<linearGradient id="paint25_linear_732_1294" x1="1.94803" y1="15.7571" x2="31.644" y2="15.7571" gradientUnits="userSpaceOnUse">
<stop stop-color="#987622"/>
<stop offset="0.302885" stop-color="#BC922C"/>
<stop offset="0.5" stop-color="#E0C67B"/>
<stop offset="0.7" stop-color="#BC922C"/>
<stop offset="1" stop-color="#987622"/>
</linearGradient>
<linearGradient id="paint26_linear_732_1294" x1="1.87124" y1="4.85145" x2="30.9016" y2="4.85145" gradientUnits="userSpaceOnUse">
<stop stop-color="#987622"/>
<stop offset="0.3" stop-color="#BC922C"/>
<stop offset="0.495192" stop-color="#E0C67B"/>
<stop offset="0.697115" stop-color="#BC922C"/>
<stop offset="1" stop-color="#987622"/>
</linearGradient>
<linearGradient id="paint27_linear_732_1294" x1="1.79443" y1="14.9892" x2="31.4392" y2="14.9892" gradientUnits="userSpaceOnUse">
<stop stop-color="#987622"/>
<stop offset="0.230769" stop-color="#BC922C"/>
<stop offset="0.490385" stop-color="#E0C67B"/>
<stop offset="0.745192" stop-color="#BC922C"/>
<stop offset="1" stop-color="#987622"/>
</linearGradient>
<linearGradient id="paint28_linear_732_1294" x1="1.79443" y1="14.9892" x2="31.4392" y2="14.9892" gradientUnits="userSpaceOnUse">
<stop stop-color="#987622"/>
<stop offset="0.230769" stop-color="#BC922C"/>
<stop offset="0.490385" stop-color="#E0C67B"/>
<stop offset="0.745192" stop-color="#BC922C"/>
<stop offset="1" stop-color="#987622"/>
</linearGradient>
<linearGradient id="paint29_linear_732_1294" x1="2.35764" y1="6.38766" x2="31.1064" y2="6.38766" gradientUnits="userSpaceOnUse">
<stop stop-color="#987622"/>
<stop offset="0.3" stop-color="#BC922C"/>
<stop offset="0.504808" stop-color="#E0C67B"/>
<stop offset="0.7" stop-color="#BC922C"/>
<stop offset="1" stop-color="#987622"/>
</linearGradient>
<linearGradient id="paint30_linear_732_1294" x1="1.79445" y1="3.67391" x2="30.8505" y2="3.67391" gradientUnits="userSpaceOnUse">
<stop stop-color="#987622"/>
<stop offset="0.3" stop-color="#BC922C"/>
<stop offset="0.5" stop-color="#E0C67B"/>
<stop offset="0.7" stop-color="#BC922C"/>
<stop offset="1" stop-color="#987622"/>
</linearGradient>
<linearGradient id="paint31_linear_732_1294" x1="31.7464" y1="13.0435" x2="2.10162" y2="13.0435" gradientUnits="userSpaceOnUse">
<stop stop-color="#987622"/>
<stop offset="0.3" stop-color="#BC922C"/>
<stop offset="0.5" stop-color="#E0C67B"/>
<stop offset="0.7" stop-color="#BC922C"/>
<stop offset="1" stop-color="#987622"/>
</linearGradient>
<linearGradient id="paint32_linear_732_1294" x1="2.07605" y1="10.9443" x2="31.4904" y2="10.9443" gradientUnits="userSpaceOnUse">
<stop stop-color="#987622"/>
<stop offset="0.3" stop-color="#BC922C"/>
<stop offset="0.5" stop-color="#E0C67B"/>
<stop offset="0.7" stop-color="#BC922C"/>
<stop offset="1" stop-color="#987622"/>
</linearGradient>
<linearGradient id="paint33_linear_732_1294" x1="2.07605" y1="10.9443" x2="31.4904" y2="10.9443" gradientUnits="userSpaceOnUse">
<stop stop-color="#987622"/>
<stop offset="0.3" stop-color="#BC922C"/>
<stop offset="0.5" stop-color="#E0C67B"/>
<stop offset="0.7" stop-color="#BC922C"/>
<stop offset="1" stop-color="#987622"/>
</linearGradient>
</defs>
</svg>
